<?xml version="1.0" encoding="UTF-8"?>
<svg width="144px" height="144px" viewBox="0 0 144 144" version="1.1" xmlns="http://www.w3.org/2000/svg" xmlns:xlink="http://www.w3.org/1999/xlink">
    <!-- Generator: Sketch 50.2 (55047) - http://www.bohemiancoding.com/sketch -->
    <title>Untitled</title>
    <desc>Created with Sketch.</desc>
    <defs></defs>
    <g id="Page-1" stroke="none" stroke-width="1" fill="none" fill-rule="evenodd">
        <path d="M95.3519104,45.2973284 C92.3734559,40.9744326 89.0020109,37.5409365 85.2789428,35.0588911 C81.038782,32.2252226 76.5711003,30.7773628 72,30.7773628 C67.4288997,30.7773628 62.961218,32.2252226 58.7210572,35.0588911 C54.8325194,37.6443551 51.3162884,41.305372 48.2550991,45.8764723 C42.236139,54.8945705 38.8026429,66.3740305 38.8026429,77.4191324 C38.8026429,84.906636 40.4159724,91.5874749 43.4978454,97.1513933 L46.186728,101.184717 C46.9106579,102.115484 47.6966389,103.004884 48.5239874,103.852916 C54.4602126,109.913243 62.8164321,113.243321 72.0206837,113.243321 C81.2249354,113.243321 89.5604711,109.913243 95.5173801,103.852916 C101.86728,97.3789141 105.218041,88.2367136 105.218041,77.4191324 C105.218041,67.8012065 102.591209,57.8316576 97.9373743,49.4547544 L95.3519104,45.2973284 Z M100.957196,77.3984487 C100.957196,87.0991095 98.0201092,95.2071244 92.4561907,100.874461 C87.3059466,106.10744 80.0459638,108.982476 72,108.982476 C63.9540362,108.982476 56.6733697,106.10744 51.5438093,100.874461 C45.9798908,95.2071244 43.0428038,87.0991095 43.0428038,77.3984487 C43.0428038,67.1806952 46.2280954,56.5492675 51.7920138,48.2137317 C57.4800345,39.6920425 64.6572824,34.99684 72,34.99684 C79.3427176,34.99684 86.5199655,39.6920425 92.2079862,48.2137317 C97.7719046,56.5492675 100.957196,67.1806952 100.957196,77.3984487 Z M72,37.8925596 C65.7535191,37.8925596 59.2588337,42.236139 54.212008,49.8063775 C53.5501293,50.8198793 53.8190175,52.1229532 54.791152,52.7848319 C55.1634588,53.0330365 55.5564493,53.136455 55.9701235,53.136455 C56.652686,53.136455 57.3352485,52.8055157 57.7489227,52.1850043 C62.0097673,45.8144211 67.2013789,42.1534042 72,42.1534042 C73.1789716,42.1534042 74.1304223,41.2019535 74.1304223,40.0229819 C74.1304223,38.8440103 73.1789716,37.8925596 72,37.8925596 Z M138.332663,43.9735708 C134.713014,35.3898305 129.521402,27.6954898 122.902614,21.0973858 C116.283826,14.4785981 108.589486,9.2869865 100.026429,5.66733697 C91.1531169,1.90290147 81.7213444,0 72,0 C62.2786556,0 52.8468831,1.90290147 43.9735708,5.66733697 C35.3898305,9.2869865 27.6954898,14.4785981 21.0973858,21.0973858 C14.4785981,27.7161735 9.2869865,35.4105142 5.66733697,43.9735708 C1.90290147,52.8468831 0,62.2786556 0,72 C0,81.7213444 1.90290147,91.1531169 5.66733697,100.026429 C9.2869865,108.610169 14.4785981,116.30451 21.0973858,122.902614 C27.7161735,129.521402 35.4105142,134.713014 43.9735708,138.332663 C52.8468831,142.097099 62.2786556,144 72,144 C81.7213444,144 91.1531169,142.097099 100.026429,138.332663 C108.610169,134.713014 116.30451,129.521402 122.902614,122.902614 C129.521402,116.283826 134.713014,108.589486 138.332663,100.026429 C142.097099,91.1531169 144,81.7213444 144,72 C144,62.2786556 142.097099,52.8468831 138.332663,43.9735708 Z M119.986211,119.986211 C107.16231,132.810112 90.1189313,139.863258 72,139.863258 C54.6670497,139.863258 38.3269176,133.40994 25.7305372,121.640908 L22.3590922,118.269463 C10.5900603,105.673082 4.13674232,89.3329503 4.13674232,72 C4.13674232,53.8810687 11.189888,36.8376903 24.0137891,24.0137891 C36.8376903,11.189888 53.8810687,4.13674232 72,4.13674232 C89.3329503,4.13674232 105.673082,10.5900603 118.269463,22.3590922 L121.640908,25.7305372 C133.40994,38.3269176 139.863258,54.6670497 139.863258,72 C139.863258,90.1189313 132.810112,107.16231 119.986211,119.986211 Z" id="Shape" fill="#000000" fill-rule="nonzero"></path>
    </g>
</svg>