<?xml version="1.0" encoding="UTF-8"?>
<svg width="144px" height="144px" viewBox="0 0 144 144" version="1.1" xmlns="http://www.w3.org/2000/svg" xmlns:xlink="http://www.w3.org/1999/xlink">
    <!-- Generator: Sketch 50.2 (55047) - http://www.bohemiancoding.com/sketch -->
    <title>Untitled</title>
    <desc>Created with Sketch.</desc>
    <defs></defs>
    <g id="Page-1" stroke="none" stroke-width="1" fill="none" fill-rule="evenodd">
        <path d="M138.332663,43.9735708 C134.713014,35.3898305 129.521402,27.6954898 122.902614,21.0973858 C116.283826,14.4785981 108.589486,9.2869865 100.026429,5.66733697 C91.1531169,1.90290147 81.7213444,0 72,0 C62.2786556,0 52.8468831,1.90290147 43.9735708,5.66733697 C35.3898305,9.2869865 27.6954898,14.4785981 21.0973858,21.0973858 C14.4785981,27.7161735 9.2869865,35.4105142 5.66733697,43.9735708 C1.90290147,52.8468831 0,62.2786556 0,72 C0,81.7213444 1.90290147,91.1531169 5.66733697,100.026429 C9.2869865,108.610169 14.4785981,116.30451 21.0973858,122.902614 C27.7161735,129.521402 35.4105142,134.713014 43.9735708,138.332663 C52.8468831,142.097099 62.2786556,144 72,144 C81.7213444,144 91.1531169,142.097099 100.026429,138.332663 C108.610169,134.713014 116.30451,129.521402 122.902614,122.902614 C129.521402,116.283826 134.713014,108.589486 138.332663,100.026429 C142.097099,91.1531169 144,81.7213444 144,72 C144,62.2786556 142.097099,52.8468831 138.332663,43.9735708 Z M119.986211,119.986211 C107.16231,132.810112 90.1189313,139.863258 72,139.863258 C54.8325194,139.863258 38.6164895,133.513358 26.0614766,121.951163 L22.6900316,118.600402 C10.7141626,105.962654 4.13674232,89.4777363 4.13674232,72 C4.13674232,53.8810687 11.189888,36.8376903 24.0137891,24.0137891 C36.8376903,11.189888 53.8810687,4.13674232 72,4.13674232 C89.4777363,4.13674232 105.962654,10.7141626 118.600402,22.6693479 L121.951163,26.0407929 C133.513358,38.5958058 139.863258,54.791152 139.863258,71.9793163 C139.863258,90.1189313 132.810112,107.16231 119.986211,119.986211 Z M92.6423442,48.6480896 C85.2168917,45.2766446 77.3570813,43.4978454 69.3938523,43.4978454 C60.2723355,43.4978454 51.3783396,45.75237 42.9600689,50.1786843 C34.2935938,54.7497845 26.537202,61.4306234 19.8977305,70.0764148 L19.4220052,70.6969262 C18.8428612,71.4622235 18.8428612,72.5170928 19.4220052,73.2823901 L19.8977305,73.9029015 C26.537202,82.5486929 34.2935938,89.2295317 42.9600689,93.800632 C43.9528871,94.3177248 44.966389,94.8141339 45.9798908,95.2898592 L50.7578282,97.2548118 C56.797472,99.4059178 63.0439529,100.502155 69.3938523,100.502155 C77.3363976,100.502155 85.1548406,98.7854065 92.6216604,95.3932778 C99.6541224,92.2079862 106.190175,87.5955185 112.064349,81.7213444 L121.37202,91.0290147 C121.971847,91.6288423 122.902614,91.8149957 123.688595,91.4840563 C124.474576,91.1531169 124.991669,90.3878196 124.991669,89.5191037 L124.991669,54.4808963 C124.991669,53.6121804 124.474576,52.8468831 123.688595,52.5159437 C122.902614,52.1850043 121.971847,52.3711577 121.37202,52.9709853 L112.064349,62.2786556 C107.451882,57.6661879 102.42574,53.8603849 97.1100259,50.8819305 L92.6423442,48.6480896 Z M54.4602126,94.0281528 C42.9807527,90.5326056 32.4320598,83.0037346 23.7862683,72 C32.4320598,60.9962654 42.9807527,53.4673944 54.4602126,49.9718472 C56.4665326,57.0043091 57.5007182,64.4090779 57.5007182,72 C57.5007182,79.5909221 56.4872163,86.9750072 54.4602126,94.0281528 Z M110.513071,66.767021 C110.906061,67.1806952 111.443838,67.4288997 112.022982,67.4288997 C112.602126,67.4288997 113.139902,67.2220626 113.553577,66.8083884 L120.772192,59.5897731 L120.772192,84.3895432 L113.553577,77.1709279 C113.139902,76.7572537 112.602126,76.5504165 112.022982,76.5504165 C111.443838,76.5504165 110.906061,76.7986211 110.513071,77.2122953 C104.618213,83.4587762 98.0201092,88.2573973 90.8842287,91.50474 C83.975869,94.6486642 76.73657,96.24131 69.4145361,96.24131 C65.7535191,96.24131 62.1338696,95.8483194 58.5762712,95.0830221 C60.6860098,87.6989371 61.7408791,79.9425452 61.7408791,71.9793163 C61.7408791,64.0574548 60.6653261,56.3010629 58.5762712,48.8962942 C62.1131859,48.1309968 65.7328354,47.7380063 69.4145361,47.7380063 C76.7572537,47.7380063 83.975869,49.3306521 90.8842287,52.4745763 C98.0201092,55.721919 104.618213,60.5205401 110.513071,66.767021 Z M44.0149382,59.4243034 C40.1677679,59.4243034 37.0445274,62.5475438 37.0445274,66.3947142 C37.0445274,70.2418845 40.1677679,73.365125 44.0149382,73.365125 C47.8621086,73.365125 50.985349,70.2418845 50.985349,66.3947142 C50.985349,62.5475438 47.8621086,59.4243034 44.0149382,59.4243034 Z M44.0149382,69.1042804 C42.525711,69.1042804 41.305372,67.8839414 41.305372,66.3947142 C41.305372,64.9054869 42.525711,63.6851479 44.0149382,63.6851479 C45.5041655,63.6851479 46.7245045,64.9054869 46.7245045,66.3947142 C46.7451882,67.8839414 45.5248492,69.1042804 44.0149382,69.1042804 Z" id="Shape" fill="#000000" fill-rule="nonzero"></path>
    </g>
</svg>