<?xml version="1.0" encoding="UTF-8"?>
<svg width="144px" height="144px" viewBox="0 0 144 144" version="1.1" xmlns="http://www.w3.org/2000/svg" xmlns:xlink="http://www.w3.org/1999/xlink">
    <!-- Generator: Sketch 50.2 (55047) - http://www.bohemiancoding.com/sketch -->
    <title>Untitled</title>
    <desc>Created with Sketch.</desc>
    <defs></defs>
    <g id="Page-1" stroke="none" stroke-width="1" fill="none" fill-rule="evenodd">
        <g id="Trash">
            <path d="M113.722334,29.9612903 L108.622938,120.309677 C108.159356,126.580645 103.05996,131.690323 96.8016097,131.690323 L47.8937626,131.690323 C41.6354125,131.690323 36.3042254,126.812903 36.0724346,120.309677 L30.9730382,29.9612903 L27.7279678,29.9612903 C26.1054326,29.9612903 24.7146881,28.5677419 24.7146881,26.9419355 C24.7146881,25.316129 26.1054326,23.9225806 27.7279678,23.9225806 L117.199195,23.9225806 C118.82173,23.9225806 120.212475,25.316129 120.212475,26.9419355 C120.212475,28.5677419 118.82173,29.9612903 117.199195,29.9612903 L113.722334,29.9612903 Z M36.5360161,29.9612903 L41.171831,118.683871 C41.4036217,122.4 44.4169014,125.419355 48.3573441,125.419355 L96.3380282,125.419355 C100.04668,125.419355 103.291751,122.4 103.523541,118.683871 L108.159356,29.9612903 L36.5360161,29.9612903 Z M92.1657948,41.8064516 L87.0663984,41.8064516 L84.5167002,113.574194 L89.3843058,113.574194 L92.1657948,41.8064516 Z M60.4104628,113.574194 L57.8607646,41.8064516 L52.7613682,41.8064516 L55.3110664,113.574194 L60.4104628,113.574194 Z M69.9138833,41.8064516 L74.7814889,41.8064516 L74.7814889,113.574194 L69.9138833,113.574194 L69.9138833,41.8064516 Z M63.4237425,11.8451613 L81.2716298,11.8451613 C86.1392354,11.8451613 90.3114688,15.7935484 90.3114688,20.9032258 L90.3114688,23.9225806 L54.6156942,23.9225806 L54.6156942,20.9032258 C54.6156942,16.0258065 58.5561368,11.8451613 63.4237425,11.8451613 Z M63.4237425,17.883871 C61.8012072,17.883871 60.4104628,19.2774194 60.4104628,20.9032258 L60.4104628,23.9225806 L84.2849095,23.9225806 L84.2849095,20.9032258 C84.2849095,19.2774194 82.894165,17.883871 81.2716298,17.883871 L63.4237425,17.883871 Z" id="Shape" fill="#000000" fill-rule="nonzero"></path>
        </g>
    </g>
</svg>
