<?xml version="1.0" encoding="UTF-8"?>
<svg width="697px" height="697px" viewBox="0 0 697 697" version="1.1" xmlns="http://www.w3.org/2000/svg" xmlns:xlink="http://www.w3.org/1999/xlink">
    <!-- Generator: Sketch 50 (54983) - http://www.bohemiancoding.com/sketch -->
    <title>crustaceos</title>
    <desc>Created with Sketch.</desc>
    <defs></defs>
    <g id="Page-1" stroke="none" stroke-width="1" fill="none" fill-rule="evenodd">
        <g id="crustaceos" fill="#000000" fill-rule="nonzero">
            <path d="M669.1,213.2 C651.6,171.7 626.5,134.5 594.5,102.6 C562.5,70.6 525.3,45.5 483.9,28 C441,9.8 395.4,0.6 348.4,0.6 C301.4,0.6 255.8,9.8 212.9,28 C171.4,45.5 134.2,70.6 102.3,102.6 C70.3,134.6 45.2,171.8 27.7,213.2 C9.5,256.1 0.3,301.7 0.3,348.7 C0.3,395.7 9.5,441.3 27.7,484.2 C45.2,525.7 70.3,562.9 102.3,594.8 C134.3,626.8 171.5,651.9 212.9,669.4 C255.8,687.6 301.4,696.8 348.4,696.8 C395.4,696.8 441,687.6 483.9,669.4 C525.4,651.9 562.6,626.8 594.5,594.8 C626.5,562.8 651.6,525.6 669.1,484.2 C687.3,441.3 696.5,395.7 696.5,348.7 C696.4,301.7 687.2,256.1 669.1,213.2 Z M20.2,348.7 C20.2,261.1 54.3,178.7 116.3,116.7 C178.3,54.7 260.7,20.6 348.3,20.6 C432.1,20.6 511.1,51.8 572,108.7 L467.1,213.7 C467.2,213.4 467.4,213.1 467.5,212.9 C474.2,197.6 477.9,177.4 477.9,156.1 C477.9,121.2 467.9,90.5 452.5,78 C449.5,75.6 445.5,75 442,76.5 C438.5,78 436.1,81.3 435.8,85.1 C433.3,117.2 421.4,136.8 414,136.8 C412.7,136.8 411.2,136.1 409.6,134.8 C406.6,132.4 402.6,131.8 399.1,133.3 C395.6,134.8 393.2,138.1 392.9,141.9 C392.5,146.5 392.3,151.3 392.3,156 C392.3,177.3 396,197.5 402.7,212.8 C408.3,225.7 415.9,234.4 424.4,238.4 C420.3,276.8 387.8,306.8 348.4,306.8 C308.7,306.8 276,276.4 272.3,237.6 C280.2,233.3 287.1,224.9 292.4,212.8 C299.1,197.5 302.8,177.3 302.8,156 C302.8,151.3 302.6,146.5 302.2,141.9 C301.9,138.1 299.5,134.8 296,133.3 C292.5,131.8 288.4,132.4 285.5,134.8 C283.9,136.1 282.4,136.8 281.1,136.8 C277.6,136.8 273.1,132.2 269.2,124.8 C264,114.8 260.5,100.7 259.3,85.1 C259,81.3 256.6,78 253.1,76.5 C249.6,75 245.5,75.6 242.6,78 C227.2,90.6 217.2,121.3 217.2,156.1 C217.2,177.4 220.9,197.6 227.6,212.9 C233.8,227.1 242.2,236.2 251.9,239.5 C255.3,275.7 278.6,306.1 310.7,319.7 C298.2,329.4 289.5,343.7 287.3,360 C269.8,350.4 254.8,336.9 243.4,320.3 C228.8,299.1 221.1,274.1 221.1,248.2 C221.1,242.5 216.5,237.9 210.8,237.9 C205.1,237.9 200.5,242.5 200.5,248.2 C200.5,278.3 209.5,307.2 226.4,331.9 C241.6,354.1 262.4,371.5 286.6,382.6 L286.6,394.2 L108.3,572.4 C51.4,511.5 20.2,432.5 20.2,348.7 Z M421.4,204.6 C416,192.3 412.9,175.1 412.7,157.3 C413.1,157.3 413.5,157.3 413.9,157.3 C430.5,157.3 444.3,141.1 451.4,114.9 C455.3,127.3 457.3,142.5 457.3,156 C457.3,174.2 454.1,192 448.6,204.6 C444.1,214.9 439.3,219.3 436.1,220.1 C435.7,220.1 435.4,220 435,220 C434.6,220 434.3,220 433.9,220.1 C430.7,219.3 425.9,215 421.4,204.6 Z M322.1,568.9 C322.4,569.1 322.8,569.2 323.1,569.3 C323.6,569.5 324.2,569.8 324.7,570 C325.1,570.2 325.6,570.3 326,570.5 C326.6,570.7 327.1,570.9 327.7,571.1 C328.1,571.2 328.5,571.4 329,571.5 C329.6,571.7 330.2,571.9 330.8,572.1 C331.2,572.2 331.6,572.3 332,572.5 C332.6,572.7 333.3,572.8 334,573 C334.4,573.1 334.8,573.2 335.2,573.3 C335.9,573.4 336.6,573.6 337.3,573.7 C337.7,573.8 338.1,573.8 338.4,573.9 C339.1,574 339.8,574.1 340.6,574.2 C341,574.2 341.3,574.3 341.7,574.3 C342.5,574.4 343.3,574.4 344.1,574.5 C344.4,574.5 344.7,574.6 345,574.6 C346.1,574.7 347.2,574.7 348.3,574.7 L349.3,574.7 C350.4,574.7 351.5,574.7 352.6,574.6 C353,574.6 353.3,574.5 353.7,574.5 C354.4,574.4 355.2,574.4 355.9,574.3 C356.4,574.3 356.8,574.2 357.3,574.1 C357.9,574 358.6,573.9 359.2,573.8 C359.7,573.7 360.2,573.6 360.7,573.5 C361.3,573.4 361.8,573.3 362.4,573.2 C362.9,573.1 363.5,573 364,572.8 C364.5,572.7 365,572.5 365.5,572.4 C366.1,572.2 366.6,572.1 367.2,571.9 C367.6,571.8 368.1,571.6 368.5,571.5 C369.1,571.3 369.7,571.1 370.3,570.9 C370.6,570.8 370.9,570.7 371.2,570.5 C372.9,569.9 374.5,569.2 376.1,568.4 L408.8,601.1 L289.7,601.1 L322.1,568.9 Z M307.1,512.9 L307.1,455.6 C318,465.4 332.5,471.4 348.3,471.4 L349.3,471.4 C365.1,471.4 379.6,465.4 390.5,455.6 L390.5,512.9 C390.5,527.5 382.9,540.4 371.4,547.7 C371,547.9 370.6,548.2 370.3,548.4 C369.9,548.6 369.6,548.8 369.2,549 C368.6,549.3 368,549.7 367.4,550 C367,550.2 366.6,550.3 366.3,550.5 C365.8,550.7 365.4,550.9 364.9,551.1 C364.6,551.2 364.2,551.4 363.9,551.5 C363.2,551.8 362.4,552 361.7,552.3 C361.4,552.4 361.2,552.4 360.9,552.5 C360.3,552.7 359.7,552.8 359,553 C358.7,553.1 358.4,553.1 358.2,553.2 C357.4,553.4 356.5,553.5 355.7,553.7 C355.6,553.7 355.4,553.7 355.3,553.8 C354.5,553.9 353.8,554 353,554.1 C352.8,554.1 352.5,554.1 352.3,554.2 C351.4,554.3 350.5,554.3 349.6,554.3 L348.6,554.3 C347.7,554.3 346.8,554.3 345.9,554.2 C345.7,554.2 345.4,554.2 345.2,554.1 C344.5,554 343.7,554 343,553.9 C342.9,553.9 342.7,553.9 342.6,553.8 C341.7,553.7 340.8,553.5 340,553.3 C339.8,553.3 339.7,553.2 339.5,553.2 C338.8,553 338,552.8 337.3,552.6 C337.1,552.5 336.9,552.5 336.8,552.4 C336,552.1 335.1,551.9 334.3,551.6 C334.2,551.5 334,551.5 333.9,551.4 C333.2,551.1 332.5,550.9 331.9,550.6 C331.7,550.5 331.5,550.4 331.3,550.3 C330.5,549.9 329.8,549.6 329,549.2 C328.8,549.1 328.7,549 328.5,548.9 C327.9,548.6 327.3,548.2 326.7,547.8 C314.8,540.5 307.1,527.6 307.1,512.9 Z M390.6,375.4 C390.6,375.4 390.6,375.5 390.6,375.5 L390.6,409.7 C390.6,432.4 372.1,450.9 349.4,450.9 L348.4,450.9 C325.7,450.9 307.2,432.4 307.2,409.7 L307.2,375.8 C307.2,375.8 307.2,375.8 307.2,375.7 L307.2,368.5 C307.2,345.8 325.7,327.3 348.4,327.3 L349.4,327.3 C372.1,327.3 390.6,345.8 390.6,368.5 L390.6,375.4 Z M261.2,220.1 C260.7,220.1 260.2,220.2 259.7,220.3 C256.5,220.1 251.3,215.9 246.4,204.7 C240.9,192.1 237.7,174.4 237.7,156.1 C237.7,140 240.1,125.9 243.6,115 C250.8,141.1 264.5,157.3 281.1,157.3 C281.5,157.3 281.9,157.3 282.3,157.3 C282.2,175.1 279,192.3 273.6,204.6 C269.1,214.8 264.4,219.2 261.2,220.1 Z M580.3,580.7 C518.3,642.7 435.9,676.8 348.3,676.8 C264.5,676.8 185.5,645.6 124.6,588.7 L286.5,426.8 L286.5,513 C286.5,530.2 293.6,545.8 305,557 L257.7,604.3 C254.8,607.2 253.9,611.7 255.5,615.5 C257.1,619.3 260.8,621.8 265,621.8 L433.8,621.8 C438,621.8 441.7,619.3 443.3,615.5 C444.9,611.7 444,607.2 441.1,604.3 L393.2,556.4 C404.3,545.2 411.2,529.9 411.2,512.9 L411.2,382.2 C463.1,357.9 496.3,306 496.3,248.3 C496.3,242.6 491.7,238 486,238 C480.3,238 475.7,242.6 475.7,248.3 C475.7,295 450.5,337.2 410.4,359.5 C408,343.2 399.2,329 386.7,319.4 C403.7,312 418.2,299.9 428.6,284.7 L588.3,125 C645.2,185.9 676.4,264.9 676.4,348.7 C676.4,436.4 642.3,518.7 580.3,580.7 Z" id="Shape"></path>
        </g>
    </g>
</svg>