<?xml version="1.0" encoding="UTF-8"?>
<svg width="698px" height="698px" viewBox="0 0 698 698" version="1.1" xmlns="http://www.w3.org/2000/svg" xmlns:xlink="http://www.w3.org/1999/xlink">
    <!-- Generator: Sketch 50 (54983) - http://www.bohemiancoding.com/sketch -->
    <title>huevos</title>
    <desc>Created with Sketch.</desc>
    <defs></defs>
    <g id="Page-1" stroke="none" stroke-width="1" fill="none" fill-rule="evenodd">
        <g id="huevos" fill="#000000" fill-rule="nonzero">
            <g id="Group">
                <path d="M669.7,213.5 C652.2,172 627.1,134.8 595.1,102.9 C563.1,70.9 525.9,45.8 484.5,28.3 C441.6,10.1 396,0.9 349,0.9 C302,0.9 256.4,10.1 213.5,28.3 C172,45.8 134.8,70.9 102.9,102.9 C70.9,134.9 45.8,172.1 28.3,213.5 C10.1,256.4 0.9,302 0.9,349 C0.9,396 10.1,441.6 28.3,484.5 C45.8,526 70.9,563.2 102.9,595.1 C134.9,627.1 172.1,652.2 213.5,669.7 C256.4,687.9 302,697.1 349,697.1 C396,697.1 441.6,687.9 484.5,669.7 C526,652.2 563.2,627.1 595.1,595.1 C627.1,563.1 652.2,525.9 669.7,484.5 C687.9,441.6 697.1,396 697.1,349 C697.1,302 687.9,256.4 669.7,213.5 Z M20.9,349 C20.9,261.4 55,179 117,117 C179,55 261.4,20.9 349,20.9 C432.8,20.9 511.8,52.1 572.7,109 L461.9,219.9 C447.5,199 431.2,182.4 413.2,170.4 C392.7,156.7 371.1,149.7 349,149.7 C326.9,149.7 305.3,156.7 284.8,170.4 C266,182.9 249,200.6 234.2,222.7 C205.1,266.3 188.5,321.8 188.5,375.2 C188.5,411.4 196.3,443.7 211.2,470.6 L109,572.7 C52.1,511.8 20.9,432.8 20.9,349 Z M209,375.1 C209,325.7 224.4,274.3 251.3,234 C278.8,192.8 313.5,170.1 349,170.1 C384.5,170.1 419.2,192.8 446.7,234 C473.6,274.3 489,325.7 489,375.1 C489,422 474.8,461.2 447.9,488.6 C423,513.9 387.9,527.8 349,527.8 C310.1,527.8 274.9,513.9 250.1,488.6 C223.2,461.2 209,422 209,375.1 Z M581,581 C519,643 436.6,677.1 349,677.1 C265.2,677.1 186.2,645.9 125.3,589 L224.2,490.1 C227.7,494.6 231.5,498.9 235.5,503 C264.2,532.3 304.6,548.4 349.1,548.4 C393.6,548.4 433.9,532.3 462.7,503 C493.4,471.7 509.6,427.5 509.6,375.2 C509.6,328.7 496.9,280.5 474.4,240 L589,125.3 C645.9,186.2 677.1,265.2 677.1,349 C677.1,436.6 643,519 581,581 Z" id="Shape"></path>
                <path d="M265.8,256.1 C267.6,257.3 269.5,257.8 271.5,257.8 C274.8,257.8 278.1,256.2 280.1,253.2 C300.7,222.4 325.8,204.7 349,204.7 C354.7,204.7 359.3,200.1 359.3,194.4 C359.3,188.7 354.7,184.1 349,184.1 C318.8,184.1 287.4,205.1 263,241.7 C259.8,246.6 261.1,252.9 265.8,256.1 Z" id="Shape"></path>
            </g>
        </g>
    </g>
</svg>