<?xml version="1.0" encoding="UTF-8"?>
<svg width="698px" height="698px" viewBox="0 0 698 698" version="1.1" xmlns="http://www.w3.org/2000/svg" xmlns:xlink="http://www.w3.org/1999/xlink">
    <!-- Generator: Sketch 50 (54983) - http://www.bohemiancoding.com/sketch -->
    <title>Molluscs</title>
    <desc>Created with Sketch.</desc>
    <defs></defs>
    <g id="Page-1" stroke="none" stroke-width="1" fill="none" fill-rule="evenodd">
        <g id="Molluscs" fill="#000000" fill-rule="nonzero">
            <g id="Group">
                <path d="M669.7,213.5 C652.2,172 627.1,134.8 595.1,102.9 C563.1,70.9 525.9,45.8 484.5,28.3 C441.6,10.1 396,0.9 349,0.9 C302,0.9 256.4,10.1 213.5,28.3 C172,45.8 134.8,70.9 102.9,102.9 C70.9,134.9 45.8,172.1 28.3,213.5 C10.1,256.4 0.9,302 0.9,349 C0.9,396 10.1,441.6 28.3,484.5 C45.8,526 70.9,563.2 102.9,595.1 C134.9,627.1 172.1,652.2 213.5,669.7 C256.4,687.9 302,697.1 349,697.1 C396,697.1 441.6,687.9 484.5,669.7 C526,652.2 563.2,627.1 595.1,595.1 C627.1,563.1 652.2,525.9 669.7,484.5 C687.9,441.6 697.1,396 697.1,349 C697.1,302 687.9,256.4 669.7,213.5 Z M20.9,349 C20.9,261.4 55,179 117,117 C179,55 261.4,20.9 349,20.9 C433.9,20.9 513.8,52.9 575.1,111.2 L511.8,174.5 C504.9,169.6 497.7,165.1 490.3,160.8 C447.5,136.2 398.6,123.2 349,123.2 C299.4,123.2 250.5,136.2 207.7,160.8 C166.2,184.7 131.1,219 106.3,259.9 C103.8,263.9 104.5,269.1 107.8,272.5 L260.8,425.5 L111.2,575.1 C52.9,513.8 20.9,433.9 20.9,349 Z M392.4,455.9 L442.4,505.9 C421,536.3 386.7,554.3 349.1,554.3 C311.5,554.3 277.2,536.4 255.8,505.9 L305.8,455.9 C309.8,451.9 309.8,445.4 305.8,441.4 L128.1,263.8 C150.8,228.8 181.7,199.5 217.9,178.6 C257.6,155.8 302.9,143.7 349,143.7 C395.1,143.7 440.4,155.8 480.1,178.6 C516.3,199.4 547.2,228.8 569.9,263.8 L392.4,441.4 C390.5,443.3 389.4,445.9 389.4,448.7 C389.4,451.5 390.4,454 392.4,455.9 Z M581,581 C519,643 436.6,677.1 349,677.1 C266.3,677.1 188.3,646.7 127.7,591.2 L277,441.8 L283.8,448.6 L235.2,497.2 C231.9,500.5 231.2,505.7 233.7,509.8 C245.5,529.2 262.2,545.5 281.9,556.9 C302.2,568.6 325.4,574.8 349,574.8 C372.6,574.8 395.8,568.6 416.1,556.9 C435.8,545.6 452.5,529.3 464.3,509.8 C466.8,505.8 466.1,500.6 462.8,497.2 L414.2,448.6 L590.2,272.6 C593.5,269.3 594.2,264.1 591.7,260 C575.3,233 554.4,208.8 530.2,188.7 L591.2,127.7 C646.7,188.3 677.1,266.3 677.1,349 C677.1,436.6 643,519 581,581 Z" id="Shape"></path>
                <path d="M172.9,261.1 C191.9,236.6 215.9,215.7 242.7,200.2 C247.6,197.4 249.3,191.1 246.5,186.2 C243.7,181.3 237.4,179.6 232.5,182.4 C200.7,200.7 172.5,226.2 151.1,256 C148.2,260.1 148.6,265.7 152.2,269.3 L275.3,392.4 C277.3,394.4 279.9,395.4 282.6,395.4 C285.2,395.4 287.9,394.4 289.9,392.4 C293.9,388.4 293.9,381.9 289.9,377.9 L172.9,261.1 Z" id="Shape"></path>
            </g>
        </g>
    </g>
</svg>