<?xml version="1.0" encoding="UTF-8"?>
<svg width="144px" height="144px" viewBox="0 0 144 144" version="1.1" xmlns="http://www.w3.org/2000/svg" xmlns:xlink="http://www.w3.org/1999/xlink">
    <!-- Generator: Sketch 50.2 (55047) - http://www.bohemiancoding.com/sketch -->
    <title>Untitled</title>
    <desc>Created with Sketch.</desc>
    <defs></defs>
    <g id="Page-1" stroke="none" stroke-width="1" fill="none" fill-rule="evenodd">
        <path d="M138.332663,43.9735708 C134.713014,35.3898305 129.521402,27.6954898 122.902614,21.0973858 C116.283826,14.4785981 108.589486,9.2869865 100.026429,5.66733697 C91.1531169,1.90290147 81.7213444,0 72,0 C62.2786556,0 52.8468831,1.90290147 43.9735708,5.66733697 C35.3898305,9.2869865 27.6954898,14.4785981 21.0973858,21.0973858 C14.4785981,27.7161735 9.2869865,35.4105142 5.66733697,43.9735708 C1.90290147,52.8468831 0,62.2786556 0,72 C0,81.7213444 1.90290147,91.1531169 5.66733697,100.026429 C9.2869865,108.610169 14.4785981,116.30451 21.0973858,122.902614 C27.7161735,129.521402 35.4105142,134.713014 43.9735708,138.332663 C52.8468831,142.097099 62.2786556,144 72,144 C81.7213444,144 91.1531169,142.097099 100.026429,138.332663 C108.610169,134.713014 116.30451,129.521402 122.902614,122.902614 C129.521402,116.283826 134.713014,108.589486 138.332663,100.026429 C142.097099,91.1531169 144,81.7213444 144,72 C144,62.2786556 142.097099,52.8468831 138.332663,43.9735708 Z M119.986211,119.986211 C107.16231,132.810112 90.1189313,139.863258 72,139.863258 C54.8945705,139.863258 38.7612755,133.575409 26.2269463,122.095949 L22.8141339,118.765872 C10.75553,106.086757 4.13674232,89.5604711 4.13674232,72 C4.13674232,53.8810687 11.189888,36.8376903 24.0137891,24.0137891 C36.8376903,11.189888 53.8810687,4.13674232 72,4.13674232 C89.5604711,4.13674232 106.086757,10.75553 118.765872,22.8141339 L122.095949,26.2269463 C133.575409,38.7612755 139.863258,54.8945705 139.863258,72 C139.863258,90.1189313 132.810112,107.16231 119.986211,119.986211 Z M105.673082,35.9069233 C104.245906,34.8934214 102.756679,33.9626544 101.226084,33.0732548 C92.3734559,27.9850618 82.2591209,25.2961793 72,25.2961793 C61.7408791,25.2961793 51.6265441,27.9850618 42.7739155,33.0732548 C34.1901752,38.0166619 26.9301925,45.1111749 21.800632,53.570813 C21.2835392,54.3981614 21.4283252,55.4737144 22.1108877,56.1769606 L53.7569664,87.8230394 L57.1077277,91.1944843 L58.5142201,92.6009767 L48.4619362,102.653261 C47.7793737,103.335823 47.6345878,104.411376 48.1516806,105.259408 C50.5923585,109.272048 54.0465384,112.643493 58.1212295,115.001436 C62.320023,117.421431 67.1186441,118.703821 72,118.703821 C76.8813559,118.703821 81.679977,117.421431 85.8787705,115.001436 C89.9534616,112.664177 93.4076415,109.292732 95.8483194,105.259408 C96.3654122,104.43206 96.2206263,103.356507 95.5380638,102.653261 L85.4857799,92.6009767 L121.889112,56.1976444 C122.571675,55.5150819 122.716461,54.4395289 122.199368,53.5914967 C118.807239,48.0068946 114.484344,43.0014364 109.478885,38.8440103 L105.673082,35.9069233 Z M117.690319,54.3774777 L80.9767308,91.1117495 C80.5837403,91.50474 80.3562195,92.0425165 80.3562195,92.6216604 C80.3562195,93.2008044 80.5630566,93.7178972 80.9767308,94.1108877 L91.3185866,104.452743 C86.8922723,110.740592 79.7977593,114.46366 72.0206837,114.46366 C64.2436082,114.46366 57.1490951,110.761275 52.7227808,104.452743 L63.0646366,94.1108877 C63.8919851,93.2835392 63.8919851,91.939098 63.0646366,91.1117495 L26.3096811,54.3774777 C31.0048837,47.1381787 37.3961505,41.0778512 44.8836541,36.7549555 C53.0950876,32.0390692 62.464809,29.5363401 72,29.5363401 C81.535191,29.5363401 90.9049124,32.0390692 99.1163459,36.7549555 C106.603849,41.0571675 112.995116,47.1381787 117.690319,54.3774777 Z M35.5759839,53.8190175 C39.5058891,48.7515082 44.4699799,44.4286125 50.0132146,41.2226372 C51.0267165,40.6434932 51.3783396,39.3404194 50.7991956,38.3269176 C50.2200517,37.3134157 48.9169779,36.9617926 47.903476,37.5409365 C41.3260557,41.3260557 35.4932491,46.6004022 31.0669348,52.7641482 C30.4671072,53.6121804 30.549842,54.7704683 31.2944556,55.5150819 L56.7561046,80.9767308 C57.1697788,81.3904051 57.7075553,81.5972422 58.2660155,81.5972422 C58.803792,81.5972422 59.3622522,81.3904051 59.7759265,80.9767308 C60.6032749,80.1493824 60.6032749,78.8049411 59.7759265,77.9775926 L35.5759839,53.8190175 Z" id="Shape" fill="#000000" fill-rule="nonzero"></path>
    </g>
</svg>