<?xml version="1.0" encoding="UTF-8"?>
<svg width="697px" height="697px" viewBox="0 0 697 697" version="1.1" xmlns="http://www.w3.org/2000/svg" xmlns:xlink="http://www.w3.org/1999/xlink">
    <!-- Generator: Sketch 50 (54983) - http://www.bohemiancoding.com/sketch -->
    <title>sesamo</title>
    <desc>Created with Sketch.</desc>
    <defs></defs>
    <g id="Page-1" stroke="none" stroke-width="1" fill="none" fill-rule="evenodd">
        <g id="sesamo" fill="#000000" fill-rule="nonzero">
            <g id="Group">
                <path d="M669.5,212.9 C652,171.4 626.9,134.2 594.9,102.3 C562.9,70.3 525.7,45.2 484.3,27.7 C441.4,9.5 395.8,0.3 348.8,0.3 C301.8,0.3 256.2,9.5 213.3,27.7 C171.8,45.2 134.6,70.3 102.7,102.3 C70.7,134.3 45.6,171.5 28.1,212.9 C9.9,255.8 0.7,301.4 0.7,348.4 C0.7,395.4 9.9,441 28.1,483.9 C45.6,525.4 70.7,562.6 102.7,594.5 C134.7,626.5 171.9,651.6 213.3,669.1 C256.2,687.3 301.8,696.5 348.8,696.5 C395.8,696.5 441.4,687.3 484.3,669.1 C525.8,651.6 563,626.5 594.9,594.5 C626.9,562.5 652,525.3 669.5,483.9 C687.7,441 696.9,395.4 696.9,348.4 C696.9,301.4 687.7,255.8 669.5,212.9 Z M20.7,348.3 C20.7,260.7 54.8,178.3 116.8,116.3 C178.8,54.3 261.2,20.2 348.8,20.2 C433.8,20.2 513.9,52.3 575.2,110.8 L451.4,234.6 C449.7,234.3 448.1,234.2 446.3,234.2 C423.3,234.2 405.5,258.9 397.8,288.2 L378.7,307.3 C370.1,296.3 359.3,289.3 347.1,289.3 C316.1,289.3 294.5,334.3 294.5,374.7 C294.5,380.2 294.9,385.4 295.7,390.4 L288.3,397.8 C279.6,390.7 270.1,386.4 260.3,386.4 C257.8,386.4 255.3,386.7 252.8,387.3 C226.5,393.6 215.2,431.5 218.9,467.1 L111.3,574.7 C52.8,513.4 20.7,433.4 20.7,348.3 Z M446.4,254.7 C460.9,254.7 478.5,284.7 478.5,319.6 C478.5,347.9 465.9,366.3 446.4,366.3 C426.9,366.3 414.3,348 414.3,319.6 C414.3,284.6 431.9,254.7 446.4,254.7 Z M284.4,422.7 C293.4,433.6 300.6,448.2 304.1,462.8 C307.6,477.4 307.1,490.2 302.6,500 C298.8,508.3 292.3,513.7 283.8,515.7 C281.6,516.2 279.4,516.5 277.3,516.5 C261.1,516.5 247.5,501.7 241.7,477.9 C233.5,443.9 243.7,410.7 257.7,407.3 C258.6,407.1 259.5,407 260.4,407 C267.2,406.9 276.2,412.8 284.4,422.7 Z M317.7,395.4 C315.9,389.3 315,382.4 315,374.7 C315,339.7 332.7,309.8 347.1,309.8 C361.6,309.8 379.2,339.8 379.2,374.7 C379.2,403 366.6,421.4 347.1,421.4 C334.1,421.4 324.2,413.3 319,399.5 L320.2,398.3 C319.4,397.3 318.6,396.4 317.7,395.4 Z M580.8,580.3 C518.8,642.3 436.4,676.4 348.8,676.4 C266.2,676.4 188.3,646.1 127.8,590.8 L225,493.6 C236.3,525.3 258.8,537 277.3,537 C277.3,537 277.3,537 277.3,537 C281.1,537 284.9,536.5 288.7,535.6 C303.2,532.1 314.8,522.5 321.3,508.6 C327.8,494.6 328.8,477.1 324.2,458 C321.5,446.8 316.9,435.4 310.9,425 C320.3,435.9 333.2,441.8 347.4,441.8 C362.4,441.8 375.9,435.2 385.4,423.1 C395,411 400,394.2 400,374.6 C400,358.8 396.7,342.2 390.8,327.9 L394.1,324.6 C394.9,342.1 399.9,357 408.6,368.1 C418.1,380.1 431.6,386.8 446.6,386.8 C461.6,386.8 475.1,380.2 484.6,368.1 C494,356 499,339.3 499,319.6 C499,291.9 488.9,262.1 472.5,246 L591.2,127.3 C646.5,187.9 676.8,265.8 676.8,348.3 C676.9,436 642.7,518.4 580.8,580.3 Z" id="Shape"></path>
                <path d="M248,375.8 C248,375.8 248,375.8 248,375.8 C273.8,375.8 295.1,355.3 303.7,322.4 C308.6,303.4 308.9,282.4 304.6,264.6 C299.5,243.7 288.7,230.2 274.2,226.4 C271.6,225.7 268.9,225.4 266.2,225.4 C252.9,225.4 238.7,233.5 226.2,248.2 C215.2,261.2 206.3,278.6 201.8,295.9 C196.9,314.9 197.6,332.5 203.8,346.5 C210,360.6 221.4,370.4 235.9,374.1 C239.9,375.3 244,375.8 248,375.8 Z M221.6,301.1 C225.3,286.7 232.7,272.3 241.8,261.6 C250.1,251.8 259.1,246 266.1,246 C267.1,246 268.1,246.1 269,246.4 C275.6,248.1 281.5,256.8 284.6,269.6 C288.1,283.9 287.8,301.8 283.8,317.3 C277.7,340.7 264,355.3 248,355.3 C245.7,355.3 243.3,355 241,354.4 C222.1,349.4 214.5,328.6 221.6,301.1 Z" id="Shape"></path>
                <path d="M245.6,347.1 C250.2,347.1 254.3,344 255.5,339.4 L274.8,265.1 C276.2,259.6 272.9,254 267.4,252.6 C261.9,251.2 256.3,254.5 254.9,260 L235.6,334.3 C234.2,339.8 237.5,345.4 243,346.8 C243.8,347 244.7,347.1 245.6,347.1 Z" id="Shape"></path>
                <path d="M251.6,425.9 L269.5,500.5 C270.6,505.2 274.8,508.4 279.5,508.4 C280.3,508.4 281.1,508.3 281.9,508.1 C287.4,506.8 290.8,501.2 289.5,495.7 L271.6,421.1 C270.3,415.6 264.7,412.2 259.2,413.5 C253.6,414.8 250.2,420.4 251.6,425.9 Z" id="Shape"></path>
                <path d="M347.2,413.5 C352.9,413.5 357.5,408.9 357.5,403.2 L357.5,326.5 C357.5,320.8 352.9,316.2 347.2,316.2 C341.5,316.2 336.9,320.8 336.9,326.5 L336.9,403.2 C336.9,408.9 341.5,413.5 347.2,413.5 Z" id="Shape"></path>
                <path d="M470.3,395.2 C465.1,392 459,390.4 452.4,390.4 C428.8,390.4 398.7,411.6 380.9,440.8 C370.7,457.6 366.3,474.6 368.2,489.9 C370.1,505.1 378.2,517.8 391,525.6 C398.5,530.2 407.1,532.6 415.7,532.6 C415.7,532.6 415.7,532.6 415.7,532.6 C436.4,532.6 456.6,519.1 470.9,495.6 C491.9,461 496.8,411.3 470.3,395.2 Z M453.3,484.9 C442.8,502.2 429.1,512.1 415.7,512.1 C410.8,512.1 406,510.7 401.7,508.1 C385,498 383.8,475.8 398.5,451.6 C412.1,429.2 436.3,411 452.4,411 C455.2,411 457.7,411.6 459.6,412.8 C472,420.2 471.5,455 453.3,484.9 Z" id="Shape"></path>
                <path d="M456.3,418.3 C451.5,415.4 445.1,416.9 442.2,421.7 L402.3,487.2 C399.4,492 400.9,498.4 405.7,501.3 C407.4,502.3 409.2,502.8 411,502.8 C414.5,502.8 417.8,501 419.8,497.9 L459.7,432.4 C462.7,427.5 461.1,421.2 456.3,418.3 Z" id="Shape"></path>
                <path d="M446.4,358.4 C452.1,358.4 456.7,353.8 456.7,348.1 L456.7,271.4 C456.7,265.7 452.1,261.1 446.4,261.1 C440.7,261.1 436.1,265.7 436.1,271.4 L436.1,348.1 C436.1,353.8 440.7,358.4 446.4,358.4 Z" id="Shape"></path>
                <path d="M359.8,278.5 C359.8,278.5 359.8,278.5 359.8,278.5 C362.1,278.5 364.4,278.3 366.6,278 C381.4,275.9 393.9,267.5 401.7,254.2 C409.5,240.9 412.2,223.6 409.5,204.1 C406.9,185.6 399.6,166.8 389.6,152.3 C378,135.7 363.9,126.5 349.9,126.5 C348.4,126.5 347,126.6 345.5,126.8 C314.8,131.1 299.6,178.7 305.2,218.7 C310.3,255 331.7,278.5 359.8,278.5 Z M348.3,147.2 C348.8,147.1 349.3,147.1 349.8,147.1 C356.7,147.1 365.2,153.5 372.6,164.1 C381,176 387,191.6 389.1,207 C393,235.1 383.1,255 363.8,257.7 C362.5,257.9 361.1,258 359.8,258 C359.8,258 359.8,258 359.8,258 C342.3,258 329.1,241.9 325.5,216 C320.7,181.3 334,149.2 348.3,147.2 Z" id="Shape"></path>
                <path d="M351.1,241.2 C351.8,246.3 356.2,250 361.3,250 C361.8,250 362.3,250 362.7,249.9 C368.3,249.1 372.2,243.9 371.4,238.3 L360.7,162.3 C359.9,156.7 354.7,152.8 349.1,153.6 C343.5,154.4 339.6,159.6 340.4,165.2 L351.1,241.2 Z" id="Shape"></path>
            </g>
        </g>
    </g>
</svg>