<?xml version="1.0" encoding="UTF-8"?>
<svg width="144px" height="144px" viewBox="0 0 144 144" version="1.1" xmlns="http://www.w3.org/2000/svg" xmlns:xlink="http://www.w3.org/1999/xlink">
    <!-- Generator: Sketch 50.2 (55047) - http://www.bohemiancoding.com/sketch -->
    <title>Untitled</title>
    <desc>Created with Sketch.</desc>
    <defs></defs>
    <g id="Page-1" stroke="none" stroke-width="1" fill="none" fill-rule="evenodd">
        <path d="M138.332663,43.9735708 C134.713014,35.3898305 129.521402,27.6954898 122.902614,21.0973858 C116.283826,14.4785981 108.589486,9.2869865 100.026429,5.66733697 C91.1531169,1.90290147 81.7213444,0 72,0 C62.2786556,0 52.8468831,1.90290147 43.9735708,5.66733697 C35.3898305,9.2869865 27.6954898,14.4785981 21.0973858,21.0973858 C14.4785981,27.7161735 9.2869865,35.4105142 5.66733697,43.9735708 C1.90290147,52.8468831 0,62.2786556 0,72 C0,81.7213444 1.90290147,91.1531169 5.66733697,100.026429 C9.2869865,108.610169 14.4785981,116.30451 21.0973858,122.902614 C27.7161735,129.521402 35.4105142,134.713014 43.9735708,138.332663 C52.8468831,142.097099 62.2786556,144 72,144 C81.7213444,144 91.1531169,142.097099 100.026429,138.332663 C108.610169,134.713014 116.30451,129.521402 122.902614,122.902614 C129.521402,116.283826 134.713014,108.589486 138.332663,100.026429 C142.097099,91.1531169 144,81.7213444 144,72 C144,62.2786556 142.097099,52.8468831 138.332663,43.9735708 Z M119.986211,119.965527 C107.16231,132.789428 90.1189313,139.842574 72,139.842574 C54.9152542,139.842574 38.8026429,133.575409 26.2889974,122.137317 L22.876185,118.807239 C10.7762137,106.128124 4.13674232,89.5811548 4.13674232,71.9793163 C4.13674232,53.8603849 11.189888,36.8170066 24.0137891,23.9931054 C36.8376903,11.1692043 53.8810687,4.1160586 72,4.1160586 C89.5811548,4.1160586 106.148808,10.75553 118.827923,22.8555013 L122.137317,26.2683137 C133.575409,38.8026429 139.842574,54.9152542 139.842574,71.9793163 C139.863258,90.1189313 132.789428,107.16231 119.986211,119.965527 Z M48.6480896,77.3157139 C49.4754381,77.5639184 50.3234703,77.667337 51.1508187,77.667337 C56.4872163,77.667337 60.8928469,73.4271761 62.6716461,66.622235 C63.6851479,62.6923298 63.7471991,58.3487504 62.8577995,54.6670497 C61.8029302,50.344154 59.5690893,47.5518529 56.5699512,46.7658719 C56.0321747,46.6210859 55.4737144,46.5590348 54.9152542,46.5590348 C52.1643206,46.5590348 49.2272336,48.2344154 46.6417696,51.274921 C44.3665613,53.9638035 42.525711,57.5627693 41.594944,61.1410514 C40.5814421,65.0709566 40.7262281,68.7112899 42.0086182,71.6070095 C43.2910083,74.5234128 45.6489515,76.5504165 48.6480896,77.3157139 Z M45.6903189,62.2166044 C46.4556162,59.23815 47.9862109,56.2596955 49.8684286,54.0465384 C51.5851767,52.0195346 53.4467107,50.8198793 54.8945705,50.8198793 C55.1014076,50.8198793 55.3082448,50.8405631 55.4943982,50.9026142 C56.8595231,51.2542373 58.0798621,53.0537202 58.7210572,55.7012353 C59.4449871,58.659006 59.3829359,62.3613904 58.5555875,65.5673657 C57.2938811,70.4073542 54.4602126,73.4271761 51.1508187,73.4271761 C50.6750934,73.4271761 50.1786843,73.365125 49.7029589,73.2410227 C45.7937374,72.2068371 44.2217754,67.9046251 45.6903189,62.2166044 Z M50.1166332,71.6690606 C50.2821028,71.710428 50.4682562,71.7311117 50.6544097,71.7311117 C51.6058604,71.7311117 52.4538926,71.0899167 52.7020971,70.138466 L56.6940534,54.7704683 C56.9836254,53.6328641 56.3010629,52.4745763 55.1634588,52.1850043 C54.0258546,51.8954323 52.8675668,52.5779948 52.5779948,53.715599 L48.5860385,69.0835967 C48.2964665,70.2212008 48.979029,71.3794887 50.1166332,71.6690606 Z M97.1307096,81.679977 C96.0551566,81.0180982 94.7934502,80.6871589 93.4283252,80.6871589 C88.5469693,80.6871589 82.3211721,85.0721057 78.6394714,91.1117495 C76.5297328,94.586613 75.6196495,98.102844 76.01264,101.267452 C76.4056306,104.411376 78.0810112,107.038207 80.7285263,108.651537 C82.2798047,109.602988 84.0586038,110.099397 85.837403,110.099397 C90.1189313,110.099397 94.2970411,107.307096 97.2548118,102.446423 C101.598391,95.2898592 102.611893,85.0100546 97.1307096,81.679977 Z M93.6144786,100.233266 C91.4426889,103.811548 88.6090204,105.859236 85.837403,105.859236 C84.8239012,105.859236 83.831083,105.569664 82.9416834,105.031887 C79.4875036,102.942833 79.2392991,98.3510485 82.2798047,93.3455903 C85.0927894,88.712439 90.0982476,84.9480034 93.4283252,84.9480034 C94.0074691,84.9480034 94.5245619,85.0721057 94.9175524,85.3203103 C97.4823327,86.8509049 97.3789141,94.0488365 93.6144786,100.233266 Z M94.2349899,86.4579144 C93.2421718,85.8580868 91.9184142,86.1683424 91.3185866,87.1611606 L83.0657857,100.708992 C82.4659581,101.70181 82.7762137,103.025567 83.7690319,103.625395 C84.120655,103.832232 84.4929618,103.935651 84.8652686,103.935651 C85.5891985,103.935651 86.271761,103.563344 86.6854352,102.922149 L94.9382361,89.3743177 C95.5587475,88.3608159 95.2278081,87.057742 94.2349899,86.4579144 Z M74.2752083,57.5420856 C74.7509336,57.5420856 75.226659,57.5007182 75.6817007,57.438667 C78.74289,57.0043091 81.3283539,55.2668773 82.9416834,52.5159437 C84.5550129,49.7650101 85.1134731,46.186728 84.5550129,42.1534042 C84.0172364,38.3269176 82.5073255,34.4383798 80.4389543,31.4392416 C78.0396438,28.0057455 75.1232404,26.102844 72.2275208,26.102844 C71.9172652,26.102844 71.6276932,26.1235277 71.3174375,26.1648951 C64.9675381,27.0542947 61.8236139,36.8997415 62.9819018,45.1732261 C64.036771,52.6814134 68.4630853,57.5420856 74.2752083,57.5420856 Z M71.8965814,30.3843723 C72,30.3636886 72.1034186,30.3636886 72.2068371,30.3636886 C73.6340132,30.3636886 75.3921287,31.6874461 76.9227234,33.8799196 C78.6601551,36.3412812 79.9011778,39.5679402 80.3355358,42.7532318 C81.1422005,48.5653548 79.0945131,52.6814134 75.1025567,53.2398736 C74.8336685,53.281241 74.5440965,53.3019247 74.2752083,53.3019247 C70.6555587,53.3019247 67.9253088,49.9718472 67.1806952,44.6147659 C66.187877,37.437518 68.9388107,30.7980465 71.8965814,30.3843723 Z M72.4757254,49.8270612 C72.6205113,50.8819305 73.5305947,51.6472278 74.5854639,51.6472278 C74.6888825,51.6472278 74.7923011,51.6472278 74.8750359,51.6265441 C76.0333238,51.4610744 76.8399885,50.3855214 76.6745188,49.2272336 L74.4613617,33.5076128 C74.295892,32.3493249 73.220339,31.5426602 72.0620511,31.7081298 C70.9037633,31.8735995 70.0970985,32.9491525 70.2625682,34.1074404 L72.4757254,49.8270612 Z M92.3734559,79.7770756 C93.2421718,79.7977593 94.090204,79.673657 94.876185,79.4461362 C100.026429,78.0396438 103.14967,72.785981 103.066935,65.7535191 C103.004884,61.6995116 101.929331,57.4800345 100.08848,54.1706406 C97.9373743,50.2821028 95.0416547,48.1723643 91.939098,48.2137317 C91.3806377,48.2137317 90.8221775,48.2964665 90.284401,48.4412525 C87.636886,49.1651824 85.2375754,51.564493 83.5415111,55.1634588 C82.0522838,58.3487504 81.2249354,62.320023 81.2663028,66.0017236 C81.3283539,70.0557311 82.4245906,73.5305947 84.4309107,75.9919563 C86.4579144,78.4946854 89.2708992,79.8391267 92.3734559,79.7770756 Z M85.5271474,66.0017236 C85.4857799,62.9198506 86.1683424,59.6518242 87.4093651,57.0249928 C88.5262856,54.6256823 90.0155128,52.9709853 91.4013215,52.5779948 C91.6081586,52.5159437 91.8149957,52.49526 92.0011491,52.49526 C93.4076415,52.4745763 95.0623384,53.8810687 96.3860959,56.2803792 C97.8546395,58.948578 98.7854065,62.5268601 98.8267739,65.836254 C98.8888251,70.8417122 96.9445562,74.5027291 93.7592646,75.371445 C93.3042229,75.4955473 92.8078138,75.5782821 92.3114048,75.5782821 C88.2573973,75.5989658 85.6098822,71.8758977 85.5271474,66.0017236 Z M92.2907211,73.9442689 C92.4561907,73.9442689 92.6423442,73.9029015 92.8284976,73.861534 C93.7385809,73.6133295 94.4004596,72.7652973 94.3797759,71.7931629 L94.1729388,55.9080724 C94.1522551,54.7291008 93.1801207,53.7983338 92.0218328,53.8190175 C90.8428612,53.8397012 89.9120942,54.8118357 89.9327779,55.9701235 L90.1396151,71.855214 C90.1602988,73.0341856 91.1117495,73.9649526 92.2907211,73.9442689 Z M71.8345303,91.4840563 C72.7032462,91.50474 73.5512784,91.3806377 74.3372594,91.1531169 C79.4875036,89.7466245 82.610744,84.4929618 82.5280092,77.4604999 C82.4659581,73.4064924 81.3904051,69.1870152 79.5495547,65.8776214 C77.3984487,61.9890836 74.5234128,59.9000287 71.4208561,59.9207124 C70.8623959,59.9207124 70.3039357,60.0034473 69.7661591,60.1482333 C67.1186441,60.8721632 64.7193335,63.2714737 63.0232692,66.8704395 C61.5340419,70.0557311 60.7066935,74.0270037 60.7480609,77.7087044 C60.810112,81.7627119 61.9063488,85.2375754 63.9126688,87.6989371 C65.9189888,90.2016662 68.7319736,91.5254237 71.8345303,91.4840563 Z M64.9882218,77.6880207 C64.9468544,74.6061477 65.6294168,71.3381212 66.8704395,68.7112899 C67.98736,66.3119793 69.4765872,64.6572824 70.8623959,64.2642919 C71.069233,64.2022407 71.2760701,64.181557 71.4622235,64.181557 C72.8687159,64.1608733 74.5234128,65.5673657 75.8471704,67.9666762 C77.3157139,70.634875 78.2464809,74.2131571 78.2878483,77.522551 C78.3498995,82.5280092 76.4056306,86.1890261 73.220339,87.057742 C72.7652973,87.1818443 72.2688883,87.2645791 71.7724792,87.2645791 C67.7184717,87.3059466 65.0709566,83.5621948 64.9882218,77.6880207 Z M71.7517955,85.6512496 C71.9172652,85.6512496 72.1034186,85.6098822 72.289572,85.5685148 C73.1996553,85.3203103 73.861534,84.4722781 73.8408503,83.5001436 L73.6340132,67.6150531 C73.6133295,66.4360816 72.6411951,65.5053146 71.4829072,65.5259983 C70.3039357,65.546682 69.3731686,66.5188164 69.3938523,67.6771043 L69.6006895,83.5621948 C69.6213732,84.7204826 70.5728239,85.6719334 71.7517955,85.6512496 Z M59.9207124,110.223499 C60.7687446,110.037346 61.5547257,109.706406 62.2786556,109.292732 C66.911807,106.665901 68.6492387,100.791727 66.8497558,94.0074691 C65.7948865,90.0982476 63.7058317,86.271761 61.099684,83.5208273 C58.0384947,80.2734846 54.7291008,78.9497271 51.7299627,79.7563918 C51.1921862,79.9011778 50.6750934,80.1080149 50.1786843,80.3975869 C47.7793737,81.7627119 46.0626257,84.6584315 45.3180121,88.5883367 C44.676817,92.0425165 44.8422867,96.096524 45.7937374,99.6541224 C46.8486067,103.563344 48.7721919,106.665901 51.3162884,108.548118 C53.8810687,110.430336 56.942258,111.030164 59.9207124,110.223499 Z M49.8891123,98.5578857 C49.0824476,95.6001149 48.9376616,92.2493536 49.4961218,89.3950014 C49.9925309,86.7888538 51.0060327,84.8239012 52.2677392,84.0999713 C52.4538926,83.9965527 52.640046,83.9138179 52.8261994,83.8724504 C54.1913243,83.5001436 56.1355932,84.4722781 57.9971273,86.4579144 C60.0861821,88.6710715 61.8649813,91.9184142 62.7336972,95.1243895 C64.036771,99.9643781 63.0439529,103.977018 60.168917,105.611031 C59.7552427,105.838552 59.3002011,106.045389 58.8244757,106.169492 C54.9152542,107.182993 51.419707,104.225223 49.8891123,98.5578857 Z M58.4108015,104.576846 C58.5762712,104.535478 58.7417409,104.452743 58.9072106,104.370009 C59.734559,103.894283 60.1482333,102.922149 59.9000287,101.970698 L55.7839701,86.6440678 C55.4737144,85.5064637 54.3154266,84.8445849 53.1778225,85.1548406 C52.0402183,85.4650962 51.3783396,86.6233841 51.6885952,87.7609882 L55.8046538,103.087619 C56.1149095,104.225223 57.2731974,104.887101 58.4108015,104.576846 Z" id="Shape" fill="#000000" fill-rule="nonzero"></path>
    </g>
</svg>