<?xml version="1.0" encoding="UTF-8"?>
<svg width="144px" height="144px" viewBox="0 0 144 144" version="1.1" xmlns="http://www.w3.org/2000/svg" xmlns:xlink="http://www.w3.org/1999/xlink">
    <!-- Generator: Sketch 50.2 (55047) - http://www.bohemiancoding.com/sketch -->
    <title>Untitled</title>
    <desc>Created with Sketch.</desc>
    <defs></defs>
    <g id="Page-1" stroke="none" stroke-width="1" fill="none" fill-rule="evenodd">
        <path d="M138.332663,43.9735708 C134.713014,35.3898305 129.521402,27.6954898 122.902614,21.0973858 C116.283826,14.4785981 108.589486,9.2869865 100.026429,5.66733697 C91.1531169,1.90290147 81.7213444,0 72,0 C62.2786556,0 52.8468831,1.90290147 43.9735708,5.66733697 C35.3898305,9.2869865 27.6954898,14.4785981 21.0973858,21.0973858 C14.4785981,27.7161735 9.2869865,35.4105142 5.66733697,43.9735708 C1.90290147,52.8468831 0,62.2786556 0,72 C0,81.7213444 1.90290147,91.1531169 5.66733697,100.026429 C9.2869865,108.610169 14.4785981,116.30451 21.0973858,122.902614 C27.7161735,129.521402 35.4105142,134.713014 43.9735708,138.332663 C52.8468831,142.097099 62.2786556,144 72,144 C81.7213444,144 91.1531169,142.097099 100.026429,138.332663 C108.610169,134.713014 116.30451,129.521402 122.902614,122.902614 C129.521402,116.283826 134.713014,108.589486 138.332663,100.026429 C142.097099,91.1531169 144,81.7213444 144,72 C144,62.2786556 142.097099,52.8468831 138.332663,43.9735708 Z M119.986211,119.986211 C107.16231,132.810112 90.1189313,139.863258 72,139.863258 C54.9359379,139.863258 38.8440103,133.616777 26.3303648,122.199368 L22.8968687,118.807239 C10.7968974,106.190175 4.13674232,89.6018386 4.13674232,72 C4.13674232,53.8810687 11.189888,36.8376903 24.0137891,24.0137891 C36.8376903,11.189888 53.8810687,4.13674232 72,4.13674232 C89.6018386,4.13674232 106.190175,10.7968974 118.86929,22.9175524 L122.199368,26.3717323 C133.616777,38.8853778 139.863258,54.9773054 139.863258,72.0413674 C139.863258,90.1189313 132.810112,107.16231 119.986211,119.986211 Z M75.2680264,58.8658431 C74.3165757,58.5762712 73.3444413,58.4314852 72.3723068,58.4314852 C68.0287274,58.4314852 64.2642919,61.24447 63.0025855,65.3812123 L60.4998564,73.5305947 C58.9072106,78.7015226 61.8236139,84.2240735 67.0152255,85.7960356 L67.2427463,85.8787705 C67.2841138,85.8994542 67.3254812,85.8994542 67.3461649,85.9201379 L68.5871876,81.8454467 C68.5458202,81.8454467 68.5251365,81.824763 68.483769,81.824763 L68.2562482,81.7420282 C66.8290721,81.3076702 65.6707843,80.3355358 64.9675381,79.0117782 C64.2642919,77.6880207 64.1195059,76.1781097 64.5745475,74.7509336 L67.0772766,66.6015513 C67.8012065,64.2849756 69.99368,62.6716461 72.4136742,62.6509624 C72.9721344,62.6509624 73.5305947,62.7336972 74.0476874,62.8991669 L74.2752083,62.9819018 C74.295892,62.9819018 74.3165757,63.0025855 74.3579431,63.0025855 L75.5989658,58.9692617 C75.5782821,58.9692617 75.5575984,58.948578 75.516231,58.948578 L75.2680264,58.8658431 Z M65.6294168,90.2637173 C64.6779661,89.9741454 63.7058317,89.8293594 62.7336972,89.8293594 C58.3901178,89.8293594 54.6256823,92.6423442 53.3639759,96.7790865 L50.8612468,104.928469 C49.268601,110.099397 52.1850043,115.621948 57.3766159,117.19391 L57.6041367,117.276645 C57.6661879,117.297328 57.7075553,117.318012 57.7696064,117.318012 L59.0106291,113.264005 C58.9692617,113.243321 58.9072106,113.243321 58.8658431,113.222637 L58.6383223,113.139902 C55.7012353,112.229819 54.0465384,109.106579 54.9359379,106.169492 L57.438667,98.0201092 C58.162597,95.7035335 60.3550704,94.090204 62.7750646,94.0695203 C63.3335248,94.0695203 63.8919851,94.1522551 64.4090779,94.3177248 L64.6365987,94.4004596 C64.6779661,94.4211433 64.7193335,94.4211433 64.7607009,94.4418271 L66.0017236,90.3671359 C65.9603562,90.3464522 65.9189888,90.3464522 65.8776214,90.3257685 L65.6294168,90.2637173 Z M56.5906349,119.634588 C50.3855214,117.731686 46.8692904,111.133582 48.7928756,104.907785 L51.6472278,95.6414823 C52.8055157,91.8770468 55.7426027,88.9399598 59.5484056,87.8023556 C60.2309681,87.5955185 60.7687446,87.0784257 60.9755817,86.3958633 C61.1824188,85.7133008 61.0376329,84.9893709 60.6032749,84.4309107 C58.1005458,81.3697213 57.2938811,77.2743465 58.4521689,73.5099109 L61.3065211,64.2436082 C62.464809,60.4791727 65.401896,57.5420856 69.2076989,56.4044815 C69.8902614,56.1976444 70.4280379,55.6805516 70.634875,54.9979891 C70.8417122,54.3154266 70.6969262,53.5914967 70.2625682,53.0330365 C67.7598391,49.9718472 66.9531744,45.8764723 68.1114622,42.1120368 L70.9658144,32.845734 C72.4964091,27.8816432 77.0054582,24.5101982 82.1970698,24.5101982 C82.610744,24.5101982 83.0037346,24.5308819 83.4174088,24.5722494 C84.0792876,24.6343005 84.7204826,24.4067797 85.1755243,23.9310543 L86.7061189,22.4831945 L88.6090204,16.278081 C87.8850905,16.0505602 87.0784257,16.2367136 86.5199655,16.7538064 L82.75553,20.2700373 C82.5280092,20.2700373 82.3211721,20.2493536 82.0936512,20.2493536 C75.0198219,20.2700373 68.8767596,24.8204539 66.8083884,31.5633439 L63.9540362,40.8296467 C62.6509624,45.0491238 63.1680552,49.5581729 65.2777937,53.3432922 C61.4099397,55.287561 58.4728526,58.7417409 57.1697788,62.961218 L54.3154266,72.2275208 C53.0123528,76.446998 53.5294456,80.9560471 55.6391841,84.7411663 C51.7713301,86.6854352 48.834243,90.1396151 47.5311692,94.3590922 L44.5940822,104.142488 C42.2981902,112.45734 47.0554438,121.185866 55.3496122,123.729963 L55.6185004,123.812698 C55.6598679,123.833381 55.721919,123.833381 55.7632864,123.854065 L57.0043091,119.75869 C56.942258,119.738006 56.9008905,119.717323 56.8388394,119.717323 L56.5906349,119.634588 Z M84.906636,27.4886527 C83.9551853,27.1990807 82.9830508,27.0542947 82.0109164,27.0542947 C77.667337,27.0542947 73.9029015,29.8672795 72.6411951,34.0040218 L70.138466,42.1534042 C69.3731686,44.6561333 69.6213732,47.3243321 70.8623959,49.6409078 C72.0827348,51.9574835 74.151106,53.6742315 76.6538351,54.4188452 L76.8813559,54.50158 C76.9020396,54.50158 76.9227234,54.5222637 76.9434071,54.5222637 L78.1844298,50.4475725 C78.163746,50.4475725 78.1430623,50.4475725 78.1430623,50.4268888 L77.9155415,50.344154 C76.4883654,49.909796 75.3300776,48.9376616 74.6268314,47.6139041 C73.9235852,46.2901465 73.7787992,44.7802356 74.2338409,43.3530595 L76.73657,35.2036771 C77.4604999,32.8871014 79.6529733,31.2737719 82.0729675,31.2530882 C82.6314278,31.2530882 83.189888,31.335823 83.7069808,31.5012927 L83.9345016,31.5840276 C83.9345016,31.5840276 83.9551853,31.5840276 83.9551853,31.5840276 L84.4102269,30.0948003 L85.196208,27.5507038 C85.196208,27.5507038 85.1755243,27.5507038 85.1755243,27.5507038 L84.906636,27.4886527 Z M75.8678541,59.0519966 C76.8193048,59.3415685 77.7087044,59.7759265 78.5153691,60.313703 C82.114335,62.7543809 83.6656133,67.1600115 82.4245906,71.3174375 L79.963229,79.4875036 C78.3912669,84.6584315 72.8893996,87.6162022 67.697788,86.0235564 L67.4702672,85.9615053 C67.4288997,85.9408216 67.3875323,85.9408216 67.3668486,85.9201379 L68.6078713,81.8454467 C68.6492387,81.8661304 68.6699224,81.8661304 68.7112899,81.8868141 L68.9388107,81.9488653 C70.3659868,82.3832232 71.8758977,82.2384372 73.1996553,81.535191 C74.5234128,80.8319448 75.4955473,79.6529733 75.9092215,78.2257972 L78.3705832,70.0557311 C79.0738294,67.7391554 78.163746,65.1743752 76.157426,63.8092502 C75.7023844,63.4989945 75.1852916,63.25079 74.6681988,63.106004 L74.440678,63.0439529 C74.4199943,63.0439529 74.3993105,63.0232692 74.3579431,63.0232692 L75.5989658,58.9899454 C75.6196495,58.9899454 75.6403332,59.0106291 75.6817007,59.0106291 L75.8678541,59.0519966 Z M66.3533467,90.4912381 C67.3047975,90.7808101 68.1941971,91.2151681 69.0008618,91.7529446 C72.5998276,94.1936225 74.151106,98.5992531 72.9100833,102.756679 L70.4487216,110.926745 C68.8767596,116.097673 63.3748923,119.055444 58.1832807,117.462798 L57.9557598,117.400747 C57.8937087,117.380063 57.8523413,117.359379 57.7902901,117.338696 L59.0313128,113.284688 C59.0726803,113.305372 59.1347314,113.326056 59.1760988,113.326056 L59.4036196,113.388107 C62.3407067,114.277506 65.4639471,112.62281 66.3533467,109.665039 L68.8147084,101.494973 C69.5179546,99.178397 68.6078713,96.6136168 66.6015513,95.2484918 C66.1465096,94.9382361 65.6294168,94.6900316 65.112324,94.5452456 L64.8848032,94.4831945 C64.8434358,94.4625108 64.8020684,94.4625108 64.7607009,94.4418271 L66.0017236,90.3671359 C66.0430911,90.3878196 66.0844585,90.3878196 66.1258259,90.4085033 L66.3533467,90.4912381 Z M85.4030451,27.6334387 C86.3544958,27.9230106 87.2438954,28.3573686 88.0505602,28.8951451 C91.649526,31.335823 93.2008044,35.7414536 91.9597817,39.8988796 L89.49842,48.0689457 C88.7331227,50.5716748 87.0370583,52.640046 84.7204826,53.8810687 C82.4039069,55.1220914 79.7357081,55.3909796 77.232979,54.6049986 L77.0054582,54.5429474 C76.9847745,54.5429474 76.9640908,54.5222637 76.9434071,54.5222637 L78.1844298,50.4475725 C78.2051135,50.4475725 78.2257972,50.4682562 78.2257972,50.4682562 L78.453318,50.5303074 C79.8804941,50.9646653 81.3904051,50.8198793 82.7141626,50.1166332 C84.0379201,49.413387 85.0100546,48.2344154 85.4237288,46.8072393 L87.8850905,38.6371732 C88.5883367,36.3205975 87.6782534,33.7558173 85.6719334,32.3906923 C85.2168917,32.0804367 84.6997989,31.8322321 84.1827061,31.6874461 L83.9551853,31.625395 C83.9551853,31.625395 83.9345016,31.625395 83.9345016,31.625395 L84.3895432,30.1361678 L85.1755243,27.5920712 C85.1755243,27.5920712 85.196208,27.5920712 85.196208,27.5920712 L85.4030451,27.6334387 Z M57.4593508,119.903476 C63.6851479,121.785694 70.2625682,118.269463 72.1654697,112.043666 L74.9784545,102.756679 C76.1160586,98.9922436 75.3300776,94.8968687 72.785981,91.8356794 C72.3309394,91.2772192 72.1861534,90.5532893 72.3929905,89.8707268 C72.5998276,89.1881643 73.1376041,88.6710715 73.7994829,88.4435507 C77.5846021,87.3059466 80.5216892,84.3481758 81.679977,80.5837403 L84.4929618,71.2967538 C85.6305659,67.5323183 84.8445849,63.4369434 82.3004884,60.3757541 C81.8454467,59.8172939 81.7006607,59.093364 81.9074978,58.4108015 C82.114335,57.728239 82.6521115,57.2111462 83.3139902,56.9836254 C87.0991095,55.8460213 90.0361965,52.8882505 91.1944843,49.123815 L94.0074691,39.8368285 C95.5173801,34.8727377 93.6351623,29.5570238 89.3329503,26.6406205 C88.9813272,26.4130997 88.6503878,26.2062626 88.278081,25.9994255 C87.6989371,25.6891698 87.2852629,25.1307096 87.1818443,24.4895145 L86.7061189,22.4211433 L88.6090204,16.2160299 C89.3329503,16.4435507 89.8914105,17.0433783 90.0775639,17.787992 L91.2358518,22.8141339 C91.4220052,22.9382361 91.6081586,23.0416547 91.794312,23.165757 C97.6478024,27.1163459 100.191899,34.3349612 98.1442114,41.0985349 L95.3312267,50.3855214 C94.0488365,54.6049986 91.1117495,58.0798621 87.2438954,60.024131 C89.353634,63.8092502 89.8914105,68.2976156 88.6090204,72.5170928 L85.7960356,81.8040793 C84.5136455,86.0235564 81.5765585,89.4777363 77.7087044,91.4426889 C79.818443,95.2278081 80.3562195,99.7161735 79.0738294,103.935651 L76.0540075,113.698363 C73.3237575,121.889112 64.5124964,126.460213 56.1976444,123.957483 L55.9287561,123.874749 C55.8873887,123.854065 55.8253375,123.833381 55.7839701,123.833381 L57.0249928,119.738006 C57.087044,119.75869 57.1284114,119.779374 57.1904625,119.800057 L57.4593508,119.903476 Z" id="Shape" fill="#000000" fill-rule="nonzero"></path>
    </g>
</svg>