<?xml version="1.0" encoding="UTF-8"?>
<svg width="697px" height="697px" viewBox="0 0 697 697" version="1.1" xmlns="http://www.w3.org/2000/svg" xmlns:xlink="http://www.w3.org/1999/xlink">
    <!-- Generator: Sketch 50 (54983) - http://www.bohemiancoding.com/sketch -->
    <title>sulfitos</title>
    <desc>Created with Sketch.</desc>
    <defs></defs>
    <g id="Page-1" stroke="none" stroke-width="1" fill="none" fill-rule="evenodd">
        <g id="sulfitos" fill="#000000" fill-rule="nonzero">
            <g id="Group">
                <path d="M669.4,212.7 C651.9,171.2 626.8,134 594.8,102.1 C562.8,70.1 525.6,45 484.2,27.5 C441.3,9.3 395.7,0.1 348.7,0.1 C301.7,0.1 256.1,9.3 213.2,27.5 C171.7,45 134.5,70.1 102.6,102.1 C70.6,134.1 45.5,171.3 28,212.7 C9.8,255.6 0.6,301.2 0.6,348.2 C0.6,395.2 9.8,440.8 28,483.7 C45.5,525.2 70.6,562.4 102.6,594.3 C134.6,626.3 171.8,651.4 213.2,668.9 C256.1,687.1 301.7,696.3 348.7,696.3 C395.7,696.3 441.3,687.1 484.2,668.9 C525.7,651.4 562.9,626.3 594.8,594.3 C626.8,562.3 651.9,525.1 669.4,483.7 C687.6,440.8 696.8,395.2 696.8,348.2 C696.8,301.2 687.5,255.6 669.4,212.7 Z M20.6,348.2 C20.6,260.6 54.7,178.2 116.7,116.2 C178.7,54.2 261.1,20.1 348.7,20.1 C434.4,20.1 515.1,52.8 576.6,112.2 L403,285.7 L400.6,281.7 L400.6,118 L406.4,118 C412.1,118 416.7,113.4 416.7,107.7 C416.7,102 412.1,97.4 406.4,97.4 L290.8,97.4 C285.1,97.4 280.5,102 280.5,107.7 C280.5,113.4 285.1,118 290.8,118 L296.6,118 L296.6,281.7 L174,489.9 C167.9,499.4 165.8,510.4 167.8,520.9 L112.7,576 C53.2,514.6 20.6,433.9 20.6,348.2 Z M190.4,524 C186.4,516.6 186.7,508 191.3,501 C191.4,500.9 191.5,500.7 191.5,500.6 L275.1,358.7 L422.1,358.7 L505.7,500.6 C505.8,500.7 505.9,500.9 505.9,501 C510.5,508 510.8,516.7 506.8,524 C502.8,531.4 495.4,535.8 487,535.8 L210.2,535.8 C201.8,535.7 194.4,531.3 190.4,524 Z M287.3,338.1 L315.8,289.7 C316.7,288.1 317.2,286.3 317.2,284.5 L317.2,118 L380.1,118 L380.1,284.5 C380.1,286.3 380.6,288.1 381.5,289.7 L410,338.1 L287.3,338.1 Z M580.6,580.2 C518.6,642.2 436.2,676.3 348.6,676.3 C266.8,676.3 189.5,646.5 129.2,592.1 L178.7,542.6 C186.7,551.3 197.9,556.3 210.2,556.3 L487,556.3 C503.1,556.3 517.2,547.9 524.9,533.8 C532.5,519.8 531.9,503.4 523.3,490 L415.1,306.2 L592.6,128.7 C647,189 676.8,266.3 676.8,348.1 C676.7,435.8 642.6,518.2 580.6,580.2 Z" id="Shape"></path>
                <path d="M291.5,471.2 C289.1,471.2 286.3,470.7 282.8,469.6 C279.4,468.5 277.1,468 276.1,468 C273.9,468 272.2,468.6 270.9,469.8 C269.6,471 269,472.6 269,474.5 C269,477.2 271,479.6 275,481.6 C279,483.6 283.8,484.6 289.5,484.6 C296.9,484.6 302.8,482.6 307.3,478.7 C311.8,474.8 314.1,469.6 314.1,463.3 C314.1,458.7 312.7,454.8 309.9,451.7 C307.1,448.6 302.7,446 296.6,444 C295.9,443.8 294.9,443.4 293.6,443 C288,441.2 285.2,439.1 285.2,436.5 C285.2,434.9 285.8,433.6 287.1,432.6 C288.4,431.6 290.1,431.1 292.2,431.1 C293.5,431.1 295.4,431.5 298,432.2 C300.6,432.9 302.4,433.3 303.5,433.3 C305.5,433.3 307.1,432.8 308.3,431.7 C309.4,430.6 310,429.1 310,427.2 C310,424.5 308.4,422.3 305.1,420.5 C301.8,418.7 297.7,417.8 292.7,417.8 C285.9,417.8 280.3,419.7 276.1,423.4 C271.8,427.1 269.7,432 269.7,437.9 C269.7,442.5 271,446.1 273.7,448.8 C276.3,451.5 281,453.9 287.6,455.8 C292.2,457.2 295.2,458.5 296.6,459.7 C298,460.9 298.7,462.5 298.7,464.5 C298.7,466.4 298,467.9 296.7,469.2 C295.2,470.6 293.5,471.2 291.5,471.2 Z" id="Shape"></path>
                <path d="M349.5,484.9 C358.8,484.9 366.4,481.8 372.1,475.7 C377.8,469.5 380.7,461.5 380.7,451.4 C380.7,441.4 377.8,433.3 372.1,427.2 C366.4,421 358.8,417.9 349.5,417.9 C340.2,417.9 332.7,421 327,427.2 C321.3,433.4 318.4,441.5 318.4,451.5 C318.4,461.5 321.3,469.6 327,475.8 C332.6,481.8 340.1,484.9 349.5,484.9 Z M338.2,436.9 C341,433.3 344.7,431.5 349.4,431.5 C354.1,431.5 357.8,433.3 360.6,436.9 C363.4,440.5 364.8,445.4 364.8,451.5 C364.8,457.4 363.4,462.2 360.6,465.7 C357.8,469.3 354.1,471 349.4,471 C344.8,471 341,469.2 338.2,465.7 C335.4,462.1 334,457.4 334,451.5 C334,445.4 335.4,440.5 338.2,436.9 Z" id="Shape"></path>
                <path d="M395,490.4 C394.4,491.1 393.4,492.1 392.3,493.4 C386.5,499.8 383.5,503.9 383.5,506 C383.5,508.3 384.2,509.9 385.6,511 C387,512.1 389.2,512.7 392.1,512.7 L417.7,512.7 C421.2,512.7 423.7,512.1 425.4,511 C427.1,509.9 427.9,508.2 427.9,506 C427.9,503.8 427.1,502.1 425.4,501 C423.7,499.9 421.1,499.3 417.7,499.3 L404.4,499.3 C413.3,490.5 419.2,483.8 422.1,479.3 C425,474.8 426.4,470.4 426.4,466.3 C426.4,460.8 424.5,456.3 420.7,452.8 C416.9,449.3 412,447.5 406,447.5 C402.6,447.5 399.5,448.2 396.6,449.6 C393.7,451 391.2,453 389,455.7 C387.7,457.4 386.6,459.3 385.8,461.5 C385,463.7 384.6,465.6 384.6,467.4 C384.6,469.6 385.3,471.4 386.6,472.8 C387.9,474.2 389.6,474.8 391.8,474.8 C393.4,474.8 394.7,474.3 395.7,473.3 C396.7,472.3 397.7,470.4 398.8,467.4 C399.6,465.3 400.6,463.7 401.7,462.5 C402.9,461.4 404.2,460.8 405.6,460.8 C407.2,460.8 408.5,461.4 409.5,462.5 C410.5,463.6 411,465.1 411,466.9 C411,469 409.9,471.6 407.8,474.8 C405.7,478.2 401.4,483.4 395,490.4 Z" id="Shape"></path>
            </g>
        </g>
    </g>
</svg>