<?xml version="1.0" encoding="UTF-8"?>
<svg width="144px" height="144px" viewBox="0 0 144 144" version="1.1" xmlns="http://www.w3.org/2000/svg" xmlns:xlink="http://www.w3.org/1999/xlink">
    <!-- Generator: Sketch 50.2 (55047) - http://www.bohemiancoding.com/sketch -->
    <title>Untitled</title>
    <desc>Created with Sketch.</desc>
    <defs></defs>
    <g id="Page-1" stroke="none" stroke-width="1" fill="none" fill-rule="evenodd">
        <path d="M138.332663,43.9735708 C134.713014,35.3898305 129.521402,27.6954898 122.902614,21.0973858 C116.283826,14.4785981 108.589486,9.2869865 100.026429,5.66733697 C91.1531169,1.90290147 81.7213444,0 72,0 C62.2786556,0 52.8468831,1.90290147 43.9735708,5.66733697 C35.3898305,9.2869865 27.6954898,14.4785981 21.0973858,21.0973858 C14.4785981,27.7161735 9.2869865,35.4105142 5.66733697,43.9735708 C1.90290147,52.8468831 0,62.2786556 0,72 C0,81.7213444 1.90290147,91.1531169 5.66733697,100.026429 C9.2869865,108.610169 14.4785981,116.30451 21.0973858,122.902614 C27.7161735,129.521402 35.4105142,134.713014 43.9735708,138.332663 C52.8468831,142.097099 62.2786556,144 72,144 C81.7213444,144 91.1531169,142.097099 100.026429,138.332663 C108.610169,134.713014 116.30451,129.521402 122.902614,122.902614 C129.521402,116.283826 134.713014,108.589486 138.332663,100.026429 C142.097099,91.1531169 144,81.7213444 144,72 C144,62.2786556 142.097099,52.8468831 138.332663,43.9735708 Z M119.986211,119.986211 C107.16231,132.810112 90.1189313,139.863258 72,139.863258 C54.8945705,139.863258 38.7819592,133.575409 26.24763,122.116633 L22.8348176,118.786556 C10.7762137,106.10744 4.13674232,89.5604711 4.13674232,72 C4.13674232,53.8810687 11.189888,36.8376903 24.0137891,24.0137891 C36.8376903,11.189888 53.8810687,4.13674232 72,4.13674232 C89.5604711,4.13674232 106.10744,10.7762137 118.786556,22.8348176 L122.137317,26.24763 C133.596093,38.7819592 139.883941,54.9152542 139.883941,72 C139.863258,90.1189313 132.810112,107.16231 119.986211,119.986211 Z M87.7403045,53.9017524 L87.7403045,45.3386958 L87.7403045,45.1732261 L87.7403045,29.0812985 L87.7403045,28.9158288 L87.7403045,12.6584315 C87.7403045,11.4794599 86.7888538,10.5280092 85.6098822,10.5280092 C84.4309107,10.5280092 83.4794599,11.4794599 83.4794599,12.6584315 L83.4794599,28.9158288 L83.4794599,29.0812985 C83.4794599,34.6659006 79.4254525,39.3197357 74.1097386,40.2505027 L74.1097386,32.6802643 C74.1097386,31.5012927 73.1582878,30.549842 71.9793163,30.549842 C70.8003447,30.549842 69.848894,31.5012927 69.848894,32.6802643 L69.848894,40.2505027 C64.5331801,39.299052 60.4791727,34.6659006 60.4791727,29.0812985 L60.4791727,28.9158288 L60.4791727,12.6584315 C60.4791727,11.4794599 59.5277219,10.5280092 58.3487504,10.5280092 C57.1697788,10.5280092 56.2183281,11.4794599 56.2183281,12.6584315 L56.2183281,28.9158288 L56.2183281,29.0812985 L56.2183281,45.1732261 L56.2183281,45.3386958 L56.2183281,61.4306234 L56.2183281,61.5960931 L56.2183281,77.6880207 L56.2183281,77.8534904 L56.2183281,85.340994 L56.2803792,92.0838839 L56.2803792,94.1315714 C56.2803792,102.053433 62.2166044,108.610169 69.8902614,109.602988 L69.8902614,131.382936 C69.8902614,132.561907 70.8417122,133.513358 72.0206837,133.513358 C73.1996553,133.513358 74.151106,132.561907 74.151106,131.382936 L74.151106,109.602988 C81.824763,108.630853 87.7609882,102.053433 87.7609882,94.1315714 L87.7609882,77.8741741 L87.7609882,77.7087044 L87.7609882,61.6167768 L87.7609882,61.4513071 L87.7609882,60.6239586 L87.7403045,53.9017524 Z M69.8695777,105.300776 C64.5538638,104.349325 60.4998564,99.7161735 60.4998564,94.1315714 L60.4998564,88.5469693 C62.9405343,91.1117495 66.2085608,92.869865 69.8695777,93.3249066 L69.8695777,105.300776 Z M69.8902614,89.0433783 C64.5538638,88.0919276 60.5205401,83.4380925 60.5205401,77.8741741 L60.5205401,77.7087044 L60.5205401,72.289572 C62.9405343,74.8543522 66.2085608,76.6124677 69.8902614,77.0675093 L69.8902614,89.0433783 Z M69.8902614,72.7652973 C64.5538638,71.8345303 60.5205401,67.1806952 60.5205401,61.5960931 L60.5205401,61.4306234 L60.5205401,56.011491 C62.9405343,58.5762712 66.2085608,60.3343867 69.8902614,60.7894283 L69.8902614,72.7652973 Z M69.8902614,56.5079 C64.5538638,55.5564493 60.5205401,50.9026142 60.5205401,45.3386958 L60.5205401,45.1732261 L60.5205401,39.7540937 C62.9405343,42.3188739 66.2085608,44.0769894 69.8902614,44.532031 L69.8902614,56.5079 Z M83.4794599,94.1315714 C83.4794599,99.7161735 79.4254525,104.370009 74.1097386,105.300776 L74.1097386,93.3249066 C77.7914392,92.869865 81.0594657,91.1117495 83.4794599,88.5469693 L83.4794599,94.1315714 Z M83.5001436,77.7087044 L83.5001436,77.8741741 C83.4794599,83.4380925 79.4461362,88.0919276 74.1304223,89.0433783 L74.1304223,77.0675093 C77.7914392,76.591784 81.0801494,74.8543522 83.5001436,72.289572 L83.5001436,77.7087044 Z M83.5001436,61.4306234 L83.5001436,61.5960931 C83.4794599,67.1806952 79.4461362,71.8345303 74.1304223,72.7652973 L74.1304223,60.7894283 C77.7914392,60.313703 81.0801494,58.5762712 83.5001436,56.011491 L83.5001436,61.4306234 Z M83.5001436,45.1732261 L83.5001436,45.3386958 C83.4794599,50.9026142 79.4461362,55.5564493 74.1304223,56.5079 L74.1304223,44.532031 C77.7914392,44.0563057 81.0801494,42.3188739 83.5001436,39.7540937 L83.5001436,45.1732261 Z" id="Shape" fill="#000000" fill-rule="nonzero"></path>
    </g>
</svg>