<?xml version="1.0" encoding="UTF-8"?>
<svg width="1084px" height="959px" viewBox="0 0 1084 959" version="1.1" xmlns="http://www.w3.org/2000/svg" xmlns:xlink="http://www.w3.org/1999/xlink">
    <!-- Generator: Sketch 50.2 (55047) - http://www.bohemiancoding.com/sketch -->
    <title>Untitled</title>
    <desc>Created with Sketch.</desc>
    <defs></defs>
    <g id="Page-1" stroke="none" stroke-width="1" fill="none" fill-rule="evenodd">
        <g id="Group" fill="#FFFFFF">
            <path d="M141.905995,659.758534 C137.808174,659.758534 134.089782,657.103666 132.799728,653.007585 C131.282016,648.001264 134.089782,642.69153 139.174114,641.174463 L219.612807,616.901391 C224.621253,615.384324 229.933243,618.190898 231.450954,623.273072 C232.968665,628.279393 230.160899,633.589128 225.076567,635.106195 L144.637875,659.379267 C143.727248,659.606827 142.816621,659.758534 141.905995,659.758534 Z M408.264305,659.758534 C407.353678,659.758534 406.443052,659.606827 405.532425,659.379267 L325.093733,635.106195 C320.085286,633.589128 317.27752,628.279393 318.719346,623.273072 C320.237057,618.266751 325.549046,615.460177 330.557493,616.901391 L410.996185,641.174463 C416.004632,642.69153 418.812398,648.001264 417.370572,653.007585 C416.080518,657.103666 412.362125,659.758534 408.264305,659.758534 Z M352.184877,711.718078 C336.636105,711.718078 324.031335,699.118658 324.031335,683.576485 C324.031335,668.034313 336.636105,655.434893 352.184877,655.434893 C367.733649,655.434893 380.33842,668.034313 380.33842,683.576485 C380.33842,699.118658 367.733649,711.718078 352.184877,711.718078 Z M195.860627,711.718078 C180.311855,711.718078 167.707084,699.118658 167.707084,683.576485 C167.707084,668.034313 180.311855,655.434893 195.860627,655.434893 C211.409399,655.434893 224.014169,668.034313 224.014169,683.576485 C224.014169,699.118658 211.409399,711.718078 195.860627,711.718078 Z M498.56812,658.620733 C527.404632,656.345133 553.205722,687.445006 556.241144,730.681416 C560.035422,773.159292 539.546322,809.5689 509.950954,811.844501 C504.638965,812.603034 498.56812,811.844501 493.256131,809.5689 C462.143052,892.249052 387.016349,949.897598 298.230245,957.482933 C184.401907,967.343869 81.1975477,893.007585 53.8787466,783.020228 C27.3188011,779.22756 4.55313351,748.127686 0.758855586,707.166877 C-3.03542234,661.654867 18.2125341,624.486726 48.5667575,621.452592 C56.1553134,620.694058 63.7438692,622.211125 72.0912807,626.003793 C75.126703,619.176991 78.9209809,613.108723 82.7152589,607.040455 C84.9918256,607.040455 86.5095368,607.040455 88.7861035,607.040455 C98.6512262,606.281922 116.104905,600.972187 116.104905,600.972187 C116.104905,600.972187 95.6158038,631.313527 88.027248,649.518331 L81.1975477,666.206068 L68.2970027,653.310999 C64.5027248,649.518331 58.4318801,644.96713 51.6021798,645.725664 C37.1839237,647.242731 22.7656676,671.515803 25.8010899,704.891277 C28.8365123,738.266751 47.0490463,760.264223 61.4673025,758.747155 L62.9850136,758.747155 L74.3678474,756.471555 L76.6444142,767.849558 C97.133515,871.010114 191.990463,941.553729 296.712534,932.451327 C380.186649,924.865992 450.760218,868.734513 475.802452,788.329962 L481.114441,770.883692 L494.773842,782.261694 C499.326975,786.054362 503.880109,788.329962 508.433243,787.571429 C522.092643,786.812895 535.752044,764.05689 532.716621,732.957016 C530.440054,701.857143 512.986376,681.376738 499.326975,682.893805 C497.809264,683.652339 496.291553,683.652339 494.773842,684.410872 L481.873297,689.720607 L478.079019,676.067004 C468.972752,639.657396 450.760218,607.798989 425.717984,582.767383 C437.859673,583.525917 449.242507,583.525917 458.348774,583.525917 C475.802452,605.523388 490.220708,630.554994 498.56812,658.620733 Z M261.046322,395.409608 C390.810627,382.514539 500.844687,424.992415 510.709809,493.26043 C513.745232,514.499368 506.915531,534.979772 492.497275,554.701643 C456.831063,529.670038 368.044959,519.809102 266.358311,533.462705 C162.395095,547.116308 77.4032698,580.491783 51.6021798,614.62579 C31.8719346,598.696587 18.9713896,579.733249 15.9359673,558.494311 C6.82970027,489.467762 103.963215,418.924147 235.245232,398.443742 L232.209809,374.17067 C231.450954,367.343869 236.762943,360.517067 243.592643,359.758534 C250.422343,359 257.252044,364.309735 258.010899,371.136536 L261.046322,395.409608 Z M218.853951,841.04804 C239.267166,829.063211 257.707357,825.573957 276.223433,829.518331 C304.908174,835.434893 318.795232,859.935525 319.402316,861.300885 C321.602997,866.079646 320.085286,871.844501 315.608038,874.802781 C310.827248,877.002528 305.059946,875.485461 302.100409,871.010114 C301.796866,870.327434 292.083515,853.108723 271.822071,849.088496 C255.279019,845.902655 235.700545,852.426043 213.845504,868.4311 C209.671798,872.072061 203.221526,870.858407 200.337875,866.307206 C196.695368,862.135272 197.909537,855.687737 202.46267,852.80531 C207.774659,847.874842 213.693733,844.309735 218.853951,841.04804 Z" id="Shape" fill-rule="nonzero"></path>
            <path d="M532.764444,599.318182 L579.155556,437.045455 L535.493333,437.045455 C499.335556,437.045455 470,407.727273 470,371.590909 L470,66.1363636 C470,30 499.335556,0.681818182 535.493333,0.681818182 L1018.50667,0.681818182 C1054.66444,0.681818182 1084,30 1084,66.1363636 L1084,371.590909 C1084,407.727273 1054.66444,437.045455 1018.50667,437.045455 L748.346667,437.045455 L532.764444,599.318182 Z M535.493333,18.4090909 C509.568889,18.4090909 487.737778,39.5454545 487.737778,66.1363636 L487.737778,371.590909 C487.737778,397.5 508.886667,419.318182 535.493333,419.318182 L603.033333,419.318182 L564.828889,552.954545 L742.206667,419.318182 L1018.50667,419.318182 C1044.43111,419.318182 1066.26222,398.181818 1066.26222,371.590909 L1066.26222,66.1363636 C1066.26222,40.2272727 1045.11333,18.4090909 1018.50667,18.4090909 C1018.50667,18.4090909 535.493333,18.4090909 535.493333,18.4090909 Z" id="Shape" fill-rule="nonzero"></path>
            <text id="No-hay-resultados,-p" font-family="Lato-Bold, Lato" font-size="64" font-weight="bold">
                <tspan x="514" y="122">No hay resultados, </tspan>
                <tspan x="514" y="199">por favor modifica </tspan>
                <tspan x="514" y="276">los filtros de </tspan>
                <tspan x="514" y="353">busqueda</tspan>
            </text>
        </g>
    </g>
</svg>