<?xml version="1.0" encoding="UTF-8"?>
<svg width="144px" height="144px" viewBox="0 0 144 144" version="1.1" xmlns="http://www.w3.org/2000/svg" xmlns:xlink="http://www.w3.org/1999/xlink">
    <!-- Generator: Sketch 50.2 (55047) - http://www.bohemiancoding.com/sketch -->
    <title>Untitled</title>
    <desc>Created with Sketch.</desc>
    <defs></defs>
    <g id="Page-1" stroke="none" stroke-width="1" fill="none" fill-rule="evenodd">
        <path d="M72,63.384792 L72,67.6200861 C76.6551724,67.661406 80.4413793,71.4628407 80.4413793,76.1319943 L80.4413793,77.6195122 C80.4413793,77.6401722 80.4413793,77.6401722 80.4413793,77.6401722 L80.4413793,84.6439024 C80.4413793,89.313056 76.6551724,93.1144907 72,93.1558106 L72,97.3911047 C75.2482759,97.3704448 78.2275862,96.1308465 80.462069,94.1268293 L80.462069,105.964993 C80.462069,109.002009 78.8689655,111.667145 76.4068966,113.175323 C76.2827586,113.257963 76.1586207,113.340603 76.0344828,113.402582 C75.9931034,113.423242 75.9724138,113.443902 75.9310345,113.464562 C75.7655172,113.547202 75.6206897,113.609182 75.4551724,113.691822 C75.4137931,113.712482 75.3724138,113.733142 75.3310345,113.753802 C75.2068966,113.815782 75.062069,113.857102 74.9172414,113.919082 C74.8965517,113.939742 74.8551724,113.939742 74.8344828,113.960402 C74.6689655,114.022382 74.4827586,114.063702 74.3172414,114.125681 C74.2965517,114.146341 74.2551724,114.146341 74.2137931,114.167001 C74.0689655,114.208321 73.9034483,114.249641 73.7586207,114.290961 C73.7172414,114.290961 73.6965517,114.311621 73.6551724,114.311621 C73.4896552,114.352941 73.3034483,114.394261 73.1172414,114.414921 C73.0965517,114.435581 73.0551724,114.435581 73.0344828,114.435581 C72.8896552,114.456241 72.7241379,114.456241 72.5793103,114.476901 C72.537931,114.497561 72.4758621,114.497561 72.4344828,114.497561 C72.2896552,114.518221 72.1448276,114.518221 72,114.518221 L72,118.732855 C72.2068966,118.732855 72.4137931,118.732855 72.6206897,118.712195 C72.6827586,118.712195 72.7448276,118.691535 72.8068966,118.691535 C72.9724138,118.670875 73.137931,118.670875 73.3034483,118.650215 C73.3862069,118.650215 73.4482759,118.629555 73.5310345,118.629555 C73.6965517,118.608895 73.8413793,118.588235 73.9862069,118.567575 C74.0482759,118.546915 74.1310345,118.546915 74.2137931,118.526255 C74.3586207,118.505595 74.5034483,118.464275 74.6482759,118.443615 C74.7310345,118.422956 74.8137931,118.402296 74.8965517,118.381636 C75.0413793,118.340316 75.1862069,118.319656 75.3103448,118.278336 C75.3931034,118.237016 75.4758621,118.216356 75.5586207,118.195696 C75.6827586,118.154376 75.8068966,118.113056 75.9310345,118.071736 C76.0344828,118.051076 76.1172414,118.009756 76.2,117.989096 C76.3241379,117.947776 76.4275862,117.906456 76.5517241,117.865136 C76.6344828,117.823816 76.737931,117.803156 76.8206897,117.761836 C76.9241379,117.720516 77.0482759,117.658537 77.1517241,117.617217 C77.2137931,117.596557 77.2965517,117.575897 77.3586207,117.534577 L84.062069,124.187088 L72,124.187088 L72,128.463702 L89.1724138,128.463702 C90.0413793,128.463702 90.8068966,127.947202 91.137931,127.162123 C91.4689655,126.377044 91.2827586,125.447346 90.6827586,124.848207 L80.8965517,115.07604 C83.2551724,112.762123 84.7241379,109.539168 84.7241379,105.985653 L84.7241379,88.1767575 L84.7034483,81.4416069 L84.7034483,79.0450502 C89.7103448,76.7517934 94.0137931,73.1569584 97.1586207,68.5704448 C100.655172,63.4674319 102.517241,57.4967001 102.517241,51.2780488 C102.517241,50.1004304 101.565517,49.1500717 100.386207,49.1500717 C99.2068966,49.1500717 98.2551724,50.1004304 98.2551724,51.2780488 C98.2551724,56.6289813 96.662069,61.7939742 93.6413793,66.1738881 C91.2827586,69.6034433 88.1793103,72.3925395 84.5586207,74.3758967 C84.1034483,71.0083214 82.3034483,68.0539455 79.7172414,66.0499283 C86.3586207,63.2401722 91.1793103,56.9595409 91.8827586,49.4806313 C93.8896552,48.7988522 95.6275862,46.9187948 96.9103448,43.9850789 C98.2965517,40.8241033 99.062069,36.6507891 99.062069,32.2502152 C99.062069,25.0605452 96.9931034,18.717934 93.8068966,16.1147776 C93.2068966,15.6189383 92.3586207,15.4949785 91.6344828,15.804878 C90.9103448,16.1147776 90.4137931,16.7965567 90.3517241,17.5816356 C90.1034483,20.8045911 89.3793103,23.7176471 88.3034483,25.7836442 C87.4965517,27.3124821 86.5655172,28.2628407 85.8413793,28.2628407 C85.5724138,28.2628407 85.262069,28.1182209 84.9310345,27.8496413 C84.3310345,27.353802 83.4827586,27.2298422 82.7586207,27.5397418 C82.0344828,27.8496413 81.537931,28.5314204 81.4758621,29.3164993 C81.3931034,30.266858 81.3517241,31.2585366 81.3517241,32.2295552 C81.3517241,36.6301291 82.1172414,40.8034433 83.5034483,43.9644189 C84.6,46.4642755 86.0275862,48.1997131 87.662069,49.0880918 C86.8965517,57.0835007 80.1724138,63.343472 72,63.384792 Z M56.337931,49.0880918 C57.9724138,48.1997131 59.4,46.4642755 60.4965517,43.9644189 C61.8827586,40.8034433 62.6482759,36.6301291 62.6482759,32.2295552 C62.6482759,31.2585366 62.6068966,30.266858 62.5241379,29.3164993 C62.462069,28.5314204 61.9655172,27.8496413 61.2413793,27.5397418 C60.5172414,27.2298422 59.6689655,27.353802 59.0689655,27.8496413 C58.737931,28.1182209 58.4275862,28.2628407 58.1586207,28.2628407 C57.4344828,28.2628407 56.5034483,27.3124821 55.6965517,25.7836442 C54.6206897,23.7176471 53.8965517,20.8045911 53.6482759,17.5816356 C53.5862069,16.7965567 53.0896552,16.1147776 52.3655172,15.804878 C51.6413793,15.4949785 50.7931034,15.6189383 50.1931034,16.1147776 C47.0068966,18.717934 44.937931,25.0605452 44.937931,32.2502152 C44.937931,36.6507891 45.7034483,40.8241033 47.0896552,43.9850789 C48.3724138,46.9187948 50.1103448,48.7988522 52.1172414,49.4806313 C52.8206897,56.9595409 57.6413793,63.2401722 64.2827586,66.0499283 C61.6965517,68.0539455 59.8965517,71.0083214 59.4413793,74.3758967 C55.8206897,72.3925395 52.7172414,69.6034433 50.3586207,66.1738881 C47.337931,61.7939742 45.7448276,56.6289813 45.7448276,51.2780488 C45.7448276,50.1004304 44.7931034,49.1500717 43.6137931,49.1500717 C42.4344828,49.1500717 41.4827586,50.1004304 41.4827586,51.2780488 C41.4827586,57.4967001 43.3448276,63.4674319 46.8413793,68.5704448 C49.9862069,73.1569584 54.2896552,76.7517934 59.2965517,79.0450502 L59.2965517,81.4416069 L59.2758621,88.1767575 L59.2758621,105.985653 C59.2758621,109.539168 60.7448276,112.762123 63.1034483,115.07604 L53.3172414,124.848207 C52.7172414,125.447346 52.5310345,126.377044 52.862069,127.162123 C53.1931034,127.947202 53.9586207,128.463702 54.8275862,128.463702 L72,128.463702 L72,124.187088 L59.937931,124.187088 L66.6413793,117.534577 C66.7034483,117.575897 66.7862069,117.596557 66.8482759,117.617217 C66.9517241,117.658537 67.0758621,117.720516 67.1793103,117.761836 C67.262069,117.803156 67.3655172,117.823816 67.4482759,117.865136 C67.5724138,117.906456 67.6758621,117.947776 67.8,117.989096 C67.8827586,118.009756 67.9655172,118.051076 68.0689655,118.071736 C68.1931034,118.113056 68.3172414,118.154376 68.4413793,118.195696 C68.5241379,118.216356 68.6068966,118.237016 68.6896552,118.278336 C68.8137931,118.319656 68.9586207,118.340316 69.1034483,118.381636 C69.1862069,118.402296 69.2689655,118.422956 69.3517241,118.443615 C69.4965517,118.464275 69.6413793,118.505595 69.7862069,118.526255 C69.8689655,118.546915 69.9517241,118.546915 70.0137931,118.567575 C70.1586207,118.588235 70.3034483,118.608895 70.4689655,118.629555 C70.5517241,118.629555 70.6137931,118.650215 70.6965517,118.650215 C70.862069,118.670875 71.0275862,118.670875 71.1931034,118.691535 C71.2551724,118.691535 71.3172414,118.712195 71.3793103,118.712195 C71.5862069,118.732855 71.7931034,118.732855 72,118.732855 L72,114.518221 C71.8551724,114.518221 71.7103448,114.518221 71.5655172,114.497561 C71.5241379,114.497561 71.462069,114.497561 71.4206897,114.476901 C71.2758621,114.456241 71.1103448,114.456241 70.9655172,114.435581 C70.9448276,114.435581 70.9034483,114.435581 70.8827586,114.414921 C70.6965517,114.394261 70.5103448,114.352941 70.3448276,114.311621 C70.3034483,114.311621 70.2827586,114.290961 70.2413793,114.290961 C70.0965517,114.249641 69.9310345,114.208321 69.7862069,114.167001 C69.7448276,114.146341 69.7034483,114.146341 69.6827586,114.125681 C69.5172414,114.063702 69.3310345,114.022382 69.1655172,113.960402 C69.1448276,113.939742 69.1034483,113.939742 69.0827586,113.919082 C68.937931,113.857102 68.7931034,113.815782 68.6689655,113.753802 C68.6275862,113.733142 68.5862069,113.712482 68.5448276,113.691822 C68.3793103,113.609182 68.2344828,113.547202 68.0689655,113.464562 C68.0275862,113.443902 68.0068966,113.423242 67.9655172,113.402582 C67.8413793,113.340603 67.7172414,113.257963 67.5931034,113.175323 C65.1310345,111.667145 63.537931,109.002009 63.537931,105.964993 L63.537931,94.1268293 C65.7724138,96.1308465 68.7517241,97.3704448 72,97.3911047 L72,93.1558106 C67.3448276,93.1144907 63.5586207,89.313056 63.5586207,84.6439024 L63.5586207,77.6401722 C63.5586207,77.6401722 63.5586207,77.6401722 63.5586207,77.6195122 L63.5586207,76.1319943 C63.5586207,71.4628407 67.3448276,67.661406 72,67.6200861 L72,63.384792 C63.8275862,63.343472 57.1034483,57.0835007 56.337931,49.0880918 Z M54.0413793,45.4725968 C53.937931,45.4725968 53.8344828,45.4932568 53.7310345,45.5139168 C53.0689655,45.4725968 51.9931034,44.604878 50.9793103,42.2909613 C49.8413793,39.6878049 49.1793103,36.03099 49.1793103,32.2502152 C49.1793103,28.9239598 49.6758621,26.0109039 50.4,23.758967 C51.8896552,29.1512195 54.7241379,32.4981349 58.1586207,32.4981349 C58.2413793,32.4981349 58.3241379,32.4981349 58.4068966,32.4981349 C58.3862069,36.1756098 57.7241379,39.7291248 56.6068966,42.2703013 C55.6758621,44.3776184 54.7034483,45.2866571 54.0413793,45.4725968 Z M87.3931034,42.2703013 C86.2758621,39.7291248 85.6137931,36.1756098 85.5931034,32.4981349 C85.6758621,32.4981349 85.7586207,32.4981349 85.8413793,32.4981349 C89.2758621,32.4981349 92.1103448,29.1512195 93.6,23.758967 C94.3241379,26.0109039 94.8206897,28.9239598 94.8206897,32.2502152 C94.8206897,36.03099 94.1586207,39.6878049 93.0206897,42.2909613 C92.0068966,44.604878 90.9310345,45.4725968 90.2689655,45.5139168 C90.1655172,45.4932568 90.062069,45.4725968 89.9586207,45.4725968 C89.2965517,45.2866571 88.3241379,44.3776184 87.3931034,42.2703013 Z M25.7793103,121.625251 L22.4068966,118.257676 C10.6344828,105.675753 4.17931034,89.3543759 4.17931034,72.0413199 C4.17931034,53.9431851 11.2344828,36.9193687 24.062069,24.1101865 C36.8689655,11.3216643 53.8965517,4.27661406 72,4.25595409 L72,0.123959828 C62.2965517,0.144619799 52.9034483,2.02467719 44.0482759,5.78479197 C35.462069,9.40028694 27.7655172,14.5859397 21.1655172,21.1971306 C14.5448276,27.8083214 9.35172414,35.4938307 5.73103448,44.0470588 C1.96551724,52.9101865 0.0620689655,62.3311334 0.0620689655,72.0413199 C0.0620689655,81.7515065 1.96551724,91.1724534 5.73103448,100.035581 C9.35172414,108.609469 14.5448276,116.294978 21.1655172,122.885509 C27.7862069,129.4967 35.4827586,134.682353 44.0482759,138.297848 C52.9034483,142.037303 62.2965517,143.93802 72,143.95868 L72,139.826686 C54.6827586,139.806026 38.3586207,133.360115 25.7793103,121.625251 Z M118.22069,121.625251 L121.593103,118.257676 C133.365517,105.675753 139.82069,89.3543759 139.82069,72.0413199 C139.82069,53.9431851 132.765517,36.9193687 119.937931,24.1101865 C107.131034,11.3216643 90.1034483,4.27661406 72,4.25595409 L72,0.123959828 C81.7034483,0.144619799 91.0965517,2.02467719 99.9517241,5.78479197 C108.537931,9.40028694 116.234483,14.5859397 122.834483,21.1971306 C129.455172,27.8083214 134.648276,35.4938307 138.268966,44.0470588 C142.034483,52.9101865 143.937931,62.3311334 143.937931,72.0413199 C143.937931,81.7515065 142.034483,91.1724534 138.268966,100.035581 C134.648276,108.609469 129.455172,116.294978 122.834483,122.885509 C116.213793,129.4967 108.517241,134.682353 99.9517241,138.297848 C91.0965517,142.037303 81.7034483,143.93802 72,143.95868 L72,139.826686 C89.3172414,139.806026 105.641379,133.360115 118.22069,121.625251 Z" id="Shape" fill="#000000" fill-rule="nonzero"></path>
    </g>
</svg>