<?xml version="1.0" encoding="UTF-8"?>
<svg width="144px" height="144px" viewBox="0 0 144 144" version="1.1" xmlns="http://www.w3.org/2000/svg" xmlns:xlink="http://www.w3.org/1999/xlink">
    <!-- Generator: Sketch 50.2 (55047) - http://www.bohemiancoding.com/sketch -->
    <title>Untitled</title>
    <desc>Created with Sketch.</desc>
    <defs></defs>
    <g id="Page-1" stroke="none" stroke-width="1" fill="none" fill-rule="evenodd">
        <path d="M138.332663,43.9735708 C134.713014,35.3898305 129.521402,27.6954898 122.902614,21.0973858 C116.283826,14.4992818 108.589486,9.2869865 100.026429,5.66733697 C91.1531169,1.90290147 81.7213444,0 72,0 C62.2786556,0 52.8468831,1.90290147 43.9735708,5.66733697 C35.3898305,9.2869865 27.6954898,14.4785981 21.0973858,21.0973858 C14.4992818,27.7161735 9.2869865,35.4105142 5.66733697,43.9735708 C1.90290147,52.8468831 0,62.2786556 0,72 C0,81.7213444 1.90290147,91.1531169 5.66733697,100.026429 C9.2869865,108.610169 14.4785981,116.30451 21.0973858,122.902614 C27.7161735,129.521402 35.4105142,134.713014 43.9735708,138.332663 C52.8468831,142.097099 62.2786556,144 72,144 C81.7213444,144 91.1531169,142.097099 100.026429,138.332663 C108.610169,134.713014 116.30451,129.521402 122.902614,122.902614 C129.521402,116.283826 134.713014,108.589486 138.332663,100.026429 C142.097099,91.1531169 144,81.7213444 144,72 C144,62.2786556 142.097099,52.8468831 138.332663,43.9735708 Z M119.986211,119.965527 C107.16231,132.789428 90.1189313,139.842574 72,139.842574 C55.1220914,139.842574 39.1956334,133.699512 26.7440391,122.530307 L23.3312267,119.262281 C10.9623671,106.521115 4.13674232,89.787992 4.13674232,71.9793163 C4.13674232,53.8603849 11.189888,36.8170066 24.0137891,23.9931054 C36.8376903,11.1692043 53.8810687,4.1160586 72,4.1160586 C89.787992,4.1160586 106.541798,10.9209997 119.262281,23.2898592 L122.550991,26.7647228 C133.740879,39.2163172 139.842574,55.1634588 139.842574,72.0206837 C139.863258,90.1189313 132.810112,107.16231 119.986211,119.965527 Z M94.9796036,47.5725366 L92.7043953,47.0140764 C90.6567078,46.5176673 88.6297041,46.8899741 87.0163746,47.8621086 C83.1278368,41.8845159 76.7986211,37.8511922 69.7247917,36.7963229 C69.2697501,33.486929 66.2292445,30.9428325 62.5268601,30.9428325 L53.5501293,30.9428325 C49.8684286,30.9428325 46.8072393,33.486929 46.3521976,36.7963229 C40.7469118,37.6236714 35.638035,40.2918702 31.7288136,44.4699799 C27.4059178,49.123815 25.0479747,55.1427751 25.0479747,61.5133582 L25.0479747,70.6969262 C25.0479747,83.4794599 34.6452169,94.0488365 47.0347601,95.5380638 L53.570813,95.7035335 L58.2453318,95.7035335 C61.4719908,102.735995 67.8218903,108.051709 75.8885378,109.706406 L91.5874749,112.953749 C93.2628555,113.305372 94.9589199,113.491525 96.6549842,113.491525 C102.322321,113.491525 107.906923,111.526573 112.333238,107.948291 C116.842287,104.328641 119.965527,99.1990807 121.123815,93.5317438 L122.985349,84.5343292 C124.267739,78.308532 123.150819,71.8965814 119.862109,66.477449 C116.883654,61.5960931 112.395289,57.9143924 107.079575,55.9908072 C107.100259,52.8882505 104.804367,49.9718472 101.432922,49.1651824 L100.398736,48.9169779 L94.9796036,47.5725366 Z M52.5573111,37.6236714 C52.5573111,37.4788854 52.8675668,37.1686297 53.5501293,37.1686297 L62.5268601,37.1686297 C63.2094226,37.1686297 63.5196783,37.4788854 63.5196783,37.6236714 L63.5196783,40.229819 C63.5196783,40.374605 63.2094226,40.6848607 62.5268601,40.6848607 L53.5501293,40.6848607 C52.8675668,40.6848607 52.5573111,40.374605 52.5573111,40.229819 L52.5573111,37.6236714 Z M59.8586613,66.2085608 C59.734559,66.477449 59.6311405,66.7463373 59.5277219,67.0152255 C59.5070382,67.0565929 59.5070382,67.0979604 59.4863545,67.1393278 C59.3622522,67.4495835 59.2588337,67.7391554 59.1554151,68.0494111 C59.1554151,68.0700948 59.1347314,68.0907785 59.1347314,68.0907785 C59.0313128,68.4217179 58.9072106,68.7526573 58.8244757,69.0835967 C58.8244757,69.0835967 58.8244757,69.0835967 58.8244757,69.1042804 C58.6176386,69.7868429 58.4521689,70.4900891 58.3073829,71.1933352 L56.4458489,80.1907498 C56.4044815,80.4182706 56.363114,80.6457914 56.3217466,80.8733123 C56.3010629,80.9353634 56.3010629,81.0180982 56.2803792,81.0801494 C56.2596955,81.2249354 56.2183281,81.3904051 56.1976444,81.535191 C56.1769606,81.6179259 56.1769606,81.7006607 56.1562769,81.7833956 C56.1355932,81.9281816 56.1149095,82.0729675 56.0942258,82.2177535 C56.0735421,82.3004884 56.0735421,82.4039069 56.0528584,82.4866418 C56.0321747,82.6314278 56.0321747,82.75553 56.011491,82.900316 C56.011491,83.0037346 55.9908072,83.0864694 55.9908072,83.189888 C55.9701235,83.3139902 55.9701235,83.4587762 55.9701235,83.5828785 C55.9701235,83.686297 55.9494398,83.7690319 55.9494398,83.8724504 C55.9494398,83.9965527 55.9287561,84.120655 55.9287561,84.2447573 C55.9287561,84.3481758 55.9287561,84.4515944 55.9080724,84.5550129 C55.9080724,84.6584315 55.9080724,84.7825338 55.9080724,84.8859523 C55.9080724,85.3823614 55.9080724,85.8994542 55.9287561,86.4372307 C55.9287561,86.6440678 55.9494398,86.8302212 55.9701235,87.0163746 C55.9701235,87.0370583 55.9701235,87.057742 55.9701235,87.0784257 C55.9908072,87.2852629 56.011491,87.4714163 56.011491,87.6782534 C56.011491,87.6782534 56.011491,87.7196208 56.011491,87.7403045 C56.1355932,89.0226946 56.363114,90.3464522 56.6940534,91.5874749 L50.0132146,91.5874749 C38.5544384,91.5667912 29.184717,82.1763861 29.184717,70.7176099 L29.184717,61.5340419 C29.184717,56.2596955 31.1910371,51.2335536 34.7900029,47.3863832 C37.8718759,44.0769894 41.9258834,41.8845159 46.3315139,41.0985349 C46.3315139,41.1192186 46.3521976,41.1399023 46.3521976,41.160586 C46.3521976,41.1812698 46.3728814,41.160586 46.3728814,41.2019535 C46.8899741,44.4492962 49.909796,46.9106579 53.5501293,46.9106579 L62.5268601,46.9106579 C66.2085608,46.9106579 69.2697501,44.387245 69.7247917,41.0778512 C75.7437518,42.1534042 81.038782,45.897156 84.0999713,51.2335536 C83.975869,51.2335536 83.8724504,51.2335536 83.7483482,51.2335536 C83.6656133,51.2335536 83.5828785,51.2335536 83.5001436,51.2335536 C83.2519391,51.2335536 83.0037346,51.2128699 82.75553,51.2128699 C82.4039069,51.2128699 82.0522838,51.2128699 81.7006607,51.2335536 L81.679977,51.2335536 C79.9011778,51.3162884 78.1430623,51.5851767 76.4676817,52.0195346 C76.4676817,52.0195346 76.4676817,52.0195346 76.446998,52.0195346 C76.1367423,52.1022695 75.8264866,52.1850043 75.516231,52.2884229 C75.4748635,52.3091066 75.4334961,52.3091066 75.3921287,52.3297903 C75.1232404,52.4125251 74.8543522,52.49526 74.5854639,52.5986785 C74.5027291,52.640046 74.3993105,52.6607297 74.3165757,52.7020971 C74.1097386,52.7848319 73.9029015,52.8468831 73.6960643,52.9296179 C71.3174375,53.8603849 69.062913,55.1427751 67.0565929,56.7767883 C64.4090779,58.9072106 62.2579718,61.5547257 60.6860098,64.5124964 C60.6446423,64.5952313 60.6032749,64.6779661 60.5619075,64.7400172 C60.4584889,64.9468544 60.3550704,65.1330078 60.2516518,65.3398449 C60.1482333,65.5259983 60.0654984,65.7328354 59.9827636,65.9189888 C59.9413962,66.0224074 59.9000287,66.1258259 59.8586613,66.2085608 Z M106.210859,60.168917 C110.368285,61.8236139 113.863832,64.7813847 116.221775,68.6492387 C118.952025,73.1582878 119.882792,78.4740017 118.827923,83.6449296 L116.966389,92.6423442 C114.980753,102.26027 106.43838,109.230681 96.6549842,109.230681 C95.2484918,109.230681 93.8213157,109.085895 92.435507,108.796323 L76.73657,105.54898 C67.6564206,103.666762 61.1617351,96.096524 60.2723355,87.3266303 C60.2723355,87.2852629 60.2723355,87.2438954 60.2516518,87.1818443 C60.2309681,87.0370583 60.2309681,86.8922723 60.2102844,86.7681701 C60.2102844,86.6854352 60.2102844,86.6233841 60.1896007,86.5406492 C60.168917,86.3544958 60.168917,86.1476587 60.168917,85.9408216 C60.168917,85.8167193 60.168917,85.7133008 60.168917,85.5891985 C60.168917,85.4857799 60.168917,85.4030451 60.168917,85.2996265 C60.1482333,85.1755243 60.1482333,85.0307383 60.1482333,84.8859523 C60.1482333,84.8239012 60.1482333,84.76185 60.1482333,84.6997989 C60.1482333,84.4929618 60.168917,84.2861247 60.168917,84.0792876 C60.168917,84.0172364 60.168917,83.9345016 60.1896007,83.8724504 C60.2102844,83.7069808 60.2102844,83.5415111 60.2309681,83.3760414 C60.2309681,83.3139902 60.2309681,83.2726228 60.2516518,83.2105717 C60.2723355,82.9830508 60.2930192,82.7762137 60.3343867,82.5486929 C60.3343867,82.5073255 60.3550704,82.4452743 60.3550704,82.4039069 C60.3757541,82.2177535 60.3964378,82.0522838 60.4378052,81.8661304 C60.4378052,81.8040793 60.4584889,81.7420282 60.4584889,81.679977 C60.4998564,81.4524562 60.5412238,81.2456191 60.5825912,81.0180982 L62.4441253,72.0206837 C63.1887389,68.4217179 64.8434358,65.1950589 67.1600115,62.5475438 C71.0071818,58.162597 76.6331514,55.432347 82.75553,55.432347 C82.9416834,55.432347 83.1071531,55.432347 83.2933065,55.432347 C83.0657857,58.6796897 85.4030451,61.8029302 88.9192761,62.6509624 L97.6478024,64.7607009 C101.453605,65.6707843 105.218041,63.6230968 106.210859,60.168917 Z M100.874461,55.9287561 L100.25395,58.4728526 C100.212583,58.5969549 99.7782246,58.9072106 99.1163459,58.7417409 L90.3878196,56.6320023 C89.7259408,56.4665326 89.4570526,56.011491 89.49842,55.866705 L90.1189313,53.3226084 C90.1602988,53.1985062 90.5946567,52.8882505 91.2565355,53.0537202 L99.9850618,55.1634588 C100.646941,55.3289285 100.915829,55.7839701 100.874461,55.9287561 Z M49.9925309,89.0020109 C40.7055444,89.0020109 33.0112037,82.0522838 31.8529158,73.075553 C31.6874461,71.8138466 32.6802643,70.6762425 33.9419707,70.6762425 L33.9833381,70.6762425 C35.0382074,70.6762425 35.927607,71.4829072 36.072393,72.5170928 C36.9617926,79.384085 42.8566504,84.7411663 49.9511635,84.76185 C51.1094513,84.76185 52.1022695,85.6512496 52.1229532,86.8302212 C52.1436369,88.0298765 51.1921862,89.0020109 49.9925309,89.0020109 Z M79.7770756,101.329503 C79.6322896,102.405056 78.7015226,103.170353 77.667337,103.170353 C77.522551,103.170353 77.377765,103.14967 77.232979,103.128986 C72.4550417,102.156851 68.3389831,99.3645504 65.691468,95.2898592 C63.4369434,91.8563631 62.4027578,87.8850905 62.7130135,83.8724504 C62.7957483,82.610744 63.9747199,81.7420282 65.2157426,81.9902327 L65.2777937,82.0109164 C66.3119793,82.2177535 67.0152255,83.189888 66.9324907,84.2447573 C66.7049698,87.3059466 67.4909509,90.3464522 69.2076989,92.9525998 C71.2553864,96.0758403 74.3993105,98.2062626 78.0396438,98.9715599 C79.1358805,99.1990807 79.9218615,100.212583 79.7770756,101.329503 Z" id="Shape" fill="#000000" fill-rule="nonzero"></path>
    </g>
</svg>