<?xml version="1.0" encoding="UTF-8"?>
<svg width="144px" height="144px" viewBox="0 0 144 144" version="1.1" xmlns="http://www.w3.org/2000/svg" xmlns:xlink="http://www.w3.org/1999/xlink">
    <!-- Generator: Sketch 50.2 (55047) - http://www.bohemiancoding.com/sketch -->
    <title>Untitled 2</title>
    <desc>Created with Sketch.</desc>
    <defs></defs>
    <g id="Page-1" stroke="none" stroke-width="1" fill="none" fill-rule="evenodd">
        <g id="Group" transform="translate(72.000000, 72.000000) rotate(45.000000) translate(-72.000000, -72.000000) ">
            <path d="M72,144 C32.235498,144 0,111.764502 0,72 C0,32.235498 32.235498,0 72,0 C111.764502,0 144,32.235498 144,72 C144,111.764502 111.764502,144 72,144 Z M72,139 C109.003078,139 139,109.003078 139,72 C139,34.9969218 109.003078,5 72,5 C34.9969218,5 5,34.9969218 5,72 C5,109.003078 34.9969218,139 72,139 Z" id="Oval" fill="#000000"></path>
            <path d="M1,72 L143,72" id="Line" stroke="#000000" stroke-width="5"></path>
            <path d="M72,1 L72,143" id="Line" stroke="#000000" stroke-width="5"></path>
        </g>
    </g>
</svg>