<?xml version="1.0" encoding="UTF-8"?>
<svg width="144px" height="144px" viewBox="0 0 144 144" version="1.1" xmlns="http://www.w3.org/2000/svg" xmlns:xlink="http://www.w3.org/1999/xlink">
    <!-- Generator: Sketch 50.2 (55047) - http://www.bohemiancoding.com/sketch -->
    <title>Untitled</title>
    <desc>Created with Sketch.</desc>
    <defs></defs>
    <g id="Page-1" stroke="none" stroke-width="1" fill="none" fill-rule="evenodd">
        <path d="M138.332663,43.9735708 C134.713014,35.3898305 129.521402,27.6954898 122.902614,21.0973858 C116.283826,14.4785981 108.589486,9.2869865 100.026429,5.66733697 C91.1531169,1.90290147 81.7213444,0 72,0 C62.2786556,0 52.8468831,1.90290147 43.9735708,5.66733697 C35.3898305,9.2869865 27.6954898,14.4785981 21.0973858,21.0973858 C14.4785981,27.7161735 9.2869865,35.4105142 5.66733697,43.9735708 C1.90290147,52.8468831 0,62.2786556 0,72 C0,81.7213444 1.90290147,91.1531169 5.66733697,100.026429 C9.2869865,108.610169 14.4785981,116.30451 21.0973858,122.902614 C27.7161735,129.521402 35.4105142,134.713014 43.9735708,138.332663 C52.8468831,142.097099 62.2786556,144 72,144 C81.7213444,144 91.1531169,142.097099 100.026429,138.332663 C108.610169,134.713014 116.30451,129.521402 122.902614,122.902614 C129.521402,116.283826 134.713014,108.589486 138.332663,100.026429 C142.097099,91.1531169 144,81.7213444 144,72 C144,62.2786556 142.076415,52.8468831 138.332663,43.9735708 Z M119.965527,119.986211 C107.141626,132.810112 90.0982476,139.863258 71.9793163,139.863258 C55.0600402,139.863258 39.0715312,133.699512 26.5992531,122.447573 L23.1864407,119.117495 C10.8796323,106.417696 4.13674232,89.7259408 4.13674232,72 C4.13674232,53.8810687 11.189888,36.8376903 24.0137891,24.0137891 C36.8376903,11.189888 53.8810687,4.13674232 72,4.13674232 C89.7259408,4.13674232 106.417696,10.900316 119.138179,23.1864407 L122.447573,26.5992531 C133.699512,39.0715312 139.863258,55.0600402 139.863258,71.9793163 C139.842574,90.1189313 132.789428,107.16231 119.965527,119.986211 Z M83.2312554,59.0726803 L82.7348463,58.2453318 L82.7348463,24.3860959 L83.9345016,24.3860959 C85.1134731,24.3860959 86.0649239,23.4346452 86.0649239,22.2556737 C86.0649239,21.0767021 85.1134731,20.1252514 83.9345016,20.1252514 L60.024131,20.1252514 C58.8451594,20.1252514 57.8937087,21.0767021 57.8937087,22.2556737 C57.8937087,23.4346452 58.8451594,24.3860959 60.024131,24.3860959 L61.2237863,24.3860959 L61.2237863,58.2453318 L35.8655559,101.308819 C34.6038495,103.273772 34.1694915,105.54898 34.5831658,107.72077 L35.4932491,110.45102 C36.7756392,112.705544 40.8089629,115.042804 43.3530595,115.042804 L100.605573,115.042804 C103.935651,115.042804 106.852054,113.305372 108.4447,110.388969 C110.016662,107.493249 109.89256,104.10112 108.11376,101.329503 L83.2312554,59.0726803 Z M65.1950589,59.9000287 C65.3812123,59.5690893 65.4846309,59.1967825 65.4846309,58.8244757 L65.4846309,24.3860959 L78.4946854,24.3860959 L78.4946854,58.8244757 C78.4946854,59.1967825 78.598104,59.5690893 78.7842574,59.9000287 L84.6791152,69.9109451 L59.3002011,69.9109451 L65.1950589,59.9000287 Z M87.1818443,74.1717897 L104.473427,103.521976 C104.494111,103.54266 104.514795,103.584028 104.514795,103.604711 C105.466245,105.052571 105.528296,106.852054 104.700948,108.361965 C103.8736,109.89256 102.343005,110.802643 100.605573,110.802643 L43.3530595,110.802643 C41.6156277,110.781959 40.085033,109.871876 39.2576846,108.361965 C38.4303361,106.83137 38.4923872,105.052571 39.443838,103.604711 C39.4645217,103.584028 39.4852054,103.54266 39.4852054,103.521976 L56.7767883,74.1717897 L87.1818443,74.1717897 Z M55.6598679,90.5532893 C55.6598679,91.50474 55.9287561,92.2493536 56.4872163,92.8078138 C57.0249928,93.3662741 57.9971273,93.8626831 59.3622522,94.2556737 C60.313703,94.5452456 60.9342143,94.8141339 61.2237863,95.0623384 C61.5133582,95.3105429 61.6581442,95.6414823 61.6581442,96.0551566 C61.6581442,96.4481471 61.5133582,96.7584028 61.24447,97.027291 C60.9342143,97.316863 60.5825912,97.4409652 60.168917,97.4409652 C59.6725079,97.4409652 59.093364,97.3375467 58.3694341,97.1100259 C57.6661879,96.882505 57.1904625,96.7790865 56.9836254,96.7790865 C56.5285837,96.7790865 56.1769606,96.9031887 55.9080724,97.1513933 C55.6391841,97.3995978 55.5150819,97.7305372 55.5150819,98.1235277 C55.5150819,98.6819879 55.9287561,99.178397 56.7561046,99.5920712 C57.583453,100.005745 58.5762712,100.212583 59.7552427,100.212583 C61.2858374,100.212583 62.5061764,99.7989084 63.4369434,98.9922436 C64.3677104,98.1855789 64.8434358,97.1100259 64.8434358,95.806952 C64.8434358,94.8555013 64.5538638,94.0488365 63.9747199,93.4076415 C63.395576,92.7664464 62.4854927,92.2286699 61.2237863,91.8149957 C61.0790003,91.7736283 60.8721632,91.6908934 60.6032749,91.6081586 C59.4449871,91.2358518 58.8658431,90.8014938 58.8658431,90.2637173 C58.8658431,89.9327779 58.9899454,89.6638897 59.2588337,89.4570526 C59.5277219,89.2502155 59.879345,89.1467969 60.313703,89.1467969 C60.5825912,89.1467969 60.9755817,89.2295317 61.5133582,89.3743177 C62.0511347,89.5191037 62.4234415,89.6018386 62.6509624,89.6018386 C63.0646366,89.6018386 63.395576,89.49842 63.6437805,89.2708992 C63.8713014,89.0433783 63.9954036,88.7331227 63.9954036,88.3401321 C63.9954036,87.7816719 63.6644642,87.3266303 62.9819018,86.9543235 C62.2993393,86.5820167 61.4513071,86.3958633 60.4171215,86.3958633 C59.0106291,86.3958633 57.8523413,86.7888538 56.9836254,87.5541511 C56.0942258,88.3194484 55.6598679,89.3329503 55.6598679,90.5532893 Z M72.1654697,100.274634 C74.0890549,100.274634 75.6610169,99.6334387 76.8399885,98.3717323 C78.0189601,97.0893421 78.6187877,95.4346452 78.6187877,93.3455903 C78.6187877,91.2772192 78.0189601,89.6018386 76.8399885,88.3401321 C75.6610169,87.057742 74.0890549,86.416547 72.1654697,86.416547 C70.2418845,86.416547 68.6906061,87.057742 67.5116346,88.3401321 C66.332663,89.6225223 65.7328354,91.2979029 65.7328354,93.3662741 C65.7328354,95.4346452 66.332663,97.1100259 67.5116346,98.392416 C68.6699224,99.6334387 70.2212008,100.274634 72.1654697,100.274634 Z M69.8282103,90.3464522 C70.4073542,89.6018386 71.1726515,89.2295317 72.144786,89.2295317 C73.1169204,89.2295317 73.8822178,89.6018386 74.4613617,90.3464522 C75.0405056,91.0910658 75.3300776,92.1045677 75.3300776,93.3662741 C75.3300776,94.586613 75.0405056,95.5794312 74.4613617,96.3033611 C73.8822178,97.0479747 73.1169204,97.3995978 72.144786,97.3995978 C71.1933352,97.3995978 70.4073542,97.027291 69.8282103,96.3033611 C69.2490664,95.5587475 68.9594944,94.586613 68.9594944,93.3662741 C68.9594944,92.1045677 69.2490664,91.0910658 69.8282103,90.3464522 Z M81.5765585,101.412238 C81.4524562,101.557024 81.2456191,101.763861 81.0180982,102.032749 C79.818443,103.356507 79.1979316,104.204539 79.1979316,104.638897 C79.1979316,105.114622 79.3427176,105.445562 79.6322896,105.673082 C79.9218615,105.900603 80.3769032,106.024706 80.9767308,106.024706 L86.271761,106.024706 C86.9956909,106.024706 87.5127837,105.900603 87.8644068,105.673082 C88.2160299,105.445562 88.3814996,105.093939 88.3814996,104.638897 C88.3814996,104.183855 88.2160299,103.832232 87.8644068,103.604711 C87.5127837,103.37719 86.9750072,103.253088 86.271761,103.253088 L83.5208273,103.253088 C85.3616777,101.432922 86.5820167,100.047113 87.1818443,99.1163459 C87.7816719,98.1855789 88.0712439,97.2754955 88.0712439,96.4274634 C88.0712439,95.2898592 87.6782534,94.3590922 86.8922723,93.6351623 C86.1062913,92.9112324 85.0927894,92.5389256 83.8517667,92.5389256 C83.1485205,92.5389256 82.5073255,92.6837116 81.9074978,92.9732835 C81.3076702,93.2628555 80.7905774,93.6765297 80.3355358,94.2349899 C80.0666475,94.586613 79.8391267,94.9796036 79.673657,95.4346452 C79.5081873,95.8896869 79.4254525,96.2826774 79.4254525,96.6549842 C79.4254525,97.1100259 79.5702384,97.4823327 79.8391267,97.7719046 C80.1080149,98.0614766 80.459638,98.1855789 80.9146797,98.1855789 C81.2456191,98.1855789 81.5145073,98.0821603 81.7213444,97.8753232 C81.9281816,97.6684861 82.1350187,97.2754955 82.3625395,96.6549842 C82.5280092,96.2206263 82.7348463,95.8896869 82.9623671,95.6414823 C83.2105717,95.4139615 83.4794599,95.2898592 83.7690319,95.2898592 C84.0999713,95.2898592 84.3688595,95.4139615 84.5756966,95.6414823 C84.7825338,95.8690032 84.8859523,96.1792588 84.8859523,96.5515656 C84.8859523,96.9859236 84.6584315,97.5237001 84.2240735,98.1855789 C83.7897156,98.8888251 82.900316,99.9643781 81.5765585,101.412238 Z" id="Shape" fill="#000000" fill-rule="nonzero"></path>
    </g>
</svg>