<?xml version="1.0" encoding="UTF-8"?>
<svg width="698px" height="697px" viewBox="0 0 698 697" version="1.1" xmlns="http://www.w3.org/2000/svg" xmlns:xlink="http://www.w3.org/1999/xlink">
    <!-- Generator: Sketch 50 (54983) - http://www.bohemiancoding.com/sketch -->
    <title>altramuces</title>
    <desc>Created with Sketch.</desc>
    <defs></defs>
    <g id="Page-1" stroke="none" stroke-width="1" fill="none" fill-rule="evenodd">
        <g id="altramuces" fill="#000000" fill-rule="nonzero">
            <g id="Group">
                <path d="M669.7,212.9 C652.2,171.4 627.1,134.2 595.1,102.3 C563.1,70.4 525.9,45.2 484.5,27.7 C441.6,9.5 396,0.3 349,0.3 C302,0.3 256.4,9.5 213.5,27.7 C172,45.2 134.8,70.3 102.9,102.3 C71,134.3 45.8,171.5 28.3,212.9 C10.1,255.8 0.9,301.4 0.9,348.4 C0.9,395.4 10.1,441 28.3,483.9 C45.8,525.4 70.9,562.6 102.9,594.5 C134.9,626.5 172.1,651.6 213.5,669.1 C256.4,687.3 302,696.5 349,696.5 C396,696.5 441.6,687.3 484.5,669.1 C526,651.6 563.2,626.5 595.1,594.5 C627.1,562.5 652.2,525.3 669.7,483.9 C687.9,441 697.1,395.4 697.1,348.4 C697.1,301.4 687.9,255.8 669.7,212.9 Z M20.9,348.3 C20.9,260.7 55,178.3 117,116.3 C179,54.3 261.4,20.2 349,20.2 C435,20.2 516,53.1 577.5,112.9 L460.1,230.3 L449.1,227.6 C439.2,225.2 429.4,227 421.6,231.7 C402.8,202.8 372.2,183.3 338,178.2 C335.8,162.2 321.1,149.9 303.2,149.9 L259.8,149.9 C242,149.9 227.2,162.2 225,178.2 C197.9,182.2 173.2,195.1 154.3,215.3 C133.4,237.8 122,266.9 122,297.7 L122,342.1 C122,403.9 168.4,455 228.3,462.2 L113.7,576.9 C53.9,515.3 20.9,434.4 20.9,348.3 Z M271.3,418.2 C271.3,418.2 271.3,418.2 271.3,418.2 C271.3,419.2 271.4,420.1 271.5,421 C271.5,421.1 271.5,421.2 271.5,421.3 C271.6,422.3 271.7,423.2 271.7,424.2 C271.7,424.2 271.7,424.4 271.7,424.5 C272.3,430.7 273.4,437.1 275,443.1 L242.7,443.1 C187.3,443 142,397.6 142,342.2 L142,297.8 C142,272.3 151.7,248 169.1,229.4 C184,213.4 203.6,202.8 224.9,199 C224.9,199.1 225,199.2 225,199.3 C225,199.4 225.1,199.3 225.1,199.5 C227.6,215.2 242.2,227.1 259.8,227.1 L303.2,227.1 C321,227.1 335.8,214.9 338,198.9 C338,198.9 338,198.9 338,198.9 C367.1,204.1 392.7,222.2 407.5,248 C406.9,248 406.4,248 405.8,248 C405.4,248 405,248 404.6,248 C403.4,248 402.2,247.9 401,247.9 C399.3,247.9 397.6,247.9 395.9,248 C395.9,248 395.8,248 395.8,248 C387.2,248.4 378.7,249.7 370.6,251.8 C370.6,251.8 370.6,251.8 370.5,251.8 C369,252.2 367.5,252.6 366,253.1 C365.8,253.2 365.6,253.2 365.4,253.3 C364.1,253.7 362.8,254.1 361.5,254.6 C361.1,254.8 360.6,254.9 360.2,255.1 C359.2,255.5 358.2,255.8 357.2,256.2 C345.7,260.7 334.8,266.9 325.1,274.8 C312.3,285.1 301.9,297.9 294.3,312.2 C294.1,312.6 293.9,313 293.7,313.3 C293.2,314.3 292.7,315.2 292.2,316.2 C291.7,317.1 291.3,318.1 290.9,319 C290.7,319.5 290.5,320 290.3,320.4 C289.7,321.7 289.2,323 288.7,324.3 C288.6,324.5 288.6,324.7 288.5,324.9 C287.9,326.4 287.4,327.8 286.9,329.3 C286.9,329.4 286.8,329.5 286.8,329.5 C286.3,331.1 285.7,332.7 285.3,334.3 C285.3,334.3 285.3,334.3 285.3,334.4 C284.3,337.7 283.5,341.1 282.8,344.5 L273.8,388 C273.6,389.1 273.4,390.2 273.2,391.3 C273.1,391.6 273.1,392 273,392.3 C272.9,393 272.7,393.8 272.6,394.5 C272.5,394.9 272.5,395.3 272.4,395.7 C272.3,396.4 272.2,397.1 272.1,397.8 C272,398.2 272,398.7 271.9,399.1 C271.8,399.8 271.8,400.4 271.7,401.1 C271.7,401.6 271.6,402 271.6,402.5 C271.5,403.1 271.5,403.8 271.5,404.4 C271.5,404.9 271.4,405.3 271.4,405.8 C271.4,406.4 271.3,407 271.3,407.6 C271.3,408.1 271.3,408.6 271.2,409.1 C271.2,409.6 271.2,410.2 271.2,410.7 C271.2,413.1 271.2,415.6 271.3,418.2 Z M255,194.8 L255,182.2 C255,181.5 256.5,180 259.8,180 L303.2,180 C306.5,180 308,181.5 308,182.2 L308,194.8 C308,195.5 306.5,197 303.2,197 L259.8,197 C256.5,197 255,195.5 255,194.8 Z M485.6,283 C485.4,283.6 483.3,285.1 480.1,284.3 L437.9,274.1 C434.7,273.3 433.4,271.1 433.6,270.4 L436.6,258.1 C436.8,257.5 438.9,256 442.1,256.8 L484.3,267 C487.5,267.8 488.8,270 488.6,270.7 L485.6,283 Z M291.7,410.7 C291.7,410.4 291.7,410.1 291.7,409.8 C291.7,408.8 291.8,407.8 291.8,406.8 C291.8,406.5 291.8,406.1 291.9,405.8 C292,405 292,404.2 292.1,403.4 C292.1,403.1 292.1,402.9 292.2,402.6 C292.3,401.5 292.4,400.5 292.6,399.4 C292.6,399.2 292.7,398.9 292.7,398.7 C292.8,397.8 292.9,397 293.1,396.1 C293.1,395.8 293.2,395.5 293.2,395.2 C293.4,394.1 293.6,393.1 293.8,392 L302.8,348.5 C306.4,331.1 314.4,315.5 325.6,302.7 C344.2,281.5 371.4,268.3 401,268.3 C401.9,268.3 402.7,268.3 403.6,268.3 C402.5,284 413.8,299.1 430.8,303.2 L473,313.4 C491.4,317.8 509.6,307.9 514.4,291.2 C534.5,299.2 551.4,313.5 562.8,332.2 C576,354 580.5,379.7 575.4,404.7 L566.4,448.2 C556.8,494.7 515.5,528.4 468.2,528.4 C461.4,528.4 454.5,527.7 447.8,526.3 L371.9,510.6 C328,501.5 296.6,464.9 292.3,422.5 C292.3,422.3 292.3,422.1 292.2,421.8 C292.1,421.1 292.1,420.4 292,419.8 C292,419.4 292,419.1 291.9,418.7 C291.8,417.8 291.8,416.8 291.8,415.8 C291.8,415.2 291.8,414.7 291.8,414.1 C291.8,413.6 291.8,413.2 291.8,412.7 C291.7,412.1 291.7,411.4 291.7,410.7 Z M581,580.3 C519,642.3 436.6,676.4 349,676.4 C267.4,676.4 190.4,646.7 130.2,592.7 L259.9,463 L282.5,463 C298.1,497 328.8,522.7 367.8,530.7 L443.7,546.4 C451.8,548.1 460,549 468.2,549 C468.2,549 468.2,549 468.2,549 C495.6,549 522.6,539.5 544,522.2 C565.8,504.7 580.9,479.9 586.5,452.5 L595.5,409 C601.7,378.9 596.3,347.9 580.4,321.7 C566,298.1 544.3,280.3 518.6,271 C518.7,256 507.6,241.9 491.3,238 L486.3,236.8 L593.4,129.7 C647.5,189.9 677,267 677,348.5 C677.1,436 643,518.4 581,580.3 Z" id="Shape"></path>
                <path d="M242.4,410.1 C208.1,410 179.6,384.1 175.3,350.9 C174.6,345.9 170.3,342 165.2,342 L165,342 C158.9,342 154.1,347.5 154.9,353.6 C160.5,397 197.7,430.6 242.6,430.6 C248.4,430.6 253,425.9 252.9,420.1 C252.8,414.4 248,410.1 242.4,410.1 Z" id="Shape"></path>
                <path d="M374.3,498.9 C375,499 375.7,499.1 376.4,499.1 C381.4,499.1 385.9,495.4 386.6,490.2 C387.3,484.8 383.5,479.9 378.2,478.8 C360.6,475.1 345.4,464.8 335.5,449.7 C327.2,437.1 323.4,422.4 324.5,407.6 C324.9,402.5 321.5,397.8 316.5,396.8 L316.2,396.7 C310.2,395.5 304.5,399.7 304.1,405.8 C302.6,425.2 307.6,444.4 318.5,461 C331.3,480.7 351.2,494.2 374.3,498.9 Z" id="Shape"></path>
            </g>
        </g>
    </g>
</svg>