<?xml version="1.0" encoding="UTF-8"?>
<svg width="698px" height="698px" viewBox="0 0 698 698" version="1.1" xmlns="http://www.w3.org/2000/svg" xmlns:xlink="http://www.w3.org/1999/xlink">
    <!-- Generator: Sketch 50 (54983) - http://www.bohemiancoding.com/sketch -->
    <title>cacahuetes</title>
    <desc>Created with Sketch.</desc>
    <defs></defs>
    <g id="Page-1" stroke="none" stroke-width="1" fill="none" fill-rule="evenodd">
        <g id="cacahuetes" fill="#000000" fill-rule="nonzero">
            <g id="Group">
                <path d="M669.7,213.5 C652.2,172 627.1,134.8 595.1,102.9 C563.1,70.9 525.9,45.8 484.5,28.3 C441.6,10.1 396,0.9 349,0.9 C302,0.9 256.4,10.1 213.5,28.3 C172,45.8 134.8,70.9 102.9,102.9 C70.9,134.9 45.8,172.1 28.3,213.5 C10.1,256.4 0.9,302 0.9,349 C0.9,396 10.1,441.6 28.3,484.5 C45.8,526 70.9,563.2 102.9,595.1 C134.9,627.1 172.1,652.2 213.5,669.7 C256.4,687.9 302,697.1 349,697.1 C396,697.1 441.6,687.9 484.5,669.7 C526,652.2 563.2,627.1 595.1,595.1 C627.1,563.1 652.2,525.9 669.7,484.5 C687.9,441.6 697.1,396 697.1,349 C697.1,302 687.9,256.4 669.7,213.5 Z M20.9,349 C20.9,261.4 55,179 117,117 C179,55 261.4,20.9 349,20.9 C435,20.9 515.9,53.8 577.5,113.6 L453.3,237.8 C437.5,234.5 421.1,236.2 406.3,242.6 C398.2,223.5 382.8,208.1 363.2,200.2 L265.3,160.8 C245.8,153 224.5,153.2 205.1,161.4 C185.8,169.6 170.8,184.9 163,204.4 L162.5,205.7 C146.3,245.9 165.9,291.8 206.1,307.9 L304,347.3 C315,351.7 326.7,353.5 338.3,352.8 L312.4,378.7 C298.1,367.5 280.4,361.6 261.6,362.2 L213.8,363.7 C170.5,365.1 136.4,401.4 137.7,444.8 L137.7,446.2 C138.4,466.7 146.8,485.9 161.6,500.2 C166.7,505.1 172.3,509.3 178.4,512.6 L113.5,577.5 C53.8,515.9 20.9,435 20.9,349 Z M175.9,485.5 C165,475 158.7,460.8 158.2,445.6 L158.2,444.2 C157.2,412.2 182.4,385.3 214.4,384.3 L262.2,382.8 C262.8,382.8 263.5,382.8 264.1,382.8 C282.4,382.8 299.3,391.2 310.4,405.8 C312.4,408.5 315.6,410 318.9,409.9 C322.2,409.8 325.3,408.1 327.1,405.3 C337.5,389.6 354.9,379.9 373.7,379.3 L479.2,375.9 C480.2,375.9 481.1,375.9 482.1,375.9 C482.7,375.9 483.2,375.9 483.8,376 C484.2,376 484.6,376 485,376.1 C485.6,376.1 486.3,376.2 486.9,376.3 C487.2,376.3 487.5,376.4 487.8,376.4 C488.5,376.5 489.1,376.6 489.8,376.7 C490.1,376.7 490.3,376.8 490.6,376.8 C491.3,376.9 492,377.1 492.6,377.2 C492.8,377.3 493.1,377.3 493.3,377.3 C494,377.4 494.7,377.6 495.3,377.8 C495.5,377.9 495.8,377.9 496,378 C496.7,378.2 497.4,378.4 498,378.6 C498.2,378.7 498.5,378.7 498.7,378.8 C499.4,379 500,379.3 500.7,379.5 C500.9,379.6 501.2,379.7 501.4,379.7 C502.1,379.9 502.7,380.2 503.3,380.5 C503.5,380.6 503.8,380.7 504,380.8 C504.6,381.1 505.3,381.4 505.9,381.7 C506.1,381.8 506.4,381.9 506.6,382 C507.2,382.3 507.8,382.6 508.4,383 C508.6,383.1 508.9,383.2 509.1,383.4 C509.7,383.7 510.3,384.1 510.9,384.4 C511.1,384.5 511.4,384.7 511.6,384.8 C512.2,385.2 512.7,385.5 513.3,385.9 C513.5,386.1 513.8,386.2 514,386.4 C514.5,386.8 515.1,387.2 515.6,387.6 C515.8,387.8 516.1,388 516.3,388.2 C516.8,388.6 517.3,389 517.8,389.4 C518.1,389.6 518.3,389.8 518.6,390 C519.1,390.4 519.5,390.8 520,391.2 C520.4,391.6 520.9,392 521.3,392.4 C532.2,402.9 538.5,417.1 539,432.3 L539,433.7 C539.5,449.2 533.9,464 523.3,475.3 C512.7,486.6 498.3,493.1 482.8,493.6 L377.3,497 C358.2,497.6 340.6,489.1 329.1,474 C327.1,471.3 323.9,469.8 320.6,469.9 C317.3,470 314.2,471.7 312.4,474.5 C302,490.2 284.6,499.9 265.8,500.5 L218,502 C202.3,502.3 187.3,496.4 175.9,485.5 Z M368.6,355 C369.3,356.3 370.1,357.6 370.9,358.9 C368.6,359 366.3,359.3 364,359.6 L368.6,355 Z M535.6,354.2 L535.1,355.5 C533,360.8 530.2,365.6 526.7,369.9 C526.3,369.6 525.9,369.4 525.6,369.1 C525,368.7 524.4,368.3 523.8,367.9 C523.4,367.6 522.9,367.3 522.5,367.1 C521.9,366.7 521.4,366.4 520.8,366.1 C520.4,365.8 519.9,365.6 519.5,365.3 C518.8,364.9 518.1,364.5 517.4,364.2 C517.1,364 516.7,363.8 516.4,363.7 C515.4,363.2 514.4,362.7 513.4,362.3 C513,362.1 512.6,362 512.2,361.8 C511.5,361.5 510.8,361.2 510.1,360.9 C509.7,360.7 509.3,360.6 508.8,360.4 C508,360.1 507.3,359.8 506.5,359.6 C506.1,359.5 505.8,359.4 505.4,359.2 C504.3,358.8 503.2,358.5 502.1,358.2 C501.9,358.1 501.6,358.1 501.4,358 C500.5,357.8 499.6,357.5 498.6,357.3 C498.2,357.2 497.8,357.1 497.4,357 C496.6,356.8 495.8,356.7 495,356.5 C494.6,356.4 494.2,356.4 493.9,356.3 C492.9,356.1 491.9,356 490.8,355.9 C490.6,355.9 490.5,355.9 490.3,355.8 C489.1,355.7 487.9,355.6 486.7,355.5 C486.4,355.5 486,355.5 485.7,355.4 C484.8,355.3 484,355.3 483.1,355.3 C482.7,355.3 482.3,355.3 481.9,355.3 C481.6,355.3 481.3,355.3 481,355.3 C480.1,355.3 479.3,355.3 478.4,355.3 L396.6,357.9 C388.6,350.2 382.8,340.2 380.3,329.4 C379.5,326.2 377.2,323.5 374.1,322.3 C371,321.1 367.5,321.4 364.7,323.2 C348.9,333.4 329,335.3 311.6,328.3 L213.7,288.9 C184,277 169.6,243.1 181.5,213.4 L182,212.1 C187.8,197.7 198.8,186.4 213.1,180.4 C227.4,174.3 243.1,174.2 257.5,179.9 L355.4,219.3 C372.8,226.3 385.9,241.4 390.2,259.7 C391,262.9 393.3,265.6 396.4,266.8 C399.5,268 403,267.7 405.8,265.9 C421.6,255.7 441.5,253.8 458.9,260.8 L503.3,278.6 C533.1,290.7 547.5,324.5 535.6,354.2 Z M581,581 C519,643 436.6,677.1 349,677.1 C267.4,677.1 190.4,647.5 130.2,593.5 L202.5,521.2 C207,522 211.6,522.4 216.3,522.4 C217.1,522.4 218,522.4 218.8,522.4 L266.6,520.9 C287.6,520.2 307.4,511.1 321.6,495.9 C336.7,510.2 356.7,518 378.1,517.3 L483.6,513.9 C504.6,513.2 524.1,504.4 538.4,489.1 C552.8,473.8 560.3,453.8 559.6,432.8 L559.6,431.4 C559,413.9 552.7,397.3 541.7,384 C546.9,377.8 551,370.8 554.1,363.2 L554.6,361.9 C570.8,321.7 551.2,275.8 511,259.7 L477.4,246.2 L593.4,130.2 C647.5,190.4 677,267.5 677,349 C677.1,436.6 643,519 581,581 Z" id="Shape"></path>
                <path d="M374.6,407.9 L480.1,404.5 C487.9,404.2 495.4,407.1 501.2,412.5 C506.9,417.9 510.2,425.2 510.5,433 L510.5,434.4 C510.7,440 515.2,444.3 520.8,444.3 C520.9,444.3 521,444.3 521.1,444.3 C526.8,444.1 531.2,439.4 531,433.7 L531,432.3 C530.6,419 525,406.6 515.2,397.5 C505.5,388.4 492.8,383.6 479.4,384 L374,387.3 C368.3,387.5 363.9,392.2 364.1,397.9 C364.2,403.6 368.9,408.1 374.6,407.9 Z" id="Shape"></path>
                <path d="M352.5,226.8 L254.6,187.4 C229,177.1 199.9,189.6 189.6,215.1 L189.1,216.4 C187,221.7 189.5,227.6 194.8,229.8 C200.1,231.9 206,229.4 208.2,224.1 L208.7,222.8 C214.8,207.7 231.9,200.4 247,206.5 L344.9,245.9 C346.2,246.4 347.5,246.6 348.7,246.6 C352.8,246.6 356.6,244.2 358.2,240.2 C360.3,234.9 357.8,228.9 352.5,226.8 Z" id="Shape"></path>
            </g>
        </g>
    </g>
</svg>