<?xml version="1.0" encoding="UTF-8"?>
<svg width="697px" height="697px" viewBox="0 0 697 697" version="1.1" xmlns="http://www.w3.org/2000/svg" xmlns:xlink="http://www.w3.org/1999/xlink">
    <!-- Generator: Sketch 50 (54983) - http://www.bohemiancoding.com/sketch -->
    <title>frutos_cascara</title>
    <desc>Created with Sketch.</desc>
    <defs></defs>
    <g id="Page-1" stroke="none" stroke-width="1" fill="none" fill-rule="evenodd">
        <g id="frutos_cascara" fill="#000000" fill-rule="nonzero">
            <g id="Group">
                <path d="M669.5,213 C652,171.5 626.9,134.3 594.9,102.4 C562.9,70.4 525.7,45.3 484.3,27.8 C441.4,9.6 395.8,0.4 348.8,0.4 C301.8,0.4 256.2,9.6 213.3,27.8 C171.8,45.3 134.6,70.4 102.7,102.4 C70.7,134.4 45.6,171.6 28.1,213 C9.9,255.9 0.7,301.5 0.7,348.5 C0.7,395.5 9.9,441.1 28.1,484 C45.6,525.5 70.7,562.7 102.7,594.6 C134.7,626.6 171.9,651.7 213.3,669.2 C256.2,687.4 301.8,696.6 348.8,696.6 C395.8,696.6 441.4,687.4 484.3,669.2 C525.8,651.7 563,626.6 594.9,594.6 C626.9,562.6 652,525.4 669.5,484 C687.7,441.1 696.9,395.5 696.9,348.5 C696.9,301.5 687.7,256 669.5,213 Z M20.7,348.5 C20.7,260.9 54.8,178.5 116.8,116.5 C178.8,54.5 261.2,20.4 348.8,20.4 C434.2,20.4 514.6,52.8 576,111.8 L472,215.7 C453.1,193.5 430.9,175.5 406.7,163.9 C388.4,155.1 372.9,142 361.7,125.9 L357.2,119.4 C355.3,116.6 352.1,115 348.8,115 C345.4,115 342.3,116.7 340.4,119.4 L335.9,125.9 C324.7,142 309.2,155.1 290.9,163.9 C217.4,199.1 162,293.7 162,383.9 C162,412.9 166.9,440.2 176.6,465 C180.8,475.9 186,486.2 191.9,495.9 L112.1,575.7 C53.1,514.3 20.7,433.9 20.7,348.5 Z M182.6,383.9 C182.6,343.5 194.8,300.5 217,263 C238.7,226.2 268.1,197.6 299.7,182.5 C319.1,173.2 336,159.6 348.8,143 C361.6,159.6 378.5,173.1 397.9,182.5 C429.5,197.6 458.9,226.2 480.6,263 C502.8,300.6 515,343.5 515,383.9 C515,435.9 498.1,480.7 466.2,513.4 C435.9,544.4 394.2,561.5 348.8,561.5 C303.4,561.5 261.6,544.4 231.4,513.4 C199.4,480.7 182.6,435.9 182.6,383.9 Z M580.8,580.5 C518.8,642.5 436.4,676.6 348.8,676.6 C266.6,676.6 189,646.6 128.6,591.7 L205.4,514.9 C209,519.3 212.7,523.6 216.7,527.7 C250.9,562.7 297.8,582 348.8,582 C399.8,582 446.8,562.7 480.9,527.7 C498.2,510 511.6,488.9 520.9,465 C530.6,440.2 535.5,412.9 535.5,383.9 C535.5,331.2 516.6,277 486.2,234.1 L592,128.3 C646.9,188.7 676.9,266.3 676.9,348.5 C676.9,436.2 642.7,518.6 580.8,580.5 Z" id="Shape"></path>
                <path d="M243.5,451.7 C244.1,451.8 244.5,452 244.9,452.1 C244.8,452.4 244.7,452.8 244.5,453.4 C243.8,455.1 242.8,457 241.7,459 L241.1,460 C234.3,472.4 236.7,484.9 247.4,493.5 C249.8,495.5 252.5,497.2 255.2,498.7 C259.6,501 259.6,502.3 259.3,505 C258.5,513 261.7,520.5 263.7,524.2 C268.9,533.9 279.9,540.2 291.8,540.2 C293.9,540.2 296.1,540 298.1,539.6 C311.4,537 323,525 325.1,511.6 C325.7,507.6 326,503.6 326.3,499.8 C326.5,496.4 326.8,493.1 327.2,490 C327.5,488 328,487.1 328.1,487 C328.1,487 328.2,486.9 328.4,486.9 C328.5,486.9 328.5,486.9 328.5,486.9 C328.6,487 329.4,487.4 330.7,489.2 C332.3,491.4 333.7,494.1 335.2,497 C335.9,498.3 336.5,499.6 337.2,500.8 C337.6,501.5 337.9,502.3 338.3,503 C338.5,503.4 338.7,503.8 338.9,504.2 C340.5,507.6 343.9,509.8 347.6,510 C348,510 348.3,510 348.7,510 C349.1,510 349.4,510 349.8,510 C353.6,509.8 356.9,507.6 358.5,504.2 C358.7,503.8 358.9,503.4 359.1,503 C359.5,502.2 359.8,501.4 360.2,500.8 C360.9,499.5 361.5,498.3 362.2,497 C363.7,494.1 365.1,491.4 366.7,489.2 C368.1,487.3 368.9,486.9 368.9,486.9 C368.9,486.9 369,486.9 369.1,486.9 C369.3,486.9 369.4,487 369.4,487 C369.6,487.2 370.1,488.1 370.4,490 C370.9,493.1 371.1,496.3 371.3,499.8 C371.6,503.6 371.8,507.6 372.5,511.6 C374.6,525 386.2,537 399.5,539.6 C401.6,540 403.7,540.2 405.8,540.2 C417.7,540.2 428.7,533.9 433.9,524.2 C435.9,520.5 439.1,513 438.3,505 C438,502.3 438.1,501 442.4,498.7 C445.1,497.2 447.8,495.5 450.2,493.5 C460.9,484.9 463.2,472.4 456.5,460 L455.9,459 C454.8,457 453.8,455.2 453.1,453.4 C452.9,452.9 452.7,452.5 452.7,452.1 C453,452 453.5,451.9 454.1,451.7 L454.5,451.6 C461,450.2 469,448.4 475.8,442 C485.8,432.5 490.6,416 486.8,404.6 C484.5,397.6 480.2,388.9 469.9,383.1 C479.7,380.9 487.2,374 492.5,362.5 C492.6,362.3 492.8,362.2 492.9,362 C494.3,360.2 495.1,358 495.1,355.7 L495.1,345.6 C495.1,344.4 494.9,343.1 494.4,342 C490.9,332.8 484.7,325.2 475.8,319.5 C475.9,319.2 475.9,318.8 476,318.3 C476.2,317.5 476.6,316.3 477.1,315 C477.5,314 477.8,313.1 478.2,312.1 C482.9,298.5 477.8,286.1 465.3,280.5 C461.4,278.8 461,278 461.4,273.8 C462.1,267 461.3,259.6 459.1,252.8 C456,243.3 447.6,237.2 437.9,237.2 C435.9,237.2 433.9,237.5 431.9,238 C431.1,238.2 430.3,238.3 429.7,238.3 C428.9,238.3 427.6,238.3 425,234 C419.5,225.1 411.7,219 402.5,216.3 C399.5,215.4 396.4,215 393.3,215 C377.9,215 364.4,225.5 359.5,241.1 C355.8,253.1 358.2,263.9 360.2,272.7 C362.8,284.3 361.9,291.5 356.9,297.4 C354.4,300.4 351.3,301.1 349.1,301.1 L349,301.1 C348.9,301.1 348.8,301.1 348.7,301.1 L348.6,301.1 C346.5,301.1 343.4,300.5 340.8,297.4 C335.9,291.5 334.9,284.4 337.5,272.7 C339.5,264 341.9,253.1 338.2,241.1 C333.4,225.5 319.8,215 304.4,215 C301.3,215 298.2,215.4 295.2,216.3 C285.9,218.9 278.1,225 272.7,234 C270.1,238.3 268.8,238.3 268,238.3 C267.4,238.3 266.6,238.2 265.8,238 C263.8,237.5 261.8,237.2 259.8,237.2 C250,237.2 241.7,243.3 238.6,252.8 C236.4,259.6 235.5,267 236.3,273.8 C236.8,278 236.3,278.8 232.4,280.5 C219.8,286.1 214.8,298.5 219.5,312.1 C219.8,313.1 220.2,314 220.6,315 C221.1,316.3 221.6,317.5 221.7,318.3 C221.8,318.8 221.9,319.2 221.9,319.5 C213,325.2 206.7,332.8 203.3,342 C202.9,343.2 202.6,344.4 202.6,345.6 L202.6,355.7 C202.6,358 203.4,360.2 204.8,362 C204.9,362.2 205.1,362.3 205.2,362.5 C210.5,374 218,380.8 227.8,383.1 C221.1,386.9 214.7,393.3 211,404.6 C207.2,416 212,432.4 222,442 C228.8,448.5 236.8,450.2 243.3,451.6 L243.5,451.7 Z M230.3,411.2 C233,403.1 237.5,399.7 247.2,398.3 L247.4,398.3 C251,397.8 255,397.2 259.1,395.7 C267.3,392.7 271.5,384.8 269.9,375.7 C268.4,367.2 262,361.6 253.1,360.9 C249.8,360.7 246.3,361.1 242.9,362.1 C239.9,363 237.2,363.5 235,363.5 C231.4,363.5 227.5,362.7 223.4,353.3 C223.3,353 223.2,352.8 223,352.5 L223,347.7 C225.2,343 228.7,339.3 234,336.1 C244.7,329.8 242.5,318.2 241.7,314.4 C241.2,311.7 240.3,309.4 239.5,307.4 C239.2,306.7 239,306 238.7,305.3 C237.1,300.7 238.8,300 240.6,299.2 C252.6,293.9 257.9,284.5 256.5,271.5 C256.1,267.6 256.6,263.1 257.9,259.1 C258.4,257.5 259.3,257.5 259.6,257.5 C259.9,257.5 260.1,257.5 260.4,257.6 C262.9,258.3 265.4,258.6 267.8,258.6 C281.4,258.6 287.9,248 290,244.5 C292.8,239.9 296.3,237.1 300.6,235.9 C301.8,235.6 303,235.4 304.3,235.4 C310.6,235.4 316.3,240.1 318.4,247.1 C320.3,253.4 319.2,259.8 317.3,268.1 C314.8,279.4 312.8,296 324.8,310.4 C330.7,317.4 339.2,321.4 348.3,321.4 L348.6,321.4 L348.9,321.4 C358,321.4 366.5,317.4 372.4,310.4 C384.4,296 382.5,279.3 379.9,268.1 C378,259.7 376.8,253.3 378.8,247.1 C381,240.1 386.6,235.4 392.9,235.4 C394.1,235.4 395.3,235.6 396.6,235.9 C400.9,237.1 404.4,239.9 407.2,244.5 C409.3,248 415.8,258.6 429.4,258.6 C431.8,258.6 434.3,258.3 436.8,257.6 C437.1,257.5 437.4,257.5 437.6,257.5 C438,257.5 438.8,257.5 439.3,259.1 C440.6,263.1 441.1,267.6 440.7,271.5 C439.3,284.5 444.7,293.8 456.6,299.2 C458.4,300 460.1,300.8 458.5,305.3 C458.3,306 458,306.7 457.7,307.3 C456.9,309.3 456,311.6 455.5,314.3 C454.8,318.1 452.5,329.6 463.2,336 C468.5,339.1 472,342.8 474.2,347.6 L474.2,352.4 C474.1,352.6 474,352.9 473.8,353.2 C469.7,362.6 465.8,363.4 462.2,363.4 C462.2,363.4 462.2,363.4 462.2,363.4 C460,363.4 457.4,362.9 454.3,362 C450.9,361 447.4,360.6 444.1,360.8 C435.2,361.4 428.8,367.1 427.3,375.6 C425.7,384.8 430,392.6 438.1,395.6 C442.1,397.1 446.2,397.7 449.7,398.2 L449.9,398.2 C459.6,399.6 464,403 466.8,411.1 C467.9,414.2 465.7,422.6 461.1,427.1 C458.6,429.5 455.1,430.3 449.6,431.5 L449.2,431.6 C439.9,433.6 435.6,438.6 433.6,442.3 C431.6,446.1 430.1,452.4 433.7,461.2 C434.9,464 436.2,466.4 437.5,468.8 L438,469.8 C440.3,474 439.4,475.4 436.9,477.4 C435.4,478.6 433.9,479.6 432.2,480.5 C421.2,486.4 416.2,495.3 417.4,507 C417.5,508.4 417,511.4 415.3,514.4 C413.7,517.5 409.7,519.5 405.3,519.5 C404.5,519.5 403.7,519.4 402.9,519.3 C398.1,518.4 393,513.1 392.3,508.3 C391.8,505.1 391.6,501.8 391.3,498.2 C391,494.5 390.8,490.7 390.2,486.8 C388.6,475.8 382.1,468.5 372.6,466.6 C371.2,466.3 369.8,466.2 368.5,466.2 C363.4,466.2 356,468.1 349.6,477.2 C349.2,477.8 348.8,478.4 348.4,479 C348,478.4 347.6,477.8 347.2,477.2 C340.8,468.1 333.4,466.2 328.3,466.2 C326.9,466.2 325.5,466.3 324.2,466.6 C314.6,468.5 308.2,475.8 306.6,486.8 C306,490.7 305.8,494.5 305.5,498.2 C305.3,501.7 305,505.1 304.5,508.3 C303.7,513.1 298.7,518.4 293.9,519.3 C293.1,519.5 292.3,519.5 291.5,519.5 C287.2,519.5 283.2,517.4 281.5,514.4 C279.9,511.3 279.3,508.4 279.4,507 C280.6,495.4 275.6,486.5 264.6,480.5 C263,479.6 261.4,478.6 259.9,477.4 C257.4,475.4 256.5,474 258.8,469.8 L259.3,468.8 C260.6,466.4 261.9,464 263.1,461.2 C266.8,452.4 265.2,446.1 263.2,442.3 C261.2,438.5 256.9,433.6 247.6,431.6 L247.2,431.5 C241.7,430.3 238.2,429.4 235.7,427.1 C231.4,422.7 229.2,414.3 230.3,411.2 Z" id="Shape"></path>
            </g>
        </g>
    </g>
</svg>