<?xml version="1.0" encoding="UTF-8"?>
<svg width="698px" height="698px" viewBox="0 0 698 698" version="1.1" xmlns="http://www.w3.org/2000/svg" xmlns:xlink="http://www.w3.org/1999/xlink">
    <!-- Generator: Sketch 50 (54983) - http://www.bohemiancoding.com/sketch -->
    <title>gluten</title>
    <desc>Created with Sketch.</desc>
    <defs></defs>
    <g id="Page-1" stroke="none" stroke-width="1" fill="none" fill-rule="evenodd">
        <g id="gluten" fill="#000000" fill-rule="nonzero">
            <path d="M669.7,213.5 C652.2,172 627.1,134.8 595.1,102.9 C563.1,70.9 525.9,45.8 484.5,28.3 C441.6,10.1 396,0.9 349,0.9 C302,0.9 256.4,10.1 213.5,28.3 C172,45.8 134.8,70.9 102.9,102.9 C70.9,134.9 45.8,172.1 28.3,213.5 C10.1,256.4 0.9,302 0.9,349 C0.9,396 10.1,441.6 28.3,484.5 C45.8,526 70.9,563.2 102.9,595.1 C134.9,627.1 172.1,652.2 213.5,669.7 C256.4,687.9 302,697.1 349,697.1 C396,697.1 441.6,687.9 484.5,669.7 C526,652.2 563.2,627.1 595.1,595.1 C627.1,563.1 652.2,525.9 669.7,484.5 C687.9,441.6 697.1,396 697.1,349 C697.1,302 687.9,256.4 669.7,213.5 Z M20.9,349 C20.9,261.4 55,179 117,117 C179,55 261.4,20.9 349,20.9 C433.9,20.9 513.9,53 575.2,111.3 L425.1,261.5 L425.1,220.1 L425.1,219.3 L425.1,141.5 L425.1,140.7 L425.1,62.1 C425.1,56.4 420.5,51.8 414.8,51.8 C409.1,51.8 404.5,56.4 404.5,62.1 L404.5,140.7 L404.5,141.5 C404.5,168.5 384.9,191 359.2,195.5 L359.2,158.9 C359.2,153.2 354.6,148.6 348.9,148.6 C343.2,148.6 338.6,153.2 338.6,158.9 L338.6,195.5 C312.9,190.9 293.3,168.5 293.3,141.5 L293.3,140.7 L293.3,62.1 C293.3,56.4 288.7,51.8 283,51.8 C277.3,51.8 272.7,56.4 272.7,62.1 L272.7,140.7 L272.7,141.5 L272.7,219.3 L272.7,220.1 L272.7,297.9 L272.7,298.7 L272.7,376.5 L272.7,377.3 L272.7,413.5 L111.3,575.2 C53,513.9 20.9,433.9 20.9,349 Z M359.3,431.4 L359.3,373.5 C377,371.2 392.9,362.8 404.6,350.4 L404.6,376.6 L404.6,377.4 C404.5,404.3 385,426.8 359.3,431.4 Z M404.5,429 L404.5,456 C404.5,483 384.9,505.5 359.2,510 L359.2,452.1 C377,449.9 392.8,441.4 404.5,429 Z M359.3,352.7 L359.3,294.8 C377,292.5 392.9,284.1 404.6,271.7 L404.6,297.9 L404.6,298.7 C404.5,325.7 385,348.2 359.3,352.7 Z M359.3,274.1 L359.3,216.2 C377,213.9 392.9,205.5 404.6,193.1 L404.6,219.3 L404.6,220.1 C404.5,247 385,269.5 359.3,274.1 Z M293.5,377.4 L293.5,376.6 L293.5,350.4 C305.2,362.8 321,371.3 338.8,373.5 L338.8,431.4 C313,426.8 293.5,404.3 293.5,377.4 Z M338.7,452.1 L338.7,510 C313,505.4 293.4,483 293.4,456 L293.4,429 C305.2,441.4 321,449.9 338.7,452.1 Z M293.5,298.7 L293.5,297.9 L293.5,271.7 C305.2,284.1 321,292.6 338.8,294.8 L338.8,352.7 C313,348.2 293.5,325.7 293.5,298.7 Z M293.5,220.1 L293.5,219.3 L293.5,193.1 C305.2,205.5 321,214 338.8,216.2 L338.8,274.1 C313,269.5 293.5,247 293.5,220.1 Z M581,581 C519,643 436.6,677.1 349,677.1 C266.3,677.1 188.4,646.7 127.8,591.3 L273,446.1 L273,456 C273,494.3 301.7,526 338.8,530.8 L338.8,636.1 C338.8,641.8 343.4,646.4 349.1,646.4 C354.8,646.4 359.4,641.8 359.4,636.1 L359.4,530.8 C396.5,526.1 425.2,494.3 425.2,456 L425.2,377.4 L425.2,376.6 L425.2,298.8 L425.2,298 L425.2,294 L591.4,127.8 C646.8,188.4 677.2,266.4 677.2,349 C677.1,436.6 643,519 581,581 Z" id="Shape"></path>
        </g>
    </g>
</svg>