<?xml version="1.0" encoding="UTF-8"?>
<svg width="697px" height="697px" viewBox="0 0 697 697" version="1.1" xmlns="http://www.w3.org/2000/svg" xmlns:xlink="http://www.w3.org/1999/xlink">
    <!-- Generator: Sketch 50 (54983) - http://www.bohemiancoding.com/sketch -->
    <title>lacteos</title>
    <desc>Created with Sketch.</desc>
    <defs></defs>
    <g id="Page-1" stroke="none" stroke-width="1" fill="none" fill-rule="evenodd">
        <g id="lacteos" fill="#000000" fill-rule="nonzero">
            <g id="Group">
                <path d="M669.5,213 C652,171.5 626.9,134.3 594.9,102.4 C562.9,70.4 525.7,45.3 484.3,27.8 C441.4,9.6 395.8,0.4 348.8,0.4 C301.8,0.4 256.2,9.6 213.3,27.8 C171.8,45.3 134.6,70.4 102.7,102.4 C70.7,134.4 45.6,171.6 28.1,213 C9.9,255.9 0.7,301.5 0.7,348.5 C0.7,395.5 9.9,441.1 28.1,484 C45.6,525.5 70.7,562.7 102.7,594.6 C134.7,626.6 171.9,651.7 213.3,669.2 C256.2,687.4 301.8,696.6 348.8,696.6 C395.8,696.6 441.4,687.4 484.3,669.2 C525.8,651.7 563,626.6 594.9,594.6 C626.9,562.6 652,525.4 669.5,484 C687.7,441.1 696.9,395.5 696.9,348.5 C696.9,301.5 687.6,256 669.5,213 Z M20.6,348.5 C20.6,260.9 54.7,178.5 116.7,116.5 C178.7,54.5 261.1,20.4 348.7,20.4 C434,20.4 514.2,52.7 575.6,111.5 L446.6,240.5 C441.9,231.1 435.5,222.4 427.8,215.1 L427.3,214.6 C413,201 404.9,181.8 404.9,162.1 L404.9,160.1 L418.3,160.1 C424,160.1 428.6,155.5 428.6,149.8 L428.6,105 C428.6,99.3 424,94.7 418.3,94.7 L279.2,94.7 C273.5,94.7 268.9,99.3 268.9,105 L268.9,149.8 C268.9,155.5 273.5,160.1 279.2,160.1 L292.6,160.1 L292.6,162.1 C292.6,181.8 284.4,201 270.2,214.6 L269.7,215.1 C251.4,232.6 240.9,257.1 240.9,282.4 L240.9,446.4 L111.9,575.4 C52.9,514.1 20.6,433.8 20.6,348.5 Z M261.3,288.7 L261.3,282.4 C261.3,262.7 269.5,243.5 283.7,229.9 L284.2,229.4 C302.5,211.9 313,187.4 313,162.1 L313,160.1 L384.3,160.1 L384.3,162.1 C384.3,187.4 394.8,211.9 413.1,229.4 L413.6,229.9 C427.9,243.5 436,262.7 436,282.4 L436,288.7 L261.3,288.7 Z M436.1,309.2 L436.1,542.3 C436.1,564 418.4,581.7 396.7,581.7 L300.8,581.7 C279.1,581.7 261.4,564 261.4,542.3 L261.4,309.2 L436.1,309.2 Z M302.8,139.5 L289.4,139.5 L289.4,115.2 L408,115.2 L408,139.5 L394.6,139.5 L302.8,139.5 Z M580.7,580.5 C518.7,642.5 436.3,676.6 348.7,676.6 C266.4,676.6 188.7,646.5 128.2,591.5 L240.8,478.9 L240.8,542.3 C240.8,575.4 267.7,602.3 300.8,602.3 L396.7,602.3 C429.8,602.3 456.7,575.4 456.7,542.3 L456.7,282.4 C456.7,276.4 456.1,270.5 455,264.7 L591.7,128 C646.7,188.5 676.8,266.2 676.8,348.5 C676.8,436.2 642.7,518.6 580.7,580.5 Z" id="Shape"></path>
                <path d="M300.8,569.6 C306.5,569.6 311.1,565 311.1,559.3 C311.1,553.6 306.5,549 300.8,549 C297.1,549 294.1,546 294.1,542.3 L294.1,389.7 C294.1,384 289.5,379.4 283.8,379.4 C278.1,379.4 273.5,384 273.5,389.7 L273.5,542.4 C273.5,557.4 285.7,569.6 300.8,569.6 Z" id="Shape"></path>
            </g>
        </g>
    </g>
</svg>