<?xml version="1.0" encoding="UTF-8"?>
<svg width="144px" height="144px" viewBox="0 0 144 144" version="1.1" xmlns="http://www.w3.org/2000/svg" xmlns:xlink="http://www.w3.org/1999/xlink">
    <!-- Generator: Sketch 50.2 (55047) - http://www.bohemiancoding.com/sketch -->
    <title>Untitled</title>
    <desc>Created with Sketch.</desc>
    <defs></defs>
    <g id="Page-1" stroke="none" stroke-width="1" fill="none" fill-rule="evenodd">
        <path d="M92.2674319,49.687231 C91.2964132,47.7451937 89.974175,45.9477762 88.3833572,44.4395983 L88.2800574,44.3362984 C85.3256815,41.5265423 83.6522238,37.5598278 83.6522238,33.4898135 L83.6522238,33.0766141 L86.42066,33.0766141 C87.5982783,33.0766141 88.548637,32.1262554 88.548637,30.948637 L88.548637,21.6929699 C88.548637,20.5153515 87.5982783,19.5649928 86.42066,19.5649928 L57.6826399,19.5649928 C56.5050215,19.5649928 55.5546628,20.5153515 55.5546628,21.6929699 L55.5546628,30.948637 C55.5546628,32.1262554 56.5050215,33.0766141 57.6826399,33.0766141 L60.451076,33.0766141 L60.451076,33.4898135 C60.451076,37.5598278 58.7569584,41.5265423 55.8232425,44.3362984 L55.7199426,44.4395983 C51.9391679,48.0550933 49.7698709,53.1167862 49.7698709,58.343759 L49.7698709,92.2261119 L49.7492109,98.9406026 L49.7492109,112.039024 C49.7492109,118.877475 55.3067432,124.435007 62.1451937,124.435007 L81.9581062,124.435007 C88.7965567,124.435007 94.354089,118.877475 94.354089,112.039024 L94.354089,58.343759 C94.354089,57.1041607 94.2301291,55.8852224 94.0028694,54.686944 L92.2674319,49.687231 Z M59.789957,28.82066 L59.789957,23.8002869 L84.2926829,23.8002869 L84.2926829,28.82066 L81.5242468,28.82066 L62.5583931,28.82066 L59.789957,28.82066 Z M53.984505,58.343759 C53.984505,54.2737446 55.6786227,50.3070301 58.6123386,47.497274 L58.7156385,47.3939742 C62.4964132,43.7784792 64.6657102,38.7167862 64.6657102,33.4898135 L64.6657102,33.0766141 L79.3962697,33.0766141 L79.3962697,33.4898135 C79.3962697,38.7167862 81.5655667,43.7784792 85.3463415,47.3939742 L85.4496413,47.497274 C88.4040172,50.3070301 90.0774749,54.2737446 90.0774749,58.343759 L90.0774749,59.6453372 L53.984505,59.6453372 L53.984505,58.343759 Z M90.0981349,112.039024 C90.0981349,116.522238 86.4413199,120.179053 81.9581062,120.179053 L62.1451937,120.179053 C57.6619799,120.179053 54.005165,116.522238 54.005165,112.039024 L54.005165,63.8806313 L90.0981349,63.8806313 L90.0981349,112.039024 Z M62.1451937,117.679197 C63.3228121,117.679197 64.2731707,116.728838 64.2731707,115.55122 C64.2731707,114.373601 63.3228121,113.423242 62.1451937,113.423242 C61.3807747,113.423242 60.7609756,112.803443 60.7609756,112.039024 L60.7609756,80.5119082 C60.7609756,79.3342898 59.8106169,78.3839311 58.6329986,78.3839311 C57.4553802,78.3839311 56.5050215,79.3342898 56.5050215,80.5119082 L56.5050215,112.059684 C56.5050215,115.15868 59.025538,117.679197 62.1451937,117.679197 Z M138.318508,44.0057389 C134.703013,35.4318508 129.51736,27.7463415 122.906169,21.1558106 C116.294978,14.5446198 108.609469,9.358967 100.056241,5.74347202 C91.1931133,1.98335725 81.7721664,0.0826398852 72.0619799,0.0826398852 C62.3517934,0.0826398852 52.9308465,1.98335725 44.0677188,5.74347202 C35.4938307,9.358967 27.8083214,14.5446198 21.2177905,21.1558106 C14.6065997,27.7670014 9.42094692,35.4525108 5.80545194,44.0057389 C2.04533716,52.8688666 0.144619799,62.2898135 0.144619799,72 C0.144619799,81.7101865 2.04533716,91.1311334 5.80545194,99.9942611 C9.42094692,108.568149 14.6065997,116.253659 21.2177905,122.844189 C27.8289813,129.45538 35.5144907,134.641033 44.0677188,138.256528 C52.9308465,142.016643 62.3517934,143.91736 72.0619799,143.91736 C81.7721664,143.91736 91.1931133,142.016643 100.056241,138.256528 C108.630129,134.641033 116.315638,129.45538 122.906169,122.844189 C129.51736,116.232999 134.703013,108.547489 138.318508,99.9942611 C142.078623,91.1311334 143.97934,81.7101865 143.97934,72 C143.97934,62.2898135 142.057963,52.8895265 138.318508,44.0057389 Z M119.972453,119.931133 C107.163271,132.740316 90.1394548,139.785366 72.0413199,139.785366 C55.0381636,139.785366 38.9853659,133.566714 26.4860832,122.20373 L23.1185079,118.877475 C10.9291248,106.212912 4.25595409,89.6229555 4.25595409,72 C4.25595409,53.9018651 11.3010043,36.8780488 24.1101865,24.0688666 C36.9193687,11.2596844 53.9431851,4.21463415 72.0413199,4.21463415 C89.6642755,4.21463415 106.233572,10.8878049 118.918795,23.035868 L122.24505,26.4447633 C133.608034,38.9440459 139.826686,54.9968436 139.826686,72 C139.826686,90.1187948 132.781636,107.142611 119.972453,119.931133 Z" id="Shape" fill="#000000" fill-rule="nonzero"></path>
    </g>
</svg>