<?xml version="1.0" encoding="UTF-8"?>
<svg width="698px" height="698px" viewBox="0 0 698 698" version="1.1" xmlns="http://www.w3.org/2000/svg" xmlns:xlink="http://www.w3.org/1999/xlink">
    <!-- Generator: Sketch 50 (54983) - http://www.bohemiancoding.com/sketch -->
    <title>pescado</title>
    <desc>Created with Sketch.</desc>
    <defs></defs>
    <g id="Page-1" stroke="none" stroke-width="1" fill="none" fill-rule="evenodd">
        <g id="pescado" fill="#000000" fill-rule="nonzero">
            <g id="Group">
                <path d="M669.7,213.5 C652.2,172 627.1,134.8 595.1,102.9 C563.1,70.9 525.9,45.8 484.5,28.3 C441.6,10.1 396,0.9 349,0.9 C302,0.9 256.4,10.1 213.5,28.3 C172,45.8 134.8,70.9 102.9,102.9 C70.9,134.9 45.8,172.1 28.3,213.5 C10.1,256.4 0.9,302 0.9,349 C0.9,396 10.1,441.6 28.3,484.5 C45.8,526 70.9,563.2 102.9,595.1 C134.9,627.1 172.1,652.2 213.5,669.7 C256.4,687.9 302,697.1 349,697.1 C396,697.1 441.6,687.9 484.5,669.7 C526,652.2 563.2,627.1 595.1,595.1 C627.1,563.1 652.2,525.9 669.7,484.5 C687.9,441.6 697.1,396 697.1,349 C697.1,302 687.9,256.4 669.7,213.5 Z M20.9,349 C20.9,261.4 55,179 117,117 C179,55 261.4,20.9 349,20.9 C433.5,20.9 513.2,52.7 574.3,110.5 L448.8,236.1 C412.9,219.8 374.9,211.2 336.4,211.2 C292.3,211.2 249.3,222.1 208.6,243.5 C166.7,265.6 129.2,297.9 97.1,339.7 L94.8,342.7 C92,346.4 92,351.5 94.8,355.2 L97.1,358.2 C129.2,400 166.7,432.3 208.6,454.4 C213.4,456.9 218.3,459.3 223.2,461.6 L110.6,574.3 C52.7,513.2 20.9,433.5 20.9,349 Z M284.1,237.3 C301.2,233.6 318.7,231.7 336.5,231.7 C372,231.7 406.9,239.4 440.3,254.6 C474.8,270.3 506.7,293.5 535.2,323.7 C537.1,325.7 539.7,326.9 542.5,326.9 C545.3,326.9 547.9,325.9 549.9,323.9 L584.8,289 L584.8,408.9 L549.9,374 C547.9,372 545.3,371 542.5,371 C539.7,371 537.1,372.2 535.2,374.2 C506.7,404.4 474.8,427.6 440.3,443.3 C406.9,458.5 371.9,466.2 336.5,466.2 C318.8,466.2 301.3,464.3 284.1,460.6 C294.3,424.9 299.4,387.4 299.4,348.9 C299.4,310.6 294.2,273.1 284.1,237.3 Z M115.9,349 C157.7,295.8 208.7,259.4 264.2,242.5 C273.9,276.5 278.9,312.3 278.9,349 C278.9,385.7 274,421.4 264.2,455.5 C208.7,438.6 157.7,402.2 115.9,349 Z M581,581 C519,643 436.6,677.1 349,677.1 C266,677.1 187.6,646.4 126.9,590.5 L246.3,471.1 C275.5,481.5 305.7,486.8 336.4,486.8 C374.8,486.8 412.6,478.5 448.7,462.1 C482.7,446.7 514.3,424.4 542.7,396 L587.7,441 C590.6,443.9 595.1,444.8 598.9,443.2 C602.7,441.6 605.2,437.9 605.2,433.7 L605.2,264.3 C605.2,260.1 602.7,256.4 598.9,254.8 C595.1,253.2 590.6,254.1 587.7,257 L542.7,302 C520.4,279.7 496.1,261.3 470.4,246.9 L590.5,126.8 C646.4,187.5 677.1,265.8 677.1,348.9 C677.1,436.6 643,519 581,581 Z" id="Shape"></path>
                <path d="M213.7,288.2 C195.1,288.2 180,303.3 180,321.9 C180,340.5 195.1,355.6 213.7,355.6 C232.3,355.6 247.4,340.5 247.4,321.9 C247.4,303.3 232.3,288.2 213.7,288.2 Z M213.7,335 C206.5,335 200.6,329.1 200.6,321.9 C200.6,314.7 206.5,308.8 213.7,308.8 C220.9,308.8 226.8,314.7 226.8,321.9 C226.9,329.1 221,335 213.7,335 Z" id="Shape"></path>
            </g>
        </g>
    </g>
</svg>