<?xml version="1.0" encoding="UTF-8"?>
<svg width="698px" height="698px" viewBox="0 0 698 698" version="1.1" xmlns="http://www.w3.org/2000/svg" xmlns:xlink="http://www.w3.org/1999/xlink">
    <!-- Generator: Sketch 50 (54983) - http://www.bohemiancoding.com/sketch -->
    <title>soja</title>
    <desc>Created with Sketch.</desc>
    <defs></defs>
    <g id="Page-1" stroke="none" stroke-width="1" fill="none" fill-rule="evenodd">
        <g id="soja" fill="#000000" fill-rule="nonzero">
            <g id="Group">
                <path d="M669.7,213.5 C652.2,172 627.1,134.8 595.1,102.9 C563.1,70.9 525.9,45.8 484.5,28.3 C441.6,10.1 396,0.9 349,0.9 C302,0.9 256.4,10.1 213.5,28.3 C172,45.8 134.8,70.9 102.9,102.9 C70.9,134.9 45.8,172.1 28.3,213.5 C10.1,256.4 0.9,302 0.9,349 C0.9,396 10.1,441.6 28.3,484.5 C45.8,526 70.9,563.2 102.9,595.1 C134.9,627.1 172.1,652.2 213.5,669.7 C256.4,687.9 302,697.1 349,697.1 C396,697.1 441.6,687.9 484.5,669.7 C526,652.2 563.2,627.1 595.1,595.1 C627.1,563.1 652.2,525.9 669.7,484.5 C687.9,441.6 697.1,396 697.1,349 C697.1,302 687.9,256.4 669.7,213.5 Z M20.9,349 C20.9,261.4 55,179 117,117 C179,55 261.4,20.9 349,20.9 C434.1,20.9 514.3,53.1 575.6,111.7 L467.6,219.7 L473.9,199.2 C479.2,182.2 478.4,163.8 471.7,147.3 C465.8,132.7 455.5,120.1 442.4,111.5 L436.9,86.7 C436.1,83.1 433.4,80.2 429.9,79.1 C426.4,78 422.5,78.9 419.8,81.4 L401.6,98.4 C400.5,98.4 399.5,98.3 398.4,98.3 C364.2,98.3 334.5,120.3 324.4,152.9 L310.5,197.7 C304.2,218.1 306.6,239.9 316.8,258.2 C298.1,267.6 283.8,284.2 277.5,304.6 L263.6,349.4 C257.3,369.8 259.7,391.6 269.9,409.9 C251.2,419.3 236.9,435.9 230.6,456.3 L111.6,575.3 C53.1,514.3 20.9,434.1 20.9,349 Z M397.2,292.1 C409.3,306.9 413.1,326.7 407.5,344.9 L393.6,389.7 C388,407.9 373.7,422.1 355.3,427.5 C352,428.5 349.4,431 348.4,434.3 C347.4,437.6 348.1,441.1 350.2,443.8 C362.3,458.6 366.1,478.4 360.5,496.6 L346.6,541.4 C339.2,565.4 317.3,581.6 292.2,581.6 C286.5,581.6 280.8,580.7 275.4,579 L274.1,578.6 C244.1,569.3 227.2,537.4 236.5,507.3 L250.4,462.5 C256,444.3 270.3,430.1 288.7,424.7 C292,423.7 294.6,421.2 295.6,417.9 C296.6,414.6 295.9,411.1 293.8,408.4 C281.7,393.6 277.9,373.8 283.5,355.6 L297.4,310.8 C303,292.6 317.3,278.4 335.7,273 C339,272 341.6,269.5 342.6,266.2 C343.6,262.9 342.9,259.4 340.8,256.7 C328.7,241.9 324.9,222.1 330.5,203.9 L344.4,159.1 C351.8,135.1 373.7,118.9 398.8,118.9 C400.8,118.9 402.7,119 404.7,119.2 C407.9,119.5 411,118.4 413.2,116.1 L421.1,108.7 L423.1,117.6 C423.1,118.1 423.1,118.5 423.2,119 C423.6,122.2 425.5,125.1 428.3,126.7 C451.4,139.8 462.5,167.7 454.7,193.1 L440.5,238 C438.3,245 434.9,251.4 430.4,256.9 L421.9,265.4 C416.2,270 409.5,273.6 402.2,275.8 C398.9,276.8 396.3,279.3 395.3,282.6 C394.3,285.9 395,289.5 397.2,292.1 Z M581,581 C519,643 436.6,677.1 349,677.1 C266.5,677.1 188.7,646.9 128.2,591.7 L216.3,503.6 C205.1,543.8 228,586 268.1,598.4 L269.4,598.8 C276.9,601.1 284.6,602.3 292.3,602.3 C292.3,602.3 292.3,602.3 292.3,602.3 C326.5,602.3 356.2,580.3 366.3,547.7 L380.2,502.9 C386.5,482.5 384.1,460.7 373.9,442.4 C392.6,433 406.9,416.4 413.2,396 L427.1,351.2 C432.8,332.9 431.4,313.5 423.7,296.4 L591.7,128.4 C646.9,188.9 677.1,266.7 677.1,349.2 C677.1,436.6 643,519 581,581 Z" id="Shape"></path>
                <path d="M432.2,232.5 L444.4,193.1 C452.1,168.1 438.1,141.4 413,133.7 L411.9,133.3 C407.3,131.9 402.6,131.2 397.9,131.2 C376.9,131.2 358.7,144.7 352.5,164.7 L340.3,204.1 C336.6,216.2 337.8,229.1 343.7,240.3 C349.6,251.5 359.6,259.8 371.7,263.5 L372.8,263.9 C377.4,265.3 382.1,266 386.8,266 C407.7,266 426,252.5 432.2,232.5 Z M386.8,245.4 C384.1,245.4 381.4,245 378.9,244.2 L377.8,243.8 C370.9,241.7 365.3,237 361.9,230.6 C358.5,224.2 357.8,216.9 360,210 L372.2,170.6 C375.7,159.4 386.3,151.6 398,151.6 C400.7,151.6 403.4,152 405.9,152.8 L407,153.2 C421.2,157.6 429.2,172.7 424.8,186.9 L412.6,226.3 C409.1,237.6 398.5,245.4 386.8,245.4 Z" id="Shape"></path>
                <path d="M366.1,285.4 L365,285 C360.4,283.6 355.7,282.9 351,282.9 C330,282.9 311.8,296.4 305.6,316.4 L293.4,355.8 C285.7,380.8 299.7,407.5 324.8,415.2 L325.9,415.6 C330.5,417 335.2,417.7 339.9,417.7 C360.9,417.7 379.1,404.2 385.3,384.2 L397.5,344.8 C401.2,332.7 400,319.8 394.1,308.6 C388.2,297.4 378.2,289.1 366.1,285.4 Z M377.9,338.7 L365.7,378.1 C362.2,389.3 351.6,397.1 339.9,397.1 C337.2,397.1 334.5,396.7 332,395.9 L330.9,395.5 C324,393.4 318.4,388.7 315,382.3 C311.6,375.9 310.9,368.6 313.1,361.7 L325.3,322.3 C328.8,311.1 339.4,303.3 351.1,303.3 C353.8,303.3 356.5,303.7 359,304.5 L360.1,304.9 C367,307 372.6,311.7 376,318.1 C379.3,324.6 380,331.9 377.9,338.7 Z" id="Shape"></path>
                <path d="M319.2,437.1 L318.1,436.7 C313.5,435.3 308.8,434.6 304.1,434.6 C283.1,434.6 264.9,448.1 258.7,468.1 L246.5,507.5 C238.8,532.5 252.8,559.2 277.9,566.9 L279,567.3 C283.6,568.7 288.3,569.4 293,569.4 C314,569.4 332.2,555.9 338.4,535.9 L350.6,496.5 C354.3,484.4 353.1,471.5 347.2,460.3 C341.3,449.1 331.3,440.9 319.2,437.1 Z M331,490.5 L318.8,529.9 C315.3,541.1 304.7,548.9 293,548.9 C290.3,548.9 287.6,548.5 285.1,547.7 L284,547.3 C269.8,542.9 261.8,527.8 266.2,513.6 L278.4,474.2 C281.9,463 292.5,455.2 304.2,455.2 C306.9,455.2 309.6,455.6 312.1,456.4 L313.2,456.8 C320.1,458.9 325.7,463.6 329.1,470 C332.4,476.3 333.1,483.6 331,490.5 Z" id="Shape"></path>
            </g>
        </g>
    </g>
</svg>