<?xml version="1.0" encoding="utf-8"?>
<!-- Generator: Adobe Illustrator 22.1.0, SVG Export Plug-In . SVG Version: 6.00 Build 0)  -->
<svg version="1.1" id="Capa_1" xmlns="http://www.w3.org/2000/svg" xmlns:xlink="http://www.w3.org/1999/xlink" x="0px" y="0px"
	 viewBox="0 0 283.5 283.5" style="enable-background:new 0 0 283.5 283.5;" xml:space="preserve">
<style type="text/css">
	.st0{fill:#4F5A2D;}
</style>
<g>
	<path class="st0" d="M142.4,153.1c0.9,1,1.8,1.9,2.5,2.9c8.5,10.6,14.6,22.4,17.1,35.8c2.2,11.8-0.3,22.6-8.3,31.8
		c-7.2,8.3-14.6,8.5-22.1,0.6c-6.6-6.9-9.3-15.4-9.5-24.8c0-0.7,0.3-1.6,0.8-2.2c8.8-11,13.4-23.8,15.7-37.5
		C139,156.8,140.5,155.1,142.4,153.1"/>
	<path class="st0" d="M142.2,132.5c-6.5-7.2-11.4-15.3-15.1-24.2c-2.9-7-5.2-14.2-5-21.9c0.2-9.9,3.3-18.6,10.5-25.7
		c6.5-6.4,13.1-6.4,19.6,0c7.3,7.1,10.2,16,10.5,25.9c0,0.7-0.3,1.5-0.8,2c-8.8,11-13.3,23.8-15.9,37.4c-0.4,2.3-1.9,4.4-2.8,6.6
		C142.9,132.6,142.5,132.5,142.2,132.5"/>
	<path class="st0" d="M152.7,142.8c5-4.6,10.4-8.4,16.3-11.5c9.4-4.9,19.1-8.8,29.9-8.8c9,0.1,17.2,2.9,24.1,8.9
		c8.4,7.4,8.4,15.3,0.1,22.7c-6.9,6.1-15.2,8.8-24.3,9c-0.7,0-1.6-0.4-2.2-0.8c-11-8.7-23.8-13.4-37.5-15.7
		C156.3,146.2,154.5,144.8,152.7,142.8"/>
	<path class="st0" d="M132,143.1c-7.8,7-16.6,12.2-26.4,15.9c-8,3-16.2,5.1-24.9,3.8c-8.4-1.3-15.8-4.6-21.5-11.1
		c-5.4-6.2-5.3-11.9,0.3-18c7.1-7.7,16.2-10.8,26.5-11.1c0.7,0,1.6,0.4,2.2,0.9c11,8.7,23.9,13.2,37.5,15.8c2.2,0.4,4.3,1.9,6.4,2.8
		C132.1,142.4,132,142.7,132,143.1"/>
	<path class="st0" d="M134.8,135.9c-5-0.8-9.9-1.4-14.7-2.5c-11.5-2.8-22.5-7-31.3-15.4c-7.5-7.2-11.7-15.9-11.5-26.5
		c0.2-11.4,6.4-13.8,15.2-13.7c9.3,0.2,17.2,4.2,23.9,10.5c0.6,0.5,1.1,1.3,1.2,2.1c1.6,14.1,7.3,26.5,15.5,37.9
		C134.9,130.5,135.2,132.7,134.8,135.9"/>
	<path class="st0" d="M150,150.2c7.6,0.2,14.8,1.7,21.8,4.2c9.7,3.3,19,7.5,26,15.3c6.7,7.4,10.2,16.1,9.5,26.3
		c-0.5,7.3-4.5,11.3-11.8,11.8c-10.9,0.8-19.8-3.4-27.6-10.7c-0.4-0.4-0.8-1.1-0.9-1.7c-1.5-14.1-7.4-26.4-15.4-37.9
		C149.6,154.7,149.5,154.2,150,150.2"/>
	<path class="st0" d="M149.7,135.3c0.3-8.8,2.2-17.1,5.3-25.1c3.5-9.2,7.9-17.9,15.8-24.2c6.9-5.5,14.6-8.4,23.6-8.1
		c8.4,0.3,12.6,4.5,13,12.9c0.4,10.3-3.5,18.8-10.4,26.2c-0.6,0.6-1.5,1.2-2.3,1.3c-14,1.6-26.3,7.4-37.6,15.3
		C154.2,135.6,153.9,135.7,149.7,135.3"/>
	<path class="st0" d="M135.3,150.4c-0.6,4.3-1.1,8.4-1.9,12.5c-2.2,10.4-5.8,20.2-12.1,28.9c-7.4,10.2-17.2,16.2-30.1,16.1
		c-11.4-0.1-14-6.1-13.9-15c0.1-9.4,4.1-17.4,10.5-24.2c0.5-0.6,1.3-1.1,2.1-1.2c13.9-1.6,26.2-7.2,37.4-15.2
		C129.6,150.7,131.9,150,135.3,150.4"/>
	<g>
		<path class="st0" d="M193.5,248.4c-2.1,1-1.9,3.7-0.8,5.8l5.7-2.8C196.9,248.5,195.3,247.5,193.5,248.4z"/>
		<path class="st0" d="M19.6,102.5c-2.8-0.8-3.8,0.5-4.5,3l-0.5,1.8l7.1,2l0.5-1.8C22.8,105.1,22.1,103.2,19.6,102.5z"/>
		<path class="st0" d="M127,26.1c0.1,1.7,1.3,2.7,3,2.6c2.6-0.2,3.5-2.2,3.2-5.5l-0.1-1l-0.4,0C129,22.5,126.8,23.4,127,26.1z"/>
		<path class="st0" d="M72.1,48c1,1.4,2.5,1.7,3.9,0.7c2.2-1.5,1.8-3.7-0.1-6.4l-0.6-0.9L75,41.7C71.9,43.9,70.5,45.8,72.1,48z"/>
		<path class="st0" d="M70.6,248.6c-0.9,1.4-0.6,3,0.9,3.9c2.2,1.4,4.1,0.3,5.9-2.5l0.6-0.9l-0.3-0.2
			C74.3,246.9,72,246.4,70.6,248.6z"/>
		<path class="st0" d="M32.8,88l2.9-5.7c-2.9-1.5-4.9-1.3-5.8,0.5C28.9,84.9,30.6,86.9,32.8,88z"/>
		<path class="st0" d="M34,184c2.7-1,2.9-2.6,2-5l-0.6-1.8l-6.9,2.5l0.6,1.8C29.9,183.7,31.6,184.8,34,184z"/>
		<path class="st0" d="M130.9,269.9c-0.1,1.7,0.9,2.9,2.7,3c2.6,0.1,3.7-1.8,3.9-5.1l0.1-1l-0.4,0
			C133.4,266.6,131.1,267.2,130.9,269.9z"/>
		<path class="st0" d="M193.6,27.4c-2.1-1-4,0.8-5.1,3l5.7,2.8C195.6,30.2,195.4,28.3,193.6,27.4z"/>
		<path class="st0" d="M40.4,202.1c-1.2-2-3.8-1.6-5.9-0.4l3.2,5.5C40.5,205.6,41.4,203.8,40.4,202.1z"/>
		<path class="st0" d="M232.8,73.3c-1.4,0.9-1.7,2.5-0.8,3.9c1.5,2.2,3.6,1.9,6.4,0.1l0.9-0.6l-0.2-0.3
			C236.9,73.3,235,71.8,232.8,73.3z"/>
		<path class="st0" d="M249,106.8c-1.6,0.4-2.5,1.8-2,3.4c0.7,2.6,2.8,3,6,2.2l1-0.3l-0.1-0.4C252.9,108.1,251.6,106.1,249,106.8z"
			/>
		<path class="st0" d="M263.4,174.7l-1-0.3l-0.1,0.4c-1.1,3.6-0.9,6,1.7,6.8c1.6,0.5,3-0.3,3.5-1.9
			C268.1,177.1,266.5,175.7,263.4,174.7z"/>
		<path class="st0" d="M247,211.2l-0.9-0.6l-0.2,0.3c-2.1,3.1-2.8,5.4-0.6,6.9c1.4,1,3,0.7,3.9-0.7C250.8,215,249.7,213.1,247,211.2
			z"/>
		<path class="st0" d="M142.1,0.7C64,0.7,0.7,64,0.7,142.1c0,78.1,63.3,141.4,141.4,141.4c78.1,0,141.4-63.3,141.4-141.4
			C283.5,64,220.2,0.7,142.1,0.7z M270.5,136.3c1.7,1.7,2.5,3.7,2.5,6.1c0,2.3-0.8,4.2-2.5,5.8c-1.6,1.6-3.6,2.4-5.9,2.4
			c-2.3,0-4.3-0.8-6-2.5c-1.6-1.7-2.5-3.7-2.5-6c0-2.3,0.8-4.3,2.4-5.9c1.6-1.6,3.6-2.5,5.9-2.5
			C266.8,133.8,268.8,134.7,270.5,136.3z M262.6,106.9c1.4,5.5-0.9,7.5-5.4,8.7l-7.8,2c-1.3,0.3-2.4,0.8-3.1,1.1l-1-3.9
			c0.6-0.4,1.5-0.6,2.4-0.9l0-0.1c-1.7-0.7-3.3-1.7-4-4.3c-0.7-2.8,0.5-5.8,3.9-6.7c4.9-1.3,7.1,2.4,8.5,7.8l0.2,0.9l0.7-0.2
			c1.8-0.5,3.2-1.7,2.5-4.2c-0.6-2.1-2.1-3.8-3-4.4l3.4-1.1C260.7,102.7,261.9,104.2,262.6,106.9z M253.9,83.8l1.6,3.7
			c-1,0.5-2,1-3,1.5l0,0.1c1.5-0.1,4.1,0.3,5.2,2.8c0.1,0.3,0.1,0.5,0.2,0.7l-3.8,1.7c-0.1-0.4-0.2-0.8-0.3-1.2
			c-0.7-1.7-2.6-3.1-5.7-1.7l-9.2,4.1l-1.8-4.1l14.1-6.2C252.2,84.7,253.2,84.2,253.9,83.8z M241.4,64.9c1.2,0.7,2.8,1.8,4.4,4.1
			c3.2,4.8,1.6,7.4-2.3,10l-6.7,4.4c-1.1,0.7-2,1.5-2.6,2l-2.2-3.3c0.5-0.6,1.2-1.1,2-1.6l0-0.1c-1.9-0.1-3.7-0.6-5.2-2.8
			c-1.6-2.4-1.4-5.7,1.5-7.6c4.2-2.8,7.5,0,10.6,4.6l0.5,0.7l0.6-0.4c1.5-1,2.4-2.7,1-4.8c-1.2-1.9-3.2-2.9-4.3-3.2L241.4,64.9z
			 M217,45.7c5.2-5.3,12-6.2,17.8-0.6c2.1,2,3.2,4,3.6,5l-3,2.8c-0.4-1.7-1.4-3.5-3.1-5.1c-3.5-3.4-8.2-2.3-11.8,1.4
			c-3.9,4-4.6,8.4-1.2,11.6c0.8,0.7,1.6,1.3,2.2,1.5l4.7-4.8l-2.7-2.6l2.4-2.5l5.8,5.6l-9.1,9.4c-1.4-0.4-3.4-1.5-5.7-3.8
			C211.1,57.9,211.8,51,217,45.7z M183.8,30.3c2.4-5,6.8-7.6,11.1-5.5c3.6,1.7,5.6,5.3,2.4,12.1l-0.4,0.8l-9.6-4.6
			c-1.4,2.8-1.1,5.1,2,6.6c2.5,1.2,4,1,5,0.8l-1.3,3.3c-1,0-3.1-0.2-5.5-1.3C182.1,39.7,181.7,34.7,183.8,30.3z M168.8,19l0.9-3.1
			l2.8,0.8l1.1-3.6l4.6-0.1l-1.4,5l3.5,1l-0.9,3.1l-3.5-1l-2.6,9.2c-0.5,1.9,0,2.6,1.2,3c0.8,0.2,1.4,0.2,1.7,0.1l-0.9,3
			c-0.7,0.1-1.7,0.1-3-0.2c-3.2-0.9-4.5-2.9-3.5-6.6l2.8-9.7L168.8,19z M146.4,15.5c0.1-1.1,0.2-2.2,0.2-3l4.1,0.5
			c-0.1,0.9-0.1,1.9-0.2,2.8l0.1,0c0.8-1,2.2-2.9,5.2-2.6c4.2,0.5,5.1,3.7,4.7,7.4l-1.3,11.8l-4.4-0.5l1.2-11
			c0.3-2.8-0.3-4.1-2.1-4.3c-2.3-0.3-3.3,1.6-3.6,4l-1.2,10.7l-4.4-0.5L146.4,15.5z M133,19.2c-0.1-1.8-1.1-3.4-3.7-3.3
			c-2.2,0.1-4.1,1.4-4.9,2.1l-0.5-3.6c1.2-0.7,2.9-1.6,5.7-1.8c5.7-0.4,7.2,2.3,7.5,6.9l0.5,8c0.1,1.3,0.3,2.5,0.5,3.2l-4,0.3
			c-0.3-0.7-0.4-1.6-0.4-2.5l-0.1,0c-1,1.6-2.3,3-5,3.1c-2.9,0.2-5.6-1.6-5.9-5c-0.3-5,3.6-6.5,9.3-6.9l0.9-0.1L133,19.2z M109,16.4
			c0.3,1.1,0.7,2.2,1,3.2l0.1,0c0.2-1.5,1-4,3.7-4.7c0.3-0.1,0.5-0.1,0.8-0.1l1,4c-0.4,0-0.8,0-1.3,0.1c-1.8,0.4-3.4,2-2.6,5.3
			l2.5,9.8l-4.3,1.1L106,20.3c-0.3-1.1-0.6-2.1-0.9-2.9L109,16.4z M86.5,24.5l4.5,10.1c1.1,2.6,2.3,3.3,4,2.6c2.2-1,1.9-3.2,1-5.4
			l-4.3-9.7l4.1-1.8l6.2,14.1c0.5,1,0.9,2,1.4,2.7l-3.8,1.7c-0.4-0.8-0.9-1.7-1.3-2.5l-0.1,0l0,0c-0.2,1.6-0.6,3.7-3.2,4.8
			c-3.8,1.7-6.2-0.7-7.7-4.1l-4.8-10.9L86.5,24.5z M67.4,35.2c4.7-3.3,7.4-1.8,10,2l4.6,6.6c0.8,1.1,1.6,2,2.1,2.5l-3.3,2.3
			c-0.6-0.5-1.1-1.2-1.6-1.9l-0.1,0c0,1.9-0.5,3.7-2.6,5.2c-2.3,1.6-5.6,1.5-7.6-1.3c-2.9-4.1-0.2-7.5,4.4-10.7l0.7-0.5L73.6,39
			c-1-1.5-2.7-2.4-4.8-0.9c-1.8,1.3-2.8,3.3-3.1,4.4l-2.3-2.8C64.1,38.5,65.1,36.8,67.4,35.2z M49.3,43.8l3.6,3.7l2.6-2.6l2.3,2.3
			l-2.6,2.6l6.7,6.8c1.4,1.4,2.3,1.3,3.2,0.4c0.6-0.5,0.8-1.1,0.9-1.5l2.2,2.2c-0.3,0.7-0.7,1.6-1.7,2.5c-2.4,2.3-4.7,2.5-7.4-0.2
			L52,52.9l-2.1,2.1l-2.3-2.3l2.1-2.1l-2.7-2.7L49.3,43.8z M39.1,62.5c1.4-1.9,3-3,3.4-3.2l2.6,2.3c-1,0.6-2,1.3-3,2.6
			c-1.1,1.4-1,2.4-0.1,3.1c0.8,0.6,1.7,0.3,3.1-0.2l2.4-0.9c2.5-0.9,4.1-1.2,5.8,0c2.7,2,2.6,5.6,0.2,8.8c-1.4,1.8-2.9,3-3.8,3.6
			l-2.8-2.4c0.7-0.4,2.5-1.3,3.7-3c1-1.3,1.4-2.5,0.3-3.4c-0.6-0.4-1.3-0.6-3,0.2l-2,0.8c-2,0.8-4.2,1.7-6.5,0
			C37.4,69.2,36.8,65.6,39.1,62.5z M27.2,81.5c1.8-3.5,5.4-5.5,12.1-2.1l0.8,0.4l-4.8,9.5c2.8,1.4,5.1,1.2,6.6-1.9
			c1.2-2.4,1.1-3.9,0.9-5l3.2,1.4c-0.1,1-0.2,3.1-1.4,5.4c-2.7,5.3-7.7,5.7-12.1,3.4C27.6,90.2,25.1,85.7,27.2,81.5z M12.1,103.3
			c1.2-4.3,3.9-6.6,8.3-5.4c3.1,0.9,4.7,3.4,4.4,6.2l0.1,0c0.4-0.9,1.1-1.7,3.5-1.9l10-0.6l-1.3,4.7l-8.5,0.2c-2.1,0.1-3,1-3.4,2.7
			l-0.3,1l10.3,2.9l-1.2,4.4L10,110.8L12.1,103.3z M31.4,142.4c0,2.3-0.8,4.2-2.5,5.8c-1.6,1.6-3.6,2.4-5.9,2.4
			c-2.3,0-4.3-0.8-6-2.5c-1.7-1.7-2.5-3.7-2.5-6c0-2.3,0.8-4.3,2.4-5.9c1.6-1.6,3.6-2.5,5.9-2.5c2.4,0,4.4,0.8,6,2.5
			C30.6,138,31.4,140,31.4,142.4z M17.5,190.9l6.8-5c1.7-1.2,1.9-2.6,1.3-4.1l-0.3-1l-10.1,3.6l-1.5-4.3l23.5-8.4l2.6,7.4
			c1.5,4.2,0.6,7.7-3.7,9.2c-3.1,1.1-5.8-0.1-7.1-2.6l-0.1,0c0.2,0.9,0.1,2-1.8,3.6l-7.9,6.3L17.5,190.9z M30.9,215.1
			c-0.8-0.6-2.5-1.9-3.8-4.2c-3-5.1-0.6-9.5,3.7-12c4.8-2.8,9.9-2.4,12.3,1.6c2,3.4,1.7,7.5-4.8,11.3l-0.7,0.4l-5.4-9.2
			c-2.7,1.6-3.7,3.6-2,6.6c1.4,2.3,2.7,3,3.7,3.4L30.9,215.1z M49,218.2c-0.8,0.6-0.7,1.6-0.5,3.1l0.3,2.6c0.4,2.7,0.3,4.2-1.3,5.6
			c-2.6,2.2-6,1.3-8.6-1.8c-1.5-1.8-2.3-3.5-2.6-4.5l3-2.2c0.2,0.7,0.7,2.7,2,4.3c1,1.2,2.1,1.9,3.2,1c0.5-0.5,0.8-1.2,0.5-3
			l-0.4-2.1c-0.3-2.1-0.8-4.5,1.5-6.3c1.9-1.6,5.6-1.5,8.1,1.5c1.5,1.8,2.2,3.6,2.4,4l-2.8,2c-0.4-1.1-0.8-2.3-1.9-3.5
			C50.9,217.7,49.9,217.5,49,218.2z M58.5,242.7c0.6,0.5,1.2,0.7,1.5,0.8l-2.1,2.4c-0.7-0.2-1.6-0.6-2.6-1.5
			c-2.5-2.2-2.9-4.5-0.3-7.4l6.7-7.6l-2.2-1.9l2.2-2.4l2.2,1.9l2.5-2.8l4.2,1.9l-3.4,3.9l2.8,2.4l-2.2,2.4l-2.8-2.4l-6.3,7.2
			C57.4,240.9,57.5,241.8,58.5,242.7z M82.6,249.4l-4.3,6.8c-0.7,1.1-1.2,2.2-1.5,2.9l-3.4-2.1c0.2-0.7,0.6-1.5,1.1-2.3l-0.1,0
			c-1.7,0.7-3.6,1-5.8-0.4c-2.4-1.5-3.6-4.6-1.8-7.5c2.7-4.2,6.8-3.1,11.5-0.1l0.8,0.5l0.4-0.6c1-1.5,1.1-3.4-1-4.8
			c-1.9-1.2-4.1-1.3-5.2-1.2l1.7-3.2c1.4,0.2,3.3,0.5,5.7,2C85.4,242.5,85.1,245.5,82.6,249.4z M100.5,266.3c-0.4,1.1-0.8,2.1-1,2.9
			l-3.9-1.5c0.3-0.9,0.6-1.8,0.9-2.7l-0.1-0.1l0,0c-1.3,0.9-3,2.1-5.7,1.1c-3.9-1.6-3.9-4.9-2.5-8.4l4.4-11l4.1,1.6l-4.1,10.3
			c-1,2.6-0.8,4,1,4.7c2.2,0.9,3.6-0.9,4.5-3.1l3.9-9.8l4.1,1.6L100.5,266.3z M121.7,259.8c-0.4-0.2-0.7-0.3-1.2-0.4
			c-1.8-0.4-4,0.3-4.7,3.6l-2.2,9.9l-4.3-0.9l3.3-15c0.2-1.1,0.4-2.2,0.5-3l3.9,0.9c-0.2,1.1-0.3,2.2-0.6,3.3l0.1,0
			c0.8-1.3,2.7-3.2,5.4-2.6c0.3,0.1,0.5,0.2,0.7,0.3L121.7,259.8z M141.8,264.8l-0.4,8c-0.1,1.3,0,2.5,0.1,3.3l-4-0.2
			c-0.2-0.7-0.2-1.6-0.1-2.5l-0.1,0c-1.2,1.4-2.7,2.6-5.3,2.5c-2.9-0.2-5.4-2.3-5.2-5.7c0.3-5,4.4-6,10-5.7l0.9,0.1l0-0.7
			c0.1-1.8-0.7-3.5-3.2-3.7c-2.2-0.1-4.2,0.8-5.1,1.5l-0.1-3.6c1.3-0.5,3.1-1.2,5.9-1C140.9,257.3,142.1,260.2,141.8,264.8z
			 M161.7,274.5l-1.4-11c-0.4-2.8-1.2-3.9-3-3.7c-2.3,0.3-2.9,2.3-2.6,4.7l1.3,10.6l-4.4,0.6l-1.9-15.3c-0.1-1.1-0.3-2.2-0.5-3
			l4.1-0.5c0.2,0.9,0.4,1.9,0.5,2.8l0.1,0c0.5-1.2,1.5-3.3,4.5-3.7c4.2-0.5,5.8,2.4,6.2,6.1l1.5,11.8L161.7,274.5z M182.7,269.9
			c-3.2,0.9-5.4,0-6.5-3.7l-2.9-9.7l-2.8,0.8l-0.9-3.1l2.8-0.8l-1.1-3.6l3.9-2.6l1.5,4.9l3.5-1.1l0.9,3.1l-3.5,1.1l2.7,9.2
			c0.6,1.9,1.4,2.2,2.6,1.9c0.8-0.2,1.2-0.6,1.5-0.9l0.9,3C184.8,269,184,269.5,182.7,269.9z M201.3,262.4
			c-5.3,2.6-9.5-0.1-11.7-4.6c-2.4-5-1.7-10.1,2.6-12.1c3.6-1.7,7.6-1.1,10.9,5.6l0.4,0.8l-9.6,4.7c1.4,2.8,3.3,4,6.4,2.5
			c2.4-1.2,3.2-2.5,3.7-3.4l1.7,3.1C205.1,259.6,203.7,261.2,201.3,262.4z M141.6,242.8c-55.9,0-101.2-45.3-101.2-101.2
			c0-55.9,45.3-101.2,101.2-101.2c55.9,0,101.2,45.3,101.2,101.2C242.8,197.5,197.5,242.8,141.6,242.8z M236.7,237
			c-5.8,5.6-12.6,4.6-17.8-0.7c-5.1-5.3-5.9-12.2-0.1-17.8c2.1-2,4.1-3.1,5.1-3.5l2.7,3.1c-1.7,0.4-3.6,1.3-5.2,2.9
			c-3.5,3.4-2.6,8.1,1,11.8c3.9,4,8.2,4.8,11.6,1.6c0.8-0.7,1.3-1.6,1.6-2.2l-4.7-4.8l-2.7,2.6l-2.4-2.5l5.8-5.6l9.1,9.4
			C240.2,232.8,239.1,234.7,236.7,237z M253.8,215.4c-0.7-0.2-1.5-0.7-2.2-1.2l0,0.1c0.6,1.8,0.9,3.6-0.6,5.8
			c-1.6,2.4-4.7,3.4-7.6,1.5c-4.1-2.8-2.8-6.9,0.3-11.5l0.5-0.7l-0.6-0.4c-1.5-1-3.4-1.3-4.8,0.8c-1.3,1.8-1.5,4.1-1.4,5.2l-3.1-1.8
			c0.2-1.4,0.6-3.2,2.2-5.6c3.2-4.7,6.3-4.2,10.1-1.6l6.6,4.6c1.1,0.8,2.2,1.3,2.8,1.6L253.8,215.4z M261,203l-13.9-6.6
			c-1-0.5-2-0.9-2.8-1.2l1.7-3.6c1,0.4,2.1,0.8,3.1,1.3l0-0.1c-1.1-1.1-2.5-3.3-1.3-5.8c0.1-0.3,0.3-0.4,0.4-0.6l3.8,1.8
			c-0.3,0.3-0.5,0.6-0.7,1.1c-0.8,1.7-0.6,3.9,2.5,5.4l9.1,4.3L261,203z M271.1,176.6c-0.7,0-1.6-0.2-2.5-0.5l0,0.1
			c1.1,1.5,2,3.2,1.2,5.7c-0.8,2.8-3.4,4.7-6.7,3.8c-4.8-1.4-4.9-5.7-3.3-11.1l0.2-0.9l-0.7-0.2c-1.8-0.5-3.6-0.1-4.3,2.3
			c-0.6,2.1-0.1,4.3,0.3,5.3l-3.5-0.8c-0.2-1.4-0.5-3.3,0.3-6c1.6-5.5,4.6-6,9.1-4.7l7.7,2.2c1.3,0.4,2.5,0.6,3.2,0.7L271.1,176.6z"
			/>
	</g>
</g>
</svg>
