<?xml version="1.0" encoding="UTF-8"?>
<svg width="144px" height="144px" viewBox="0 0 144 144" version="1.1" xmlns="http://www.w3.org/2000/svg" xmlns:xlink="http://www.w3.org/1999/xlink">
    <!-- Generator: Sketch 50.2 (55047) - http://www.bohemiancoding.com/sketch -->
    <title>Untitled</title>
    <desc>Created with Sketch.</desc>
    <defs></defs>
    <g id="Page-1" stroke="none" stroke-width="1" fill="none" fill-rule="evenodd">
        <path d="M138.318508,44.0057389 C134.703013,35.4318508 129.51736,27.7463415 122.906169,21.1558106 C116.294978,14.5446198 108.609469,9.358967 100.056241,5.74347202 C91.1931133,1.98335725 81.7721664,0.0826398852 72.0619799,0.0826398852 C62.3517934,0.0826398852 52.9308465,1.98335725 44.0677188,5.74347202 C35.4938307,9.358967 27.8083214,14.5446198 21.2177905,21.1558106 C14.6065997,27.7670014 9.42094692,35.4525108 5.80545194,44.0057389 C2.04533716,52.8688666 0.144619799,62.2898135 0.144619799,72 C0.144619799,81.7101865 2.04533716,91.1311334 5.80545194,99.9942611 C9.42094692,108.568149 14.6065997,116.253659 21.2177905,122.844189 C27.8289813,129.45538 35.5144907,134.641033 44.0677188,138.256528 C52.9308465,142.016643 62.3517934,143.91736 72.0619799,143.91736 C81.7721664,143.91736 91.1931133,142.016643 100.056241,138.256528 C108.630129,134.641033 116.315638,129.45538 122.906169,122.844189 C129.51736,116.232999 134.703013,108.547489 138.318508,99.9942611 C142.078623,91.1311334 143.97934,81.7101865 143.97934,72 C143.97934,62.2898135 142.078623,52.8895265 138.318508,44.0057389 Z M119.993113,119.931133 C107.183931,132.740316 90.1601148,139.785366 72.0619799,139.785366 C55.0794835,139.785366 39.0473458,133.587374 26.5687231,122.24505 L23.1598278,118.939455 C10.9704448,106.254232 4.27661406,89.6436155 4.27661406,72 C4.27661406,53.9018651 11.3216643,36.8780488 24.1308465,24.0688666 C36.9400287,11.2596844 53.9638451,4.21463415 72.0619799,4.21463415 C89.7055954,4.21463415 106.316212,10.9084648 119.001435,23.0978479 L122.30703,26.5067432 C133.649354,38.9853659 139.847346,55.0175036 139.847346,72 C139.847346,90.1187948 132.781636,107.142611 119.993113,119.931133 Z M97.5150646,44.5635581 C93.61033,39.9770445 89.0238164,36.2582496 84.0241033,33.861693 C80.2433286,32.0436155 77.041033,29.3371593 74.7271162,26.0109039 L73.7974175,24.6680057 C73.404878,24.0895265 72.743759,23.758967 72.0619799,23.758967 C71.3595409,23.758967 70.7190818,24.1101865 70.3265423,24.6680057 L69.3968436,26.0109039 C67.0829268,29.3371593 63.8806313,32.0436155 60.0998565,33.861693 C44.9147776,41.1340029 33.4691535,60.6783357 33.4691535,79.3136298 C33.4691535,85.3050215 34.4814921,90.9451937 36.4855093,96.0688666 C37.3532281,98.3208034 38.4275466,100.44878 39.6464849,102.452798 L42.4355811,106.378192 C43.17934,107.287231 43.943759,108.17561 44.7701578,109.022669 C51.835868,116.253659 61.5253945,120.241033 72.0619799,120.241033 C82.5985653,120.241033 92.3087518,116.253659 99.353802,109.022669 C102.927977,105.365854 105.696413,101.0066 107.617791,96.0688666 C109.621808,90.9451937 110.634146,85.3050215 110.634146,79.3136298 C110.634146,68.425825 106.729412,57.2281205 100.44878,48.3649928 L97.5150646,44.5635581 Z M106.398852,79.3136298 C106.398852,90.0568149 102.907317,99.3124821 96.3167862,106.068293 C90.0568149,112.472884 81.4416069,116.005739 72.0619799,116.005739 C62.6823529,116.005739 54.0464849,112.472884 47.8071736,106.068293 C41.1959828,99.3124821 37.7251076,90.0568149 37.7251076,79.3136298 C37.7251076,70.9670014 40.2456241,62.0832138 44.8321377,54.3357245 C49.3153515,46.7328551 55.3893831,40.8241033 61.917934,37.7044476 C65.9259684,35.7830703 69.4175036,32.9733142 72.0619799,29.543759 C74.7064562,32.9733142 78.1979914,35.7624103 82.2060258,37.7044476 C88.7345768,40.8241033 94.8086083,46.7328551 99.2918221,54.3357245 C103.878336,62.1038737 106.398852,70.9670014 106.398852,79.3136298 Z M98.3414634,65.7606887 C98.3827834,65.5954089 98.4654232,65.3474892 98.5687231,65.0789096 C98.651363,64.8723099 98.7133429,64.6863702 98.7959828,64.4797704 C99.7670014,61.6700143 98.7133429,59.1081779 96.1308465,57.9512195 C95.3251076,57.6 95.2424677,57.4347202 95.3251076,56.5670014 C95.4697274,55.1621234 95.3044476,53.6332855 94.8499283,52.2284075 C94.2094692,50.2657102 92.4740316,49.0054519 90.4700143,49.0054519 C90.0568149,49.0054519 89.6436155,49.0674319 89.2304161,49.1707317 C89.0651363,49.2120516 88.8998565,49.2327116 88.7758967,49.2327116 C88.6106169,49.2327116 88.3420373,49.2327116 87.804878,48.3443329 C86.6685796,46.5055954 85.0571019,45.2453372 83.1563845,44.6875179 C82.5365854,44.5015782 81.8961263,44.4189383 81.2556671,44.4189383 C78.0740316,44.4189383 75.2849354,46.5882353 74.2725968,49.8111908 C73.5081779,52.2903874 74.0040172,54.5216643 74.4172166,56.3397418 C74.9543759,58.7362984 74.7684362,60.2238164 73.7354376,61.4427547 C73.2189383,62.0625538 72.5784792,62.2071736 72.1239598,62.2071736 L72.1032999,62.2071736 C72.0826399,62.2071736 72.0619799,62.2071736 72.0413199,62.2071736 L72.02066,62.2071736 C71.5868006,62.2071736 70.9463415,62.0832138 70.4091822,61.4427547 C69.3968436,60.2238164 69.1902439,58.7569584 69.7274032,56.3397418 C70.1406026,54.5423242 70.6364419,52.2903874 69.872023,49.8111908 C68.8803443,46.5882353 66.0705882,44.4189383 62.8889527,44.4189383 C62.2484935,44.4189383 61.6080344,44.5015782 60.9882353,44.6875179 C59.066858,45.2246772 57.4553802,46.4849354 56.3397418,48.3443329 C55.8025825,49.2327116 55.5340029,49.2327116 55.3687231,49.2327116 C55.2447633,49.2327116 55.0794835,49.2120516 54.9142037,49.1707317 C54.5010043,49.0674319 54.0878049,49.0054519 53.6746055,49.0054519 C51.6499283,49.0054519 49.9351506,50.2657102 49.2946915,52.2284075 C48.8401722,53.6332855 48.6542324,55.1621234 48.8195122,56.5670014 C48.9228121,57.4347202 48.8195122,57.6 48.0137733,57.9512195 C45.4106169,59.1081779 44.3776184,61.6700143 45.348637,64.4797704 C45.4106169,64.6863702 45.4932568,64.8723099 45.5758967,65.0789096 C45.6791966,65.3474892 45.7824964,65.5954089 45.8031564,65.7606887 C45.8238164,65.8639885 45.8444763,65.9466284 45.8444763,66.0086083 C44.0057389,67.1862267 42.7041607,68.7563845 42.0017217,70.6571019 C41.9190818,70.9050215 41.8571019,71.1529412 41.8571019,71.4008608 L41.8571019,73.4875179 C41.8571019,73.9626973 42.0223816,74.4172166 42.3116212,74.7890961 C42.3322812,74.8304161 42.3736011,74.851076 42.3942611,74.892396 C43.4892396,77.2682927 45.0387374,78.6731707 47.0634146,79.1483501 C45.6791966,79.933429 44.3569584,81.2556671 43.5925395,83.5902439 C42.8074605,85.9454806 43.7991392,89.3337159 45.8651363,91.3170732 C47.2700143,92.6599713 48.9228121,93.0111908 50.2657102,93.3004304 L50.3070301,93.3210904 C50.43099,93.3417504 50.5136298,93.3830703 50.5962697,93.4037303 C50.5756098,93.4657102 50.5549498,93.5483501 50.5136298,93.6723099 C50.36901,94.0235294 50.1624103,94.4160689 49.9351506,94.8292683 L49.8111908,95.035868 C48.4063128,97.5977044 48.9021521,100.180201 51.112769,101.956958 C51.6086083,102.370158 52.1664275,102.721377 52.7242468,103.031277 C53.6332855,103.506456 53.6332855,103.775036 53.5713056,104.332855 C53.4060258,105.985653 54.0671449,107.535151 54.4803443,108.29957 C55.5546628,110.303587 57.8272597,111.605165 60.2857963,111.605165 C60.7196557,111.605165 61.174175,111.563845 61.5873745,111.481205 C64.3351506,110.944046 66.7317073,108.464849 67.1655667,105.696413 C67.2895265,104.870014 67.3515065,104.043615 67.4134864,103.258537 C67.4548063,102.556098 67.5167862,101.874319 67.5994261,101.233859 C67.661406,100.82066 67.7647059,100.63472 67.7853659,100.61406 C67.7853659,100.61406 67.8060258,100.5934 67.8473458,100.5934 C67.8680057,100.5934 67.8680057,100.5934 67.8680057,100.5934 C67.8886657,100.61406 68.0539455,100.6967 68.3225251,101.06858 C68.6530846,101.523099 68.9423242,102.080918 69.2522238,102.680057 C69.3968436,102.948637 69.5208034,103.217217 69.6654232,103.465136 C69.7480631,103.609756 69.810043,103.775036 69.8926829,103.919656 C69.9340029,104.002296 69.9753228,104.084935 70.0166428,104.167575 C70.3472023,104.870014 71.0496413,105.324534 71.8140603,105.365854 C71.8967001,105.365854 71.9586801,105.365854 72.0413199,105.365854 C72.1239598,105.365854 72.1859397,105.365854 72.2685796,105.365854 C73.0536585,105.324534 73.7354376,104.870014 74.0659971,104.167575 C74.1073171,104.084935 74.148637,104.002296 74.189957,103.919656 C74.2725968,103.754376 74.3345768,103.589096 74.4172166,103.465136 C74.5618364,103.196557 74.6857963,102.948637 74.8304161,102.680057 C75.1403156,102.080918 75.4295552,101.523099 75.7601148,101.06858 C76.0493544,100.67604 76.2146341,100.5934 76.2146341,100.5934 C76.2146341,100.5934 76.2352941,100.5934 76.2559541,100.5934 C76.297274,100.5934 76.317934,100.61406 76.317934,100.61406 C76.3592539,100.65538 76.4625538,100.84132 76.5245337,101.233859 C76.6278336,101.874319 76.6691535,102.535438 76.7104735,103.258537 C76.7724534,104.043615 76.8137733,104.870014 76.9583931,105.696413 C77.3922525,108.464849 79.7888092,110.944046 82.5365854,111.481205 C82.9704448,111.563845 83.4043042,111.605165 83.8381636,111.605165 C86.2967001,111.605165 88.569297,110.303587 89.6436155,108.29957 C90.0568149,107.535151 90.717934,105.985653 90.5526542,104.332855 C90.4906743,103.775036 90.5113343,103.506456 91.3997131,103.031277 C91.9575323,102.721377 92.5153515,102.370158 93.0111908,101.956958 C95.2218077,100.180201 95.6969871,97.5977044 94.312769,95.035868 L94.1888092,94.8292683 C93.9615495,94.4160689 93.7549498,94.0441894 93.61033,93.6723099 C93.56901,93.56901 93.5276901,93.4863702 93.5276901,93.4037303 C93.58967,93.3830703 93.6929699,93.3624103 93.8169297,93.3210904 L93.8995696,93.3004304 C95.2424677,93.0111908 96.8952654,92.6393113 98.3001435,91.3170732 C100.366141,89.3543759 101.357819,85.9454806 100.57274,83.5902439 C100.097561,82.1440459 99.2091822,80.3466284 97.0812052,79.1483501 C99.1058824,78.6938307 100.65538,77.2682927 101.750359,74.892396 C101.771019,74.851076 101.812339,74.8304161 101.832999,74.7890961 C102.122238,74.4172166 102.287518,73.9626973 102.287518,73.4875179 L102.287518,71.4008608 C102.287518,71.1529412 102.246198,70.8843615 102.142898,70.6571019 C101.419799,68.7563845 100.138881,67.1862267 98.3001435,66.0086083 C98.3208034,65.9466284 98.3208034,65.8639885 98.3414634,65.7606887 Z M97.9695839,72.8057389 C97.948924,72.8470588 97.928264,72.9090387 97.886944,72.9710187 C97.0398852,74.913056 96.2341463,75.0783357 95.4903874,75.0783357 C95.035868,75.0783357 94.4987088,74.9750359 93.8582496,74.7890961 C93.1558106,74.5824964 92.4327116,74.4998565 91.7509326,74.5411765 C89.9121951,74.6651363 88.589957,75.8427547 88.2800574,77.5988522 C87.9494978,79.4995696 88.8378766,81.1110473 90.5113343,81.7308465 C91.3377331,82.0407461 92.184792,82.1647059 92.907891,82.2680057 L92.9492109,82.2680057 C94.9532281,82.5572453 95.8622669,83.2596844 96.4407461,84.933142 C96.6680057,85.5736011 96.2134864,87.3090387 95.2631277,88.2387374 C94.7466284,88.7345768 94.0235294,88.8998565 92.887231,89.1477762 L92.8045911,89.1684362 C90.8832138,89.5816356 89.994835,90.6146341 89.5816356,91.3790531 C89.1684362,92.164132 88.8585366,93.4657102 89.6022956,95.2837877 C89.8502152,95.8622669 90.1187948,96.3581062 90.3873745,96.8539455 L90.4906743,97.0605452 C90.9658537,97.928264 90.7799139,98.2175036 90.2634146,98.630703 C89.9535151,98.8786227 89.6436155,99.0852224 89.292396,99.2711621 C87.0197991,100.4901 85.9868006,102.328838 86.2347202,104.746055 C86.2553802,105.035294 86.1520803,105.655093 85.8008608,106.274892 C85.4703013,106.915352 84.6439024,107.328551 83.7348637,107.328551 C83.5695839,107.328551 83.4043042,107.307891 83.2390244,107.287231 C82.2473458,107.101291 81.1936872,106.006313 81.0490674,105.014634 C80.9457676,104.353515 80.9044476,103.671736 80.8424677,102.927977 C80.7804878,102.163558 80.7391679,101.378479 80.615208,100.57274 C80.2846485,98.3001435 78.9417504,96.7919656 76.9790531,96.3994261 C76.6898135,96.3374462 76.4005739,96.3167862 76.1319943,96.3167862 C75.0783357,96.3167862 73.5494978,96.7093257 72.2272597,98.5893831 C72.1446198,98.7133429 72.0619799,98.8373027 71.97934,98.9612626 C71.8967001,98.8373027 71.8140603,98.7133429 71.7314204,98.5893831 C70.4091822,96.7093257 68.8803443,96.3167862 67.8266858,96.3167862 C67.5374462,96.3167862 67.2482066,96.3374462 66.979627,96.3994261 C64.9962697,96.7919656 63.6740316,98.3001435 63.343472,100.57274 C63.2195122,101.378479 63.1781923,102.163558 63.1162123,102.927977 C63.0748924,103.651076 63.0129125,104.353515 62.9096126,105.014634 C62.7443329,106.006313 61.7113343,107.101291 60.7196557,107.287231 C60.5543759,107.328551 60.3890961,107.328551 60.2238164,107.328551 C59.3354376,107.328551 58.5090387,106.894692 58.1578192,106.274892 C57.8272597,105.634433 57.7032999,105.035294 57.7239598,104.746055 C57.9718795,102.349498 56.9388809,100.51076 54.6662841,99.2711621 C54.3357245,99.0852224 54.005165,98.8786227 53.6952654,98.630703 C53.1787661,98.2175036 52.9928264,97.928264 53.4680057,97.0605452 L53.5713056,96.8539455 C53.8398852,96.3581062 54.1084648,95.8622669 54.3563845,95.2837877 C55.1208034,93.4657102 54.7902439,92.164132 54.3770445,91.3790531 C53.9638451,90.5939742 53.0754663,89.5816356 51.154089,89.1684362 L51.0714491,89.1477762 C49.9351506,88.8998565 49.2120516,88.7139168 48.6955524,88.2387374 C47.8071736,87.3296987 47.3526542,85.5942611 47.5799139,84.953802 C48.1377331,83.2803443 49.0674319,82.5779053 51.0714491,82.2886657 L51.112769,82.2886657 C51.856528,82.1853659 52.6829268,82.061406 53.5299857,81.7515065 C55.2241033,81.1317073 56.0918221,79.4995696 55.7612626,77.6195122 C55.451363,75.8634146 54.1291248,74.7064562 52.2903874,74.5618364 C51.6086083,74.5205165 50.8855093,74.6031564 50.1830703,74.8097561 C49.5632712,74.9956958 49.0054519,75.0989957 48.5509326,75.0989957 C47.8071736,75.0989957 47.0014347,74.9337159 46.1543759,72.9916786 C46.1337159,72.9296987 46.113056,72.8883788 46.071736,72.8263989 L46.071736,71.8347202 C46.5262554,70.8637016 47.2493544,70.0992826 48.3443329,69.4381636 C50.5549498,68.1365854 50.1004304,65.7400287 49.9351506,64.9549498 C49.8318508,64.3971306 49.645911,63.9219512 49.4806313,63.5087518 C49.4186514,63.364132 49.3773314,63.2195122 49.3153515,63.0748924 C48.984792,62.1245337 49.3360115,61.9799139 49.707891,61.8146341 C52.1870875,60.7196557 53.282066,58.7776184 52.9928264,56.0918221 C52.9101865,55.2860832 53.0134864,54.3563845 53.282066,53.5299857 C53.3853659,53.1994261 53.5713056,53.1994261 53.6332855,53.1994261 C53.6952654,53.1994261 53.7365854,53.1994261 53.7985653,53.2200861 C54.3150646,53.3647059 54.8315638,53.4266858 55.3274032,53.4266858 C58.1371593,53.4266858 59.4800574,51.2367288 59.9139168,50.5136298 C60.492396,49.5632712 61.215495,48.984792 62.1038737,48.7368723 C62.3517934,48.6748924 62.5997131,48.6335725 62.8682927,48.6335725 C64.1698709,48.6335725 65.3474892,49.6045911 65.7813486,51.0507891 C66.1738881,52.3523673 65.9466284,53.6746055 65.554089,55.3893831 C65.0375897,57.7239598 64.6243902,61.1535151 67.1035868,64.1285509 C68.3225251,65.5747489 70.0786227,66.4011478 71.9586801,66.4011478 L72.02066,66.4011478 L72.0826399,66.4011478 C73.9626973,66.4011478 75.7187948,65.5747489 76.9377331,64.1285509 C79.4169297,61.1535151 79.0243902,57.7032999 78.487231,55.3893831 C78.0946915,53.6539455 77.8467719,52.3317073 78.2599713,51.0507891 C78.7144907,49.6045911 79.8714491,48.6335725 81.1730273,48.6335725 C81.4209469,48.6335725 81.6688666,48.6748924 81.9374462,48.7368723 C82.825825,48.984792 83.548924,49.5632712 84.1274032,50.5136298 C84.5612626,51.2367288 85.9041607,53.4266858 88.7139168,53.4266858 C89.2097561,53.4266858 89.7262554,53.3647059 90.2427547,53.2200861 C90.3047346,53.1994261 90.3667145,53.1994261 90.4080344,53.1994261 C90.4906743,53.1994261 90.6559541,53.1994261 90.7592539,53.5299857 C91.0278336,54.3563845 91.1311334,55.2860832 91.0484935,56.0918221 C90.7592539,58.7776184 91.8748924,60.6989957 94.333429,61.8146341 C94.7053085,61.9799139 95.056528,62.1451937 94.7259684,63.0748924 C94.6846485,63.2195122 94.6226686,63.364132 94.5606887,63.4880918 C94.3954089,63.9012912 94.2094692,64.3764706 94.1061693,64.9342898 C93.9615495,65.7193687 93.4863702,68.0952654 95.6969871,69.4175036 C96.7919656,70.0579627 97.5150646,70.8223816 97.9695839,71.8140603 L97.9695839,72.8057389 Z" id="Shape" fill="#000000" fill-rule="nonzero"></path>
    </g>
</svg>