<?xml version="1.0" encoding="UTF-8"?>
<svg width="144px" height="144px" viewBox="0 0 144 144" version="1.1" xmlns="http://www.w3.org/2000/svg" xmlns:xlink="http://www.w3.org/1999/xlink">
    <!-- Generator: Sketch 50.2 (55047) - http://www.bohemiancoding.com/sketch -->
    <title>Untitled</title>
    <desc>Created with Sketch.</desc>
    <defs></defs>
    <g id="Page-1" stroke="none" stroke-width="1" fill="none" fill-rule="evenodd">
        <path d="M138.161605,44.0458453 C134.551289,35.4842407 129.373066,27.8097421 122.771347,21.2286533 C116.169628,14.6269341 108.495129,9.4487106 99.9541547,5.83839542 C91.1037249,2.08366762 81.6962751,0.185673352 72,0.185673352 C62.3037249,0.185673352 52.8962751,2.08366762 44.0458453,5.83839542 C35.4842407,9.4487106 27.8097421,14.6269341 21.2286533,21.2286533 C14.6269341,27.8303725 9.4487106,35.5048711 5.83839542,44.0458453 C2.08366762,52.8962751 0.185673352,62.3037249 0.185673352,72 C0.185673352,81.6962751 2.08366762,91.1037249 5.83839542,99.9541547 C9.4487106,108.515759 14.6269341,116.190258 21.2286533,122.771347 C27.8303725,129.373066 35.5048711,134.551289 44.0458453,138.161605 C52.8962751,141.916332 62.3037249,143.814327 72,143.814327 C81.6962751,143.814327 91.1037249,141.916332 99.9541547,138.161605 C108.515759,134.551289 116.190258,129.373066 122.771347,122.771347 C129.373066,116.169628 134.551289,108.495129 138.161605,99.9541547 C141.916332,91.1037249 143.814327,81.6962751 143.814327,72 C143.814327,62.3037249 141.916332,52.8962751 138.161605,44.0458453 Z M119.862464,119.862464 C107.071633,132.653295 90.0722063,139.688252 72,139.688252 C55.165616,139.688252 39.2802292,133.581662 26.860745,122.441261 L23.4154728,119.140401 C11.0991404,106.432092 4.31174785,89.7421203 4.31174785,72 C4.31174785,53.9277937 11.3467049,36.9283668 24.1375358,24.1375358 C36.9283668,11.3467049 53.9277937,4.31174785 72,4.31174785 C89.7421203,4.31174785 106.432092,11.0991404 119.140401,23.4361032 L122.42063,26.860745 C133.581662,39.2802292 139.667622,55.1862464 139.667622,72 C139.688252,90.0722063 132.653295,107.071633 119.862464,119.862464 Z M93.5174785,49.0590258 C90.2578797,48.3782235 86.8744986,48.7289398 83.8212034,50.0492837 C82.1501433,46.1088825 78.9730659,42.9318052 74.9295129,41.3020057 L54.7323782,33.173639 C50.7094556,31.5644699 46.3151862,31.6057307 42.312894,33.2974212 C38.3312321,34.9891117 35.2366762,38.1455587 33.6275072,42.1684814 L33.5243553,42.4366762 C30.182235,50.730086 34.225788,60.1994269 42.5191977,63.5209169 L62.7163324,71.6492837 C64.9444126,72.5363897 67.2962751,72.9077364 69.6481375,72.7839542 C72.5776504,72.2269341 75.1151862,71.7111748 75.1151862,71.7111748 L76.043553,73.2378223 C76.1879656,73.5060172 76.3530086,73.774212 76.5180516,74.0424069 C76.043553,74.0630372 75.5690544,74.1249284 75.0945559,74.1868195 C75.0945559,74.1868195 71.6080229,74.4137536 69.5449857,74.9501433 C67.4819484,75.486533 64.4492837,78.1272206 64.4492837,78.1272206 C61.4991404,75.8166189 57.8475645,74.5994269 53.9690544,74.7232092 L44.1077364,75.0326648 C35.1747851,75.32149 28.1398281,82.8103152 28.4080229,91.7638968 L28.4080229,92.0527221 C28.5524355,96.2819484 30.2853868,100.24298 33.3386819,103.193123 C34.3908309,104.204011 35.5461318,105.070487 36.8045845,105.751289 L41.7765043,107.525501 C42.7048711,107.690544 43.6538682,107.773066 44.6234957,107.773066 C44.7885387,107.773066 44.974212,107.773066 45.139255,107.773066 L55.0005731,107.46361 C59.3329513,107.319198 63.417765,105.441834 66.3472779,102.306017 C69.4624642,105.25616 73.5885387,106.86533 78.0034384,106.720917 L99.7684814,106.019484 C104.10086,105.875072 108.123782,104.059599 111.073926,100.903152 C114.044699,97.7467049 115.591977,93.6206304 115.447564,89.2882521 L115.447564,88.9994269 C115.323782,85.3891117 114.024069,81.9644699 111.754728,79.2206304 C112.827507,77.9415473 113.673352,76.4974212 114.312894,74.9295129 L114.416046,74.6613181 C117.758166,66.3679083 113.714613,56.8985673 105.421203,53.5770774 L98.4893983,50.7919771 L93.5174785,49.0590258 Z M107.958739,98.0561605 C105.77192,100.387393 102.801146,101.728367 99.6034384,101.831519 L77.8383954,102.532951 C73.8979943,102.656734 70.2670487,100.903152 67.8945559,97.7879656 C67.4819484,97.2309456 66.8217765,96.92149 66.1409742,96.9421203 C65.4601719,96.9627507 64.8206304,97.313467 64.4492837,97.8911175 C62.3037249,101.130086 58.7140401,103.131232 54.8355301,103.255014 L44.974212,103.56447 C41.7352436,103.626361 38.6406877,102.409169 36.2888252,100.160458 C34.0401146,97.9942693 32.7404011,95.0647564 32.6372493,91.9289398 L32.6372493,91.6401146 C32.4309456,85.0383954 37.6297994,79.4888252 44.2315186,79.2825215 L54.0928367,78.9730659 C54.2166189,78.9730659 54.3610315,78.9730659 54.4848138,78.9730659 C58.2601719,78.9730659 61.7467049,80.7060172 64.0366762,83.7180516 C64.4492837,84.2750716 65.1094556,84.5845272 65.7902579,84.5638968 C66.4710602,84.5432665 67.1106017,84.1925501 67.4819484,83.6148997 C69.6275072,80.3759312 73.217192,78.3747851 77.095702,78.2510029 L98.860745,77.5495702 C99.0670487,77.5495702 99.2527221,77.5495702 99.4590258,77.5495702 C99.582808,77.5495702 99.6859599,77.5495702 99.8097421,77.5702006 C99.8922636,77.5702006 99.9747851,77.5702006 100.057307,77.5908309 C100.181089,77.5908309 100.325501,77.6114613 100.449284,77.6320917 C100.511175,77.6320917 100.573066,77.6527221 100.634957,77.6527221 C100.77937,77.6733524 100.903152,77.6939828 101.047564,77.7146132 C101.109456,77.7146132 101.150716,77.7352436 101.212607,77.7352436 C101.35702,77.7558739 101.501433,77.7971347 101.625215,77.817765 C101.666476,77.8383954 101.728367,77.8383954 101.769628,77.8383954 C101.91404,77.8590258 102.058453,77.9002865 102.182235,77.9415473 C102.223496,77.9621777 102.285387,77.9621777 102.326648,77.982808 C102.47106,78.0240688 102.615473,78.0653295 102.739255,78.1065903 C102.780516,78.1272206 102.842407,78.1272206 102.883668,78.147851 C103.02808,78.1891117 103.151862,78.2510029 103.296275,78.2922636 C103.337536,78.312894 103.399427,78.3335244 103.440688,78.3335244 C103.5851,78.3747851 103.708883,78.4366762 103.832665,78.4985673 C103.873926,78.5191977 103.935817,78.5398281 103.977077,78.5604585 C104.10086,78.6223496 104.245272,78.6842407 104.369054,78.7461318 C104.410315,78.7667622 104.472206,78.7873926 104.513467,78.8080229 C104.637249,78.869914 104.761032,78.9318052 104.884814,79.0143266 C104.926074,79.034957 104.987966,79.0555874 105.029226,79.0968481 C105.153009,79.1587393 105.276791,79.2412607 105.400573,79.3031519 C105.441834,79.3237822 105.503725,79.365043 105.544986,79.3856734 C105.668768,79.4681948 105.77192,79.530086 105.895702,79.6126074 C105.936963,79.6538682 105.998854,79.6744986 106.040115,79.7157593 C106.143266,79.7982808 106.267049,79.8808023 106.370201,79.9633238 C106.411461,80.0045845 106.473352,80.0458453 106.514613,80.087106 C106.617765,80.1696275 106.720917,80.252149 106.824069,80.3346705 C106.88596,80.3759312 106.927221,80.417192 106.989112,80.4584527 C107.092264,80.5409742 107.174785,80.6234957 107.277937,80.7060172 C107.360458,80.7885387 107.46361,80.8710602 107.546132,80.9535817 C109.794842,83.1197708 111.094556,86.0492837 111.197708,89.1851003 L111.197708,89.4739255 C111.30086,92.6716332 110.145559,95.7249284 107.958739,98.0561605 Z M103.832665,57.4762178 C109.980516,59.9724928 112.951289,66.9455587 110.496275,73.0727794 L110.393123,73.3409742 C109.959885,74.434384 109.382235,75.4246418 108.660172,76.3117479 C108.57765,76.2498567 108.495129,76.208596 108.433238,76.1467049 C108.309456,76.0641834 108.185673,75.9816619 108.061891,75.8991404 C107.97937,75.8372493 107.876218,75.7753582 107.793696,75.7340974 C107.669914,75.6515759 107.566762,75.5896848 107.44298,75.5277937 C107.360458,75.4659026 107.257307,75.4246418 107.174785,75.3627507 C107.030372,75.2802292 106.88596,75.1977077 106.741547,75.1358166 C106.679656,75.0945559 106.597135,75.0532951 106.535244,75.0326648 C106.32894,74.9295129 106.122636,74.826361 105.916332,74.7438395 C105.833811,74.7025788 105.751289,74.6819484 105.668768,74.6406877 C105.524355,74.5787966 105.379943,74.5169054 105.23553,74.4550143 C105.153009,74.4137536 105.070487,74.3931232 104.967335,74.3518625 C104.802292,74.2899713 104.65788,74.2280802 104.492837,74.1868195 C104.410315,74.1661891 104.348424,74.1455587 104.265903,74.104298 C104.038968,74.0217765 103.812034,73.9598854 103.5851,73.8979943 C103.54384,73.8773639 103.481948,73.8773639 103.440688,73.8567335 C103.255014,73.8154728 103.069341,73.7535817 102.863037,73.7123209 C102.780516,73.6916905 102.697994,73.6710602 102.615473,73.6504298 C102.45043,73.6091691 102.285387,73.5885387 102.120344,73.5472779 C102.037822,73.5266476 101.955301,73.5266476 101.89341,73.5060172 C101.687106,73.4647564 101.480802,73.4441261 101.253868,73.4234957 C101.212607,73.4234957 101.191977,73.4234957 101.150716,73.4028653 C100.903152,73.382235 100.655587,73.3616046 100.408023,73.3409742 C100.346132,73.3409742 100.26361,73.3409742 100.201719,73.3203438 C100.016046,73.2997135 99.8510029,73.2997135 99.6653295,73.2997135 C99.582808,73.2997135 99.5002865,73.2997135 99.417765,73.2997135 C99.3558739,73.2997135 99.2939828,73.2997135 99.2320917,73.2997135 C99.0464183,73.2997135 98.8813754,73.2997135 98.695702,73.2997135 L81.8200573,73.8361032 C80.1696275,72.2475645 78.9730659,70.1845272 78.4573066,67.956447 C78.2922636,67.2962751 77.817765,66.739255 77.1782235,66.4916905 C76.5386819,66.2441261 75.8166189,66.3060172 75.2389685,66.6773639 C71.9793696,68.7816619 67.8739255,69.173639 64.2842407,67.7295129 L44.087106,59.6011461 C37.9598854,57.1461318 34.9891117,50.1524355 37.4441261,44.0252149 L37.5472779,43.7570201 C38.7438395,40.7862464 41.0131805,38.4550143 43.9633238,37.217192 C46.913467,35.9587393 50.1524355,35.9381089 53.1232092,37.1140401 L73.3203438,45.2424069 C76.9100287,46.686533 79.6126074,49.8017192 80.4997135,53.5770774 C80.6647564,54.2372493 81.139255,54.7942693 81.7787966,55.0418338 C82.4183381,55.2893983 83.1404011,55.2275072 83.7180516,54.8561605 C86.9776504,52.7518625 91.0830946,52.3598854 94.6727794,53.8040115 L103.832665,57.4762178 Z M106.287679,82.0057307 C104.286533,80.1283668 101.666476,79.1381089 98.9020057,79.2206304 L77.1575931,79.9014327 C75.9816619,79.9426934 75.0739255,80.9123209 75.1151862,82.0882521 C75.1358166,83.2641834 76.1054441,84.1925501 77.2813754,84.1512894 L99.0464183,83.4498567 C100.655587,83.3879656 102.202865,83.9862464 103.399427,85.1002865 C104.575358,86.2143266 105.25616,87.7203438 105.318052,89.3295129 L105.318052,89.6183381 C105.359312,90.773639 106.287679,91.660745 107.44298,91.660745 C107.46361,91.660745 107.484241,91.660745 107.504871,91.660745 C108.680802,91.6194842 109.588539,90.6498567 109.547278,89.4739255 L109.547278,89.1851003 C109.464756,86.4412607 108.309456,83.8830946 106.287679,82.0057307 Z M72.722063,46.7896848 L52.5249284,38.6613181 C47.243553,36.5363897 41.2401146,39.1151862 39.1151862,44.3759312 L39.0120344,44.6441261 C38.5787966,45.7375358 39.0945559,46.9547278 40.1879656,47.408596 C41.2813754,47.8418338 42.4985673,47.3260745 42.9524355,46.2326648 L43.0555874,45.9644699 C44.3140401,42.8492837 47.8418338,41.3432665 50.9570201,42.6017192 L71.1541547,50.730086 C71.4223496,50.8332378 71.6905444,50.8744986 71.9381089,50.8744986 C72.7839542,50.8744986 73.5679083,50.3793696 73.8979943,49.5541547 C74.3312321,48.460745 73.8154728,47.2229226 72.722063,46.7896848 Z" id="Shape" fill="#000000" fill-rule="nonzero"></path>
    </g>
</svg>