<?xml version="1.0" encoding="UTF-8"?>
<svg width="144px" height="144px" viewBox="0 0 144 144" version="1.1" xmlns="http://www.w3.org/2000/svg" xmlns:xlink="http://www.w3.org/1999/xlink">
    <!-- Generator: Sketch 50.2 (55047) - http://www.bohemiancoding.com/sketch -->
    <title>Untitled</title>
    <desc>Created with Sketch.</desc>
    <defs></defs>
    <g id="Page-1" stroke="none" stroke-width="1" fill="none" fill-rule="evenodd">
        <path d="M138.332663,43.9735708 C134.713014,35.3898305 129.521402,27.6954898 122.902614,21.0973858 C116.283826,14.4992818 108.589486,9.2869865 100.026429,5.66733697 C91.1531169,1.90290147 81.7213444,0 72,0 C62.2786556,0 52.8468831,1.90290147 43.9735708,5.66733697 C35.3898305,9.2869865 27.6954898,14.4785981 21.0973858,21.0973858 C14.4992818,27.7161735 9.2869865,35.4105142 5.66733697,43.9735708 C1.90290147,52.8468831 0,62.2786556 0,72 C0,81.7213444 1.90290147,91.1531169 5.66733697,100.026429 C9.2869865,108.610169 14.4785981,116.30451 21.0973858,122.902614 C27.7161735,129.521402 35.4105142,134.713014 43.9735708,138.332663 C52.8468831,142.097099 62.2786556,144 72,144 C81.7213444,144 91.1531169,142.097099 100.026429,138.332663 C108.610169,134.713014 116.30451,129.521402 122.902614,122.902614 C129.521402,116.283826 134.713014,108.589486 138.332663,100.026429 C142.097099,91.1531169 144,81.7213444 144,72 C144,62.2786556 142.097099,52.8468831 138.332663,43.9735708 Z M119.986211,119.986211 C107.16231,132.810112 90.1189313,139.863258 72,139.863258 C55.2048262,139.863258 39.3404194,133.80293 26.9095088,122.716461 L23.4760126,119.427751 C11.0037346,106.686584 4.13674232,89.8707268 4.13674232,72 C4.13674232,53.8810687 11.189888,36.8376903 24.0137891,24.0137891 C36.8376903,11.189888 53.8810687,4.13674232 72,4.13674232 C89.8707268,4.13674232 106.686584,11.0037346 119.427751,23.4760126 L122.716461,26.9095088 C133.80293,39.3404194 139.863258,55.2048262 139.863258,72 C139.863258,90.1189313 132.810112,107.16231 119.986211,119.986211 Z M80.4389543,62.464809 L79.6322896,50.8198793 C80.8526286,51.4610744 82.2384372,51.8126975 83.6656133,51.8126975 L83.7897156,51.8126975 C87.5955185,51.8126975 90.9255961,49.3927032 92.0838839,45.7730537 L92.1252514,45.6696352 C92.1666188,45.5662166 92.1873025,45.462798 92.2286699,45.3800632 L96.8411376,32.6595806 C97.1307096,31.8942833 96.9238725,31.0255674 96.3447285,30.4257397 C95.7655846,29.8465958 94.8968687,29.6397587 94.1108877,29.9293307 L81.3904051,34.5417983 C81.2869865,34.5831658 81.1835679,34.6038495 81.0801494,34.6452169 L80.9974145,34.6659006 L80.9767308,34.6659006 C81.2456191,32.9077851 80.9767308,31.0669348 80.1080149,29.3915542 L80.0666475,29.3088193 C80.0252801,29.2054007 79.963229,29.1226659 79.9218615,29.0192473 L74.1717897,16.7744901 C73.8201666,16.0298765 73.075553,15.5541511 72.2482045,15.5541511 C71.4208561,15.5541511 70.6762425,16.0298765 70.3246194,16.7744901 L64.5745475,29.0399311 C64.5331801,29.1433496 64.471129,29.2260845 64.4297616,29.329503 L64.3883941,29.4122379 C63.4989945,31.1496696 63.25079,33.0525711 63.5610457,34.8727377 C63.3748923,34.8106866 63.1887389,34.7279517 63.0025855,34.6659006 L62.9198506,34.6452169 C62.8164321,34.6038495 62.7130135,34.5831658 62.6095949,34.5417983 L49.8891123,29.9293307 C49.123815,29.6397587 48.2550991,29.8465958 47.6552715,30.4257397 C47.0761275,31.0048837 46.8692904,31.8735995 47.1588624,32.6595806 L51.7713301,45.3800632 C51.8126975,45.4834818 51.8333812,45.5869003 51.8747486,45.6696352 L51.9161161,45.7730537 C53.0744039,49.3927032 56.4251652,51.8126975 60.2102844,51.8126975 L60.3343867,51.8126975 C61.7822465,51.8126975 63.1473714,51.4610744 64.3677104,50.8198793 L62.320023,80.604424 L61.8029302,87.8230394 L60.5412238,106.252226 C60.3343867,108.320598 60.2516518,110.430336 60.2516518,112.498707 L60.2516518,116.614766 C60.2516518,123.0474 65.4846309,128.280379 71.9172652,128.280379 L72.1034186,128.280379 C78.5360529,128.280379 83.7690319,123.0474 83.7690319,116.614766 L83.7690319,112.498707 C83.7690319,110.430336 83.6656133,108.320598 83.4794599,106.252226 L80.893996,68.773341 L80.4389543,62.464809 Z M79.1979316,42.9600689 C79.1979316,41.0158001 80.4389543,39.299052 82.3004884,38.6992244 L82.3832232,38.6785406 C82.5280092,38.6371732 82.6934789,38.5751221 82.8382649,38.5337547 L91.2979029,35.4725654 L88.2367136,43.9322034 C88.1746625,44.0769894 88.133295,44.2217754 88.0919276,44.387245 L88.0712439,44.4699799 C87.4714163,46.3315139 85.7546682,47.5725366 83.8103993,47.5725366 L83.686297,47.5725366 C82.4866418,47.5725366 81.3697213,47.0968113 80.5216892,46.2694628 C79.6529733,45.4007469 79.1979316,44.2838265 79.1979316,43.0841712 L79.1979316,42.9600689 Z M68.1735134,31.335823 L68.2148808,31.2530882 C68.2976156,31.1083022 68.3596668,30.9635162 68.4217179,30.8187302 L72.2482045,22.6693479 L76.0746912,30.8187302 C76.1367423,30.9635162 76.2194772,31.1083022 76.2815283,31.2530882 L76.3228957,31.335823 C77.2122953,33.0732548 76.8813559,35.1623097 75.4955473,36.5481184 L75.4128124,36.6308532 C74.5647802,37.4788854 73.4478598,37.933927 72.2482045,37.933927 C71.0485493,37.933927 69.9316288,37.4582017 69.0835967,36.6308532 L69.0008618,36.5481184 C67.6150531,35.1623097 67.2841138,33.0732548 68.1735134,31.335823 Z M60.3343867,47.5518529 L60.2102844,47.5518529 C58.2660155,47.5518529 56.5492675,46.3108302 55.9494398,44.4492962 L55.9287561,44.3665613 C55.8873887,44.2217754 55.8253375,44.0769894 55.7839701,43.9322034 L52.7227808,35.4725654 L61.1824188,38.5337547 C61.3272048,38.5958058 61.4926745,38.6371732 61.6374605,38.6785406 L61.7201953,38.6992244 C63.5817294,39.299052 64.8227521,41.0158001 64.8227521,42.9600689 L64.8227521,43.0841712 L64.8020684,43.0841712 C64.8020684,45.5455329 62.7957483,47.5518529 60.3343867,47.5518529 Z M79.528871,116.614766 C79.528871,120.710141 76.1987935,124.019535 72.1241023,124.019535 L71.9379489,124.019535 C67.842574,124.019535 64.5331801,120.689457 64.5331801,116.614766 L64.5331801,112.498707 C64.5331801,110.554438 64.6365987,108.568802 64.8227521,106.624533 C64.8227521,106.603849 64.8227521,106.583166 64.8227521,106.562482 L69.1042804,44.3251939 C69.1249641,44.1390405 69.1042804,43.9322034 69.062913,43.7667337 C69.0835967,43.5392129 69.0835967,43.311692 69.0835967,43.0841712 L69.0835967,42.9600689 C69.0835967,42.4636599 69.0422292,41.9879345 68.9594944,41.5328928 C69.99368,41.9672508 71.1106004,42.1740879 72.2688883,42.1740879 C73.2410227,42.1740879 74.1717897,42.0086182 75.0611893,41.7190463 C74.9991382,42.1327205 74.9784545,42.5463947 74.9784545,42.9600689 L74.9784545,43.0841712 C74.9784545,43.311692 74.9991382,43.5392129 74.9991382,43.7667337 C74.9577708,43.9528871 74.937087,44.1390405 74.9577708,44.3251939 L76.4676817,66.4567653 L79.2392991,106.562482 C79.2392991,106.583166 79.2392991,106.603849 79.2392991,106.624533 C79.4254525,108.568802 79.528871,110.533755 79.528871,112.498707 L79.528871,116.614766 Z" id="Shape" fill="#000000" fill-rule="nonzero"></path>
    </g>
</svg>