<?xml version="1.0" encoding="UTF-8"?>
<svg width="698px" height="698px" viewBox="0 0 698 698" version="1.1" xmlns="http://www.w3.org/2000/svg" xmlns:xlink="http://www.w3.org/1999/xlink">
    <!-- Generator: Sketch 50 (54983) - http://www.bohemiancoding.com/sketch -->
    <title>mostaza</title>
    <desc>Created with Sketch.</desc>
    <defs></defs>
    <g id="Page-1" stroke="none" stroke-width="1" fill="none" fill-rule="evenodd">
        <g id="mostaza" fill="#000000" fill-rule="nonzero">
            <g id="Group">
                <path d="M669.7,213.5 C652.2,172 627.1,134.8 595.1,102.9 C563.1,70.9 525.9,45.8 484.5,28.3 C441.6,10.1 396,0.9 349,0.9 C302,0.9 256.4,10.1 213.5,28.3 C172,45.8 134.8,70.9 102.9,102.9 C70.9,134.9 45.8,172.1 28.3,213.5 C10.1,256.4 0.9,302 0.9,349 C0.9,396 10.1,441.6 28.3,484.5 C45.8,526 70.9,563.2 102.9,595.1 C134.9,627.1 172.1,652.2 213.5,669.7 C256.4,687.9 302,697.1 349,697.1 C396,697.1 441.6,687.9 484.5,669.7 C526,652.2 563.2,627.1 595.1,595.1 C627.1,563.1 652.2,525.9 669.7,484.5 C687.9,441.6 697.1,396 697.1,349 C697.1,302 687.9,256.4 669.7,213.5 Z M20.9,349 C20.9,261.4 55,179 117,117 C179,55 261.4,20.9 349,20.9 C434.6,20.9 515.2,53.5 576.7,112.8 L450,239.5 L450,212.9 C450,207.2 445.4,202.6 439.7,202.6 L423.3,202.6 L423.3,168.5 C423.3,162.8 418.7,158.2 413,158.2 L382.2,158.2 L372.6,85.2 C371.9,80.1 367.6,76.3 362.4,76.3 L335.5,76.3 C330.3,76.3 326,80.1 325.3,85.2 L315.7,158.2 L285,158.2 C279.3,158.2 274.7,162.8 274.7,168.5 L274.7,202.6 L258.3,202.6 C252.6,202.6 248,207.2 248,212.9 L248,441.4 L112.8,576.7 C53.5,515.2 20.9,434.6 20.9,349 Z M373.2,178.9 L402.7,178.9 L402.7,202.7 L295.2,202.7 L295.2,178.9 L324.7,178.9 L373.2,178.9 Z M336.5,158.3 L344.6,97 L353.5,97 L361.6,158.3 L336.5,158.3 Z M413,223.2 L429.4,223.2 L429.4,573.4 C429.4,580.2 402.3,596.2 349.9,596.2 L348.1,596.2 C295.6,596.2 268.6,580.2 268.6,573.4 L268.6,223.2 L285,223.2 L413,223.2 Z M581,581 C519,643 436.6,677.1 349,677.1 C267.1,677.1 189.7,647.3 129.3,592.7 L248,474 L248,573.4 C248,582.9 253.7,596.4 281,606.4 C299.1,613.1 322.9,616.7 348,616.7 L349.8,616.7 C375,616.7 398.8,613 416.8,606.4 C444.1,596.3 449.8,582.9 449.8,573.4 L449.8,272.1 L592.5,129.4 C647,189.8 676.9,267.1 676.9,349.1 C677.1,436.6 643,519 581,581 Z" id="Shape"></path>
                <path d="M280.2,243.1 L280.2,545.7 C280.2,551.4 284.8,556 290.5,556 C296.2,556 300.8,551.4 300.8,545.7 L300.8,243.1 C300.8,237.4 296.2,232.8 290.5,232.8 C284.8,232.8 280.2,237.4 280.2,243.1 Z" id="Shape"></path>
            </g>
        </g>
    </g>
</svg>