<?xml version="1.0" encoding="UTF-8"?>
<svg width="144px" height="144px" viewBox="0 0 144 144" version="1.1" xmlns="http://www.w3.org/2000/svg" xmlns:xlink="http://www.w3.org/1999/xlink">
    <!-- Generator: Sketch 50.2 (55047) - http://www.bohemiancoding.com/sketch -->
    <title>Untitled</title>
    <desc>Created with Sketch.</desc>
    <defs></defs>
    <g id="Page-1" stroke="none" stroke-width="1" fill="none" fill-rule="evenodd">
        <path d="M138.332663,43.9735708 C134.713014,35.3898305 129.521402,27.6954898 122.902614,21.0973858 C116.283826,14.4785981 108.589486,9.2869865 100.026429,5.66733697 C91.1531169,1.90290147 81.7213444,0 72,0 C62.2786556,0 52.8468831,1.90290147 43.9735708,5.66733697 C35.3898305,9.2869865 27.6954898,14.4785981 21.0973858,21.0973858 C14.4785981,27.7161735 9.2869865,35.4105142 5.66733697,43.9735708 C1.90290147,52.8468831 0,62.2786556 0,72 C0,81.7213444 1.90290147,91.1531169 5.66733697,100.026429 C9.2869865,108.610169 14.4785981,116.30451 21.0973858,122.902614 C27.7161735,129.521402 35.4105142,134.713014 43.9735708,138.332663 C52.8468831,142.097099 62.2786556,144 72,144 C81.7213444,144 91.1531169,142.097099 100.026429,138.332663 C108.610169,134.713014 116.30451,129.521402 122.902614,122.902614 C129.521402,116.283826 134.713014,108.589486 138.332663,100.026429 C142.097099,91.1531169 144,81.7213444 144,72 C144,62.2786556 142.097099,52.8468831 138.332663,43.9735708 Z M119.986211,119.986211 C107.16231,132.810112 90.1189313,139.863258 72,139.863258 C55.0600402,139.863258 39.0508475,133.699512 26.5578857,122.406205 L23.1450733,119.096811 C10.8796323,106.376329 4.13674232,89.7052571 4.13674232,72 C4.13674232,53.8810687 11.189888,36.8376903 24.0137891,24.0137891 C36.8376903,11.189888 53.8810687,4.13674232 72,4.13674232 C89.7052571,4.13674232 106.376329,10.8796323 119.096811,23.1450733 L122.364838,26.5785694 C133.63746,39.0715312 139.82189,55.0600402 139.82189,72.0206837 C139.863258,90.1189313 132.810112,107.16231 119.986211,119.986211 Z M92.8905487,49.3513358 L92.8905487,43.8494685 C92.8905487,42.670497 91.939098,41.7190463 90.7601264,41.7190463 L87.3679977,41.7190463 L87.3679977,34.6659006 C87.3679977,33.486929 86.416547,32.5354783 85.2375754,32.5354783 L78.8669922,32.5354783 L76.8813559,17.4363689 C76.73657,16.3814996 75.8471704,15.5955185 74.7716174,15.5955185 L69.2076989,15.5955185 C68.1321459,15.5955185 67.2427463,16.3814996 67.0979604,17.4363689 L65.112324,32.5354783 L58.7624246,32.5354783 C57.583453,32.5354783 56.6320023,33.486929 56.6320023,34.6659006 L56.6320023,41.7190463 L53.2398736,41.7190463 C52.060902,41.7190463 51.1094513,42.670497 51.1094513,43.8494685 L51.1094513,91.1117495 L51.1094513,97.8546395 L51.1094513,118.414249 C51.1094513,120.379201 52.2884229,123.171502 57.9350761,125.239874 C61.6788279,126.625682 66.6015513,127.370296 71.7931629,127.370296 L72.1654697,127.370296 C77.377765,127.370296 82.3004884,126.604999 86.0235564,125.239874 C91.6702097,123.150819 92.8491813,120.379201 92.8491813,118.414249 L92.8491813,56.0942258 L92.8905487,49.3513358 Z M71.0899167,19.8770468 L72.930767,19.8770468 L74.6061477,32.556162 L69.4145361,32.556162 L71.0899167,19.8770468 Z M60.8721632,36.8170066 L66.9738581,36.8170066 L77.0054582,36.8170066 L83.1071531,36.8170066 L83.1071531,41.73973 L60.8721632,41.73973 L60.8721632,36.8170066 Z M88.6297041,118.414249 C88.6297041,119.820741 83.0244183,123.130135 72.1861534,123.130135 L71.8138466,123.130135 C60.954898,123.130135 55.3702959,119.820741 55.3702959,118.414249 L55.3702959,45.9798908 L58.7624246,45.9798908 L85.2375754,45.9798908 L88.6297041,45.9798908 L88.6297041,118.414249 Z M59.9000287,47.9655271 C58.7210572,47.9655271 57.7696064,48.9169779 57.7696064,50.0959494 L57.7696064,112.684861 C57.7696064,113.863832 58.7210572,114.815283 59.9000287,114.815283 C61.0790003,114.815283 62.030451,113.863832 62.030451,112.684861 L62.030451,50.0959494 C62.030451,48.9169779 61.0790003,47.9655271 59.9000287,47.9655271 Z" id="Shape" fill="#000000" fill-rule="nonzero"></path>
    </g>
</svg>